<?xml version="1.0" encoding="UTF-8" standalone="no"?>
<!DOCTYPE svg PUBLIC "-//W3C//DTD SVG 1.1//EN"
 "http://www.w3.org/Graphics/SVG/1.1/DTD/svg11.dtd">
<!-- Generated by graphviz version 2.43.0 (0)
 -->
<!-- Title: scripts Pages: 1 -->
<svg width="2301pt" height="1470pt"
 viewBox="0.00 0.00 2301.22 1469.88" xmlns="http://www.w3.org/2000/svg" xmlns:xlink="http://www.w3.org/1999/xlink">
<g id="graph0" class="graph" transform="scale(1 1) rotate(0) translate(4 1465.88)">
<title>scripts</title>
<polygon fill="white" stroke="transparent" points="-4,4 -4,-1465.88 2297.22,-1465.88 2297.22,4 -4,4"/>
<!-- clients&#45;java.parent.yaml -->
<g id="node1" class="node">
<title>clients&#45;java.parent.yaml</title>
<ellipse fill="none" stroke="black" cx="170.93" cy="-943.88" rx="122.38" ry="18"/>
<text text-anchor="middle" x="170.93" y="-940.18" font-family="Times,serif" font-size="14.00">clients&#45;java.parent.yaml</text>
</g>
<!-- clients&#45;java.child.yaml -->
<g id="node8" class="node">
<title>clients&#45;java.child.yaml</title>
<ellipse fill="none" stroke="black" cx="939.67" cy="-943.88" rx="114.28" ry="18"/>
<text text-anchor="middle" x="939.67" y="-940.18" font-family="Times,serif" font-size="14.00">clients&#45;java.child.yaml</text>
</g>
<!-- clients&#45;java.parent.yaml&#45;&gt;clients&#45;java.child.yaml -->
<g id="edge1" class="edge">
<title>clients&#45;java.parent.yaml&#45;&gt;clients&#45;java.child.yaml</title>
<path fill="none" stroke="black" d="M293.43,-943.88C436.11,-943.88 671.49,-943.88 815.07,-943.88"/>
<polygon fill="black" stroke="black" points="815.25,-947.38 825.25,-943.88 815.25,-940.38 815.25,-947.38"/>
</g>
<!-- clients&#45;javascript.parent.yaml -->
<g id="node2" class="node">
<title>clients&#45;javascript.parent.yaml</title>
<ellipse fill="none" stroke="black" cx="170.93" cy="-800.88" rx="149.47" ry="18"/>
<text text-anchor="middle" x="170.93" y="-797.18" font-family="Times,serif" font-size="14.00">clients&#45;javascript.parent.yaml</text>
</g>
<!-- clients&#45;javascript.child.yaml -->
<g id="node9" class="node">
<title>clients&#45;javascript.child.yaml</title>
<ellipse fill="none" stroke="black" cx="555.3" cy="-800.88" rx="141.07" ry="18"/>
<text text-anchor="middle" x="555.3" y="-797.18" font-family="Times,serif" font-size="14.00">clients&#45;javascript.child.yaml</text>
</g>
<!-- clients&#45;javascript.parent.yaml&#45;&gt;clients&#45;javascript.child.yaml -->
<g id="edge2" class="edge">
<title>clients&#45;javascript.parent.yaml&#45;&gt;clients&#45;javascript.child.yaml</title>
<path fill="none" stroke="black" d="M320.59,-800.88C347.96,-800.88 376.57,-800.88 403.99,-800.88"/>
<polygon fill="black" stroke="black" points="404.03,-804.38 414.03,-800.88 404.03,-797.38 404.03,-804.38"/>
</g>
<!-- doc&#45;kurento.yaml -->
<g id="node3" class="node">
<title>doc&#45;kurento.yaml</title>
<ellipse fill="none" stroke="black" cx="170.93" cy="-1119.88" rx="90.98" ry="18"/>
<text text-anchor="middle" x="170.93" y="-1116.18" font-family="Times,serif" font-size="14.00">doc&#45;kurento.yaml</text>
</g>
<!-- ci_job_deploy_doc.sh -->
<g id="node10" class="node">
<title>ci_job_deploy_doc.sh</title>
<ellipse fill="none" stroke="black" cx="555.3" cy="-1119.88" rx="106.68" ry="18"/>
<text text-anchor="middle" x="555.3" y="-1116.18" font-family="Times,serif" font-size="14.00">ci_job_deploy_doc.sh</text>
</g>
<!-- doc&#45;kurento.yaml&#45;&gt;ci_job_deploy_doc.sh -->
<g id="edge3" class="edge">
<title>doc&#45;kurento.yaml&#45;&gt;ci_job_deploy_doc.sh</title>
<path fill="none" stroke="black" d="M262.07,-1119.88C314.76,-1119.88 381.83,-1119.88 438.42,-1119.88"/>
<polygon fill="black" stroke="black" points="438.5,-1123.38 448.5,-1119.88 438.5,-1116.38 438.5,-1123.38"/>
</g>
<!-- docker&#45;kurento&#45;buildpackage.yaml -->
<g id="node4" class="node">
<title>docker&#45;kurento&#45;buildpackage.yaml</title>
<ellipse fill="none" stroke="black" cx="170.93" cy="-127.88" rx="170.87" ry="18"/>
<text text-anchor="middle" x="170.93" y="-124.18" font-family="Times,serif" font-size="14.00">docker&#45;kurento&#45;buildpackage.yaml</text>
</g>
<!-- container_build.sh -->
<g id="node11" class="node">
<title>container_build.sh</title>
<ellipse fill="none" stroke="black" cx="1301.94" cy="-196.88" rx="96.38" ry="18"/>
<text text-anchor="middle" x="1301.94" y="-193.18" font-family="Times,serif" font-size="14.00">container_build.sh</text>
</g>
<!-- docker&#45;kurento&#45;buildpackage.yaml&#45;&gt;container_build.sh -->
<g id="edge4" class="edge">
<title>docker&#45;kurento&#45;buildpackage.yaml&#45;&gt;container_build.sh</title>
<path fill="none" stroke="black" d="M270.47,-142.53C304.44,-147.12 342.76,-151.79 377.87,-154.88 534.13,-168.66 990.38,-185.9 1197.05,-193.27"/>
<polygon fill="black" stroke="black" points="1197.19,-196.78 1207.3,-193.64 1197.44,-189.78 1197.19,-196.78"/>
</g>
<!-- docker/kurento&#45;buildpackage -->
<g id="node12" class="node">
<title>docker/kurento&#45;buildpackage</title>
<ellipse fill="none" stroke="black" cx="555.3" cy="-73.88" rx="145.67" ry="18"/>
<text text-anchor="middle" x="555.3" y="-70.18" font-family="Times,serif" font-size="14.00">docker/kurento&#45;buildpackage</text>
</g>
<!-- docker&#45;kurento&#45;buildpackage.yaml&#45;&gt;docker/kurento&#45;buildpackage -->
<g id="edge5" class="edge">
<title>docker&#45;kurento&#45;buildpackage.yaml&#45;&gt;docker/kurento&#45;buildpackage</title>
<path fill="none" stroke="black" d="M273.9,-113.48C327.84,-105.87 394,-96.52 448.5,-88.83"/>
<polygon fill="black" stroke="black" points="449.13,-92.27 458.54,-87.41 448.15,-85.34 449.13,-92.27"/>
</g>
<!-- docker&#45;kurento&#45;ci&#45;buildtools.yaml -->
<g id="node5" class="node">
<title>docker&#45;kurento&#45;ci&#45;buildtools.yaml</title>
<ellipse fill="none" stroke="black" cx="170.93" cy="-27.88" rx="165.97" ry="18"/>
<text text-anchor="middle" x="170.93" y="-24.18" font-family="Times,serif" font-size="14.00">docker&#45;kurento&#45;ci&#45;buildtools.yaml</text>
</g>
<!-- docker&#45;kurento&#45;ci&#45;buildtools.yaml&#45;&gt;container_build.sh -->
<g id="edge6" class="edge">
<title>docker&#45;kurento&#45;ci&#45;buildtools.yaml&#45;&gt;container_build.sh</title>
<path fill="none" stroke="black" d="M282.07,-14.49C461.12,3.18 824.13,21.85 1110.61,-73.88 1174.69,-95.3 1238.45,-143.33 1273.48,-172.64"/>
<polygon fill="black" stroke="black" points="1271.45,-175.5 1281.34,-179.3 1275.98,-170.16 1271.45,-175.5"/>
</g>
<!-- docker&#45;rust&#45;buildpackage.yaml -->
<g id="node6" class="node">
<title>docker&#45;rust&#45;buildpackage.yaml</title>
<ellipse fill="none" stroke="black" cx="170.93" cy="-1173.88" rx="153.27" ry="18"/>
<text text-anchor="middle" x="170.93" y="-1170.18" font-family="Times,serif" font-size="14.00">docker&#45;rust&#45;buildpackage.yaml</text>
</g>
<!-- server.parent.yaml -->
<g id="node7" class="node">
<title>server.parent.yaml</title>
<ellipse fill="none" stroke="black" cx="170.93" cy="-381.88" rx="98.58" ry="18"/>
<text text-anchor="middle" x="170.93" y="-378.18" font-family="Times,serif" font-size="14.00">server.parent.yaml</text>
</g>
<!-- server&#45;buildpackage&#45;rust.child.yaml -->
<g id="node13" class="node">
<title>server&#45;buildpackage&#45;rust.child.yaml</title>
<ellipse fill="none" stroke="black" cx="555.3" cy="-327.88" rx="177.37" ry="18"/>
<text text-anchor="middle" x="555.3" y="-324.18" font-family="Times,serif" font-size="14.00">server&#45;buildpackage&#45;rust.child.yaml</text>
</g>
<!-- server.parent.yaml&#45;&gt;server&#45;buildpackage&#45;rust.child.yaml -->
<g id="edge7" class="edge">
<title>server.parent.yaml&#45;&gt;server&#45;buildpackage&#45;rust.child.yaml</title>
<path fill="none" stroke="black" d="M249.77,-370.89C304.69,-363.14 379.14,-352.62 440.67,-343.93"/>
<polygon fill="black" stroke="black" points="441.41,-347.36 450.82,-342.5 440.43,-340.43 441.41,-347.36"/>
</g>
<!-- server&#45;buildpackage.child.yaml -->
<g id="node14" class="node">
<title>server&#45;buildpackage.child.yaml</title>
<ellipse fill="none" stroke="black" cx="1301.94" cy="-481.88" rx="155.17" ry="18"/>
<text text-anchor="middle" x="1301.94" y="-478.18" font-family="Times,serif" font-size="14.00">server&#45;buildpackage.child.yaml</text>
</g>
<!-- server.parent.yaml&#45;&gt;server&#45;buildpackage.child.yaml -->
<g id="edge8" class="edge">
<title>server.parent.yaml&#45;&gt;server&#45;buildpackage.child.yaml</title>
<path fill="none" stroke="black" d="M204.36,-398.82C244.03,-418.55 313.83,-450.06 377.87,-462.88 654.95,-518.38 988.16,-506.45 1168.79,-493.64"/>
<polygon fill="black" stroke="black" points="1169.15,-497.13 1178.87,-492.92 1168.65,-490.15 1169.15,-497.13"/>
</g>
<!-- server&#45;deploy&#45;aws.child.yaml -->
<g id="node15" class="node">
<title>server&#45;deploy&#45;aws.child.yaml</title>
<ellipse fill="none" stroke="black" cx="555.3" cy="-435.88" rx="145.67" ry="18"/>
<text text-anchor="middle" x="555.3" y="-432.18" font-family="Times,serif" font-size="14.00">server&#45;deploy&#45;aws.child.yaml</text>
</g>
<!-- server.parent.yaml&#45;&gt;server&#45;deploy&#45;aws.child.yaml -->
<g id="edge9" class="edge">
<title>server.parent.yaml&#45;&gt;server&#45;deploy&#45;aws.child.yaml</title>
<path fill="none" stroke="black" d="M249.77,-392.88C307.08,-400.97 385.66,-412.07 448.64,-420.96"/>
<polygon fill="black" stroke="black" points="448.22,-424.44 458.61,-422.37 449.2,-417.51 448.22,-424.44"/>
</g>
<!-- server&#45;deploy&#45;debian.child.yaml -->
<g id="node16" class="node">
<title>server&#45;deploy&#45;debian.child.yaml</title>
<ellipse fill="none" stroke="black" cx="555.3" cy="-381.88" rx="159.47" ry="18"/>
<text text-anchor="middle" x="555.3" y="-378.18" font-family="Times,serif" font-size="14.00">server&#45;deploy&#45;debian.child.yaml</text>
</g>
<!-- server.parent.yaml&#45;&gt;server&#45;deploy&#45;debian.child.yaml -->
<g id="edge10" class="edge">
<title>server.parent.yaml&#45;&gt;server&#45;deploy&#45;debian.child.yaml</title>
<path fill="none" stroke="black" d="M269.91,-381.88C305.2,-381.88 346.1,-381.88 385.69,-381.88"/>
<polygon fill="black" stroke="black" points="385.72,-385.38 395.72,-381.88 385.72,-378.38 385.72,-385.38"/>
</g>
<!-- server&#45;deploy&#45;docker.child.yaml -->
<g id="node17" class="node">
<title>server&#45;deploy&#45;docker.child.yaml</title>
<ellipse fill="none" stroke="black" cx="555.3" cy="-273.88" rx="157.87" ry="18"/>
<text text-anchor="middle" x="555.3" y="-270.18" font-family="Times,serif" font-size="14.00">server&#45;deploy&#45;docker.child.yaml</text>
</g>
<!-- server.parent.yaml&#45;&gt;server&#45;deploy&#45;docker.child.yaml -->
<g id="edge11" class="edge">
<title>server.parent.yaml&#45;&gt;server&#45;deploy&#45;docker.child.yaml</title>
<path fill="none" stroke="black" d="M207.56,-365.04C247.98,-346.61 316.29,-317.48 377.87,-300.88 396.09,-295.97 415.62,-291.87 434.81,-288.47"/>
<polygon fill="black" stroke="black" points="435.54,-291.9 444.81,-286.76 434.36,-285 435.54,-291.9"/>
</g>
<!-- ci_job_deploy_java.sh -->
<g id="node18" class="node">
<title>ci_job_deploy_java.sh</title>
<ellipse fill="none" stroke="black" cx="1301.94" cy="-981.88" rx="109.38" ry="18"/>
<text text-anchor="middle" x="1301.94" y="-978.18" font-family="Times,serif" font-size="14.00">ci_job_deploy_java.sh</text>
</g>
<!-- clients&#45;java.child.yaml&#45;&gt;ci_job_deploy_java.sh -->
<g id="edge12" class="edge">
<title>clients&#45;java.child.yaml&#45;&gt;ci_job_deploy_java.sh</title>
<path fill="none" stroke="black" d="M1035.33,-953.87C1085.76,-959.19 1147.82,-965.73 1199.26,-971.16"/>
<polygon fill="black" stroke="black" points="1199.09,-974.66 1209.41,-972.23 1199.83,-967.7 1199.09,-974.66"/>
</g>
<!-- ci_job_generate_module.sh -->
<g id="node19" class="node">
<title>ci_job_generate_module.sh</title>
<ellipse fill="none" stroke="black" cx="1301.94" cy="-720.88" rx="135.38" ry="18"/>
<text text-anchor="middle" x="1301.94" y="-717.18" font-family="Times,serif" font-size="14.00">ci_job_generate_module.sh</text>
</g>
<!-- clients&#45;java.child.yaml&#45;&gt;ci_job_generate_module.sh -->
<g id="edge13" class="edge">
<title>clients&#45;java.child.yaml&#45;&gt;ci_job_generate_module.sh</title>
<path fill="none" stroke="black" d="M996.36,-928.14C1030.61,-917.21 1074.66,-900.85 1110.61,-879.88 1145.17,-859.73 1229.86,-785.04 1273.68,-745.62"/>
<polygon fill="black" stroke="black" points="1276.03,-748.22 1281.11,-738.92 1271.34,-743.02 1276.03,-748.22"/>
</g>
<!-- clients&#45;javascript.child.yaml&#45;&gt;ci_job_generate_module.sh -->
<g id="edge14" class="edge">
<title>clients&#45;javascript.child.yaml&#45;&gt;ci_job_generate_module.sh</title>
<path fill="none" stroke="black" d="M663.79,-789.34C802.73,-774.41 1043.69,-748.52 1186.12,-733.22"/>
<polygon fill="black" stroke="black" points="1186.63,-736.69 1196.2,-732.14 1185.88,-729.73 1186.63,-736.69"/>
</g>
<!-- ci_job_deploy_js.sh -->
<g id="node20" class="node">
<title>ci_job_deploy_js.sh</title>
<ellipse fill="none" stroke="black" cx="939.67" cy="-852.88" rx="98.28" ry="18"/>
<text text-anchor="middle" x="939.67" y="-849.18" font-family="Times,serif" font-size="14.00">ci_job_deploy_js.sh</text>
</g>
<!-- clients&#45;javascript.child.yaml&#45;&gt;ci_job_deploy_js.sh -->
<g id="edge15" class="edge">
<title>clients&#45;javascript.child.yaml&#45;&gt;ci_job_deploy_js.sh</title>
<path fill="none" stroke="black" d="M652.79,-814.01C713.44,-822.25 791.1,-832.82 850.17,-840.85"/>
<polygon fill="black" stroke="black" points="849.85,-844.34 860.23,-842.22 850.79,-837.4 849.85,-844.34"/>
</g>
<!-- doc_deploy.sh -->
<g id="node31" class="node">
<title>doc_deploy.sh</title>
<ellipse fill="none" stroke="black" cx="1621.97" cy="-1119.88" rx="74.19" ry="18"/>
<text text-anchor="middle" x="1621.97" y="-1116.18" font-family="Times,serif" font-size="14.00">doc_deploy.sh</text>
</g>
<!-- ci_job_deploy_doc.sh&#45;&gt;doc_deploy.sh -->
<g id="edge23" class="edge">
<title>ci_job_deploy_doc.sh&#45;&gt;doc_deploy.sh</title>
<path fill="none" stroke="black" d="M662.28,-1119.88C874.14,-1119.88 1345.99,-1119.88 1537.64,-1119.88"/>
<polygon fill="black" stroke="black" points="1537.66,-1123.38 1547.66,-1119.88 1537.66,-1116.38 1537.66,-1123.38"/>
</g>
<!-- parse_yaml.sh -->
<g id="node44" class="node">
<title>parse_yaml.sh</title>
<ellipse fill="none" stroke="black" cx="1621.97" cy="-196.88" rx="77.19" ry="18"/>
<text text-anchor="middle" x="1621.97" y="-193.18" font-family="Times,serif" font-size="14.00">parse_yaml.sh</text>
</g>
<!-- container_build.sh&#45;&gt;parse_yaml.sh -->
<g id="edge37" class="edge">
<title>container_build.sh&#45;&gt;parse_yaml.sh</title>
<path fill="none" stroke="black" d="M1398.36,-196.88C1441.55,-196.88 1492.23,-196.88 1534.31,-196.88"/>
<polygon fill="black" stroke="black" points="1534.54,-200.38 1544.54,-196.88 1534.54,-193.38 1534.54,-200.38"/>
</g>
<!-- kurento&#45;buildpackage.sh -->
<g id="node40" class="node">
<title>kurento&#45;buildpackage.sh</title>
<ellipse fill="none" stroke="black" cx="939.67" cy="-100.88" rx="124.58" ry="18"/>
<text text-anchor="middle" x="939.67" y="-97.18" font-family="Times,serif" font-size="14.00">kurento&#45;buildpackage.sh</text>
</g>
<!-- docker/kurento&#45;buildpackage&#45;&gt;kurento&#45;buildpackage.sh -->
<g id="edge34" class="edge">
<title>docker/kurento&#45;buildpackage&#45;&gt;kurento&#45;buildpackage.sh</title>
<path fill="none" stroke="black" d="M682.04,-82.76C725.55,-85.84 774.22,-89.27 817.37,-92.32"/>
<polygon fill="black" stroke="black" points="817.13,-95.81 827.35,-93.02 817.62,-88.83 817.13,-95.81"/>
</g>
<!-- ci_job_package_gst_rust_debian.sh -->
<g id="node22" class="node">
<title>ci_job_package_gst_rust_debian.sh</title>
<ellipse fill="none" stroke="black" cx="939.67" cy="-327.88" rx="170.87" ry="18"/>
<text text-anchor="middle" x="939.67" y="-324.18" font-family="Times,serif" font-size="14.00">ci_job_package_gst_rust_debian.sh</text>
</g>
<!-- server&#45;buildpackage&#45;rust.child.yaml&#45;&gt;ci_job_package_gst_rust_debian.sh -->
<g id="edge17" class="edge">
<title>server&#45;buildpackage&#45;rust.child.yaml&#45;&gt;ci_job_package_gst_rust_debian.sh</title>
<path fill="none" stroke="black" d="M732.94,-327.88C741.35,-327.88 749.81,-327.88 758.24,-327.88"/>
<polygon fill="black" stroke="black" points="758.5,-331.38 768.5,-327.88 758.5,-324.38 758.5,-331.38"/>
</g>
<!-- ci_job_package_debian.sh -->
<g id="node21" class="node">
<title>ci_job_package_debian.sh</title>
<ellipse fill="none" stroke="black" cx="1621.97" cy="-481.88" rx="128.88" ry="18"/>
<text text-anchor="middle" x="1621.97" y="-478.18" font-family="Times,serif" font-size="14.00">ci_job_package_debian.sh</text>
</g>
<!-- server&#45;buildpackage.child.yaml&#45;&gt;ci_job_package_debian.sh -->
<g id="edge16" class="edge">
<title>server&#45;buildpackage.child.yaml&#45;&gt;ci_job_package_debian.sh</title>
<path fill="none" stroke="black" d="M1457.3,-481.88C1465.94,-481.88 1474.61,-481.88 1483.19,-481.88"/>
<polygon fill="black" stroke="black" points="1483.21,-485.38 1493.21,-481.88 1483.21,-478.38 1483.21,-485.38"/>
</g>
<!-- ci_job_deploy_aws_cf.sh -->
<g id="node23" class="node">
<title>ci_job_deploy_aws_cf.sh</title>
<ellipse fill="none" stroke="black" cx="939.67" cy="-435.88" rx="120.48" ry="18"/>
<text text-anchor="middle" x="939.67" y="-432.18" font-family="Times,serif" font-size="14.00">ci_job_deploy_aws_cf.sh</text>
</g>
<!-- server&#45;deploy&#45;aws.child.yaml&#45;&gt;ci_job_deploy_aws_cf.sh -->
<g id="edge18" class="edge">
<title>server&#45;deploy&#45;aws.child.yaml&#45;&gt;ci_job_deploy_aws_cf.sh</title>
<path fill="none" stroke="black" d="M701.13,-435.88C736.63,-435.88 774.39,-435.88 809.12,-435.88"/>
<polygon fill="black" stroke="black" points="809.31,-439.38 819.31,-435.88 809.31,-432.38 809.31,-439.38"/>
</g>
<!-- ci_job_deploy_debian.sh -->
<g id="node24" class="node">
<title>ci_job_deploy_debian.sh</title>
<ellipse fill="none" stroke="black" cx="939.67" cy="-381.88" rx="121.58" ry="18"/>
<text text-anchor="middle" x="939.67" y="-378.18" font-family="Times,serif" font-size="14.00">ci_job_deploy_debian.sh</text>
</g>
<!-- server&#45;deploy&#45;debian.child.yaml&#45;&gt;ci_job_deploy_debian.sh -->
<g id="edge19" class="edge">
<title>server&#45;deploy&#45;debian.child.yaml&#45;&gt;ci_job_deploy_debian.sh</title>
<path fill="none" stroke="black" d="M714.59,-381.88C745.6,-381.88 777.8,-381.88 807.8,-381.88"/>
<polygon fill="black" stroke="black" points="807.88,-385.38 817.88,-381.88 807.88,-378.38 807.88,-385.38"/>
</g>
<!-- ci_job_deploy_docker.sh -->
<g id="node25" class="node">
<title>ci_job_deploy_docker.sh</title>
<ellipse fill="none" stroke="black" cx="939.67" cy="-219.88" rx="120.48" ry="18"/>
<text text-anchor="middle" x="939.67" y="-216.18" font-family="Times,serif" font-size="14.00">ci_job_deploy_docker.sh</text>
</g>
<!-- server&#45;deploy&#45;docker.child.yaml&#45;&gt;ci_job_deploy_docker.sh -->
<g id="edge20" class="edge">
<title>server&#45;deploy&#45;docker.child.yaml&#45;&gt;ci_job_deploy_docker.sh</title>
<path fill="none" stroke="black" d="M655.27,-259.91C712.57,-251.82 784.4,-241.67 841.41,-233.62"/>
<polygon fill="black" stroke="black" points="842.1,-237.06 851.51,-232.19 841.12,-230.13 842.1,-237.06"/>
</g>
<!-- ci_job_deploy_docker_asan.sh -->
<g id="node26" class="node">
<title>ci_job_deploy_docker_asan.sh</title>
<ellipse fill="none" stroke="black" cx="939.67" cy="-273.88" rx="147.57" ry="18"/>
<text text-anchor="middle" x="939.67" y="-270.18" font-family="Times,serif" font-size="14.00">ci_job_deploy_docker_asan.sh</text>
</g>
<!-- server&#45;deploy&#45;docker.child.yaml&#45;&gt;ci_job_deploy_docker_asan.sh -->
<g id="edge21" class="edge">
<title>server&#45;deploy&#45;docker.child.yaml&#45;&gt;ci_job_deploy_docker_asan.sh</title>
<path fill="none" stroke="black" d="M713.48,-273.88C735.99,-273.88 759.15,-273.88 781.65,-273.88"/>
<polygon fill="black" stroke="black" points="781.94,-277.38 791.94,-273.88 781.94,-270.38 781.94,-277.38"/>
</g>
<!-- maven_deploy.sh -->
<g id="node32" class="node">
<title>maven_deploy.sh</title>
<ellipse fill="none" stroke="black" cx="1621.97" cy="-1027.88" rx="89.08" ry="18"/>
<text text-anchor="middle" x="1621.97" y="-1024.18" font-family="Times,serif" font-size="14.00">maven_deploy.sh</text>
</g>
<!-- ci_job_deploy_java.sh&#45;&gt;maven_deploy.sh -->
<g id="edge26" class="edge">
<title>ci_job_deploy_java.sh&#45;&gt;maven_deploy.sh</title>
<path fill="none" stroke="black" d="M1384.84,-993.73C1432.27,-1000.59 1491.76,-1009.2 1539.17,-1016.05"/>
<polygon fill="black" stroke="black" points="1538.69,-1019.52 1549.09,-1017.49 1539.69,-1012.59 1538.69,-1019.52"/>
</g>
<!-- generate_java_module.sh -->
<g id="node34" class="node">
<title>generate_java_module.sh</title>
<ellipse fill="none" stroke="black" cx="1621.97" cy="-589.88" rx="128.08" ry="18"/>
<text text-anchor="middle" x="1621.97" y="-586.18" font-family="Times,serif" font-size="14.00">generate_java_module.sh</text>
</g>
<!-- ci_job_generate_module.sh&#45;&gt;generate_java_module.sh -->
<g id="edge28" class="edge">
<title>ci_job_generate_module.sh&#45;&gt;generate_java_module.sh</title>
<path fill="none" stroke="black" d="M1329.49,-703.1C1365.22,-679.95 1431.47,-639.74 1493.28,-616.88 1504.49,-612.74 1516.5,-609.16 1528.5,-606.08"/>
<polygon fill="black" stroke="black" points="1529.68,-609.39 1538.56,-603.61 1528.02,-602.59 1529.68,-609.39"/>
</g>
<!-- generate_js_module.sh -->
<g id="node35" class="node">
<title>generate_js_module.sh</title>
<ellipse fill="none" stroke="black" cx="1621.97" cy="-697.88" rx="116.18" ry="18"/>
<text text-anchor="middle" x="1621.97" y="-694.18" font-family="Times,serif" font-size="14.00">generate_js_module.sh</text>
</g>
<!-- ci_job_generate_module.sh&#45;&gt;generate_js_module.sh -->
<g id="edge29" class="edge">
<title>ci_job_generate_module.sh&#45;&gt;generate_js_module.sh</title>
<path fill="none" stroke="black" d="M1421.36,-712.32C1449.13,-710.31 1478.65,-708.18 1506.25,-706.18"/>
<polygon fill="black" stroke="black" points="1506.6,-709.66 1516.32,-705.45 1506.1,-702.68 1506.6,-709.66"/>
</g>
<!-- get_name.sh -->
<g id="node36" class="node">
<title>get_name.sh</title>
<ellipse fill="none" stroke="black" cx="1911.45" cy="-779.88" rx="69.59" ry="18"/>
<text text-anchor="middle" x="1911.45" y="-776.18" font-family="Times,serif" font-size="14.00">get_name.sh</text>
</g>
<!-- ci_job_generate_module.sh&#45;&gt;get_name.sh -->
<g id="edge30" class="edge">
<title>ci_job_generate_module.sh&#45;&gt;get_name.sh</title>
<path fill="none" stroke="black" d="M1411.55,-731.43C1534.05,-743.33 1729.97,-762.36 1836.18,-772.67"/>
<polygon fill="black" stroke="black" points="1835.88,-776.16 1846.17,-773.64 1836.55,-769.19 1835.88,-776.16"/>
</g>
<!-- install_server.sh -->
<g id="node37" class="node">
<title>install_server.sh</title>
<ellipse fill="none" stroke="black" cx="1621.97" cy="-535.88" rx="86.38" ry="18"/>
<text text-anchor="middle" x="1621.97" y="-532.18" font-family="Times,serif" font-size="14.00">install_server.sh</text>
</g>
<!-- ci_job_generate_module.sh&#45;&gt;install_server.sh -->
<g id="edge31" class="edge">
<title>ci_job_generate_module.sh&#45;&gt;install_server.sh</title>
<path fill="none" stroke="black" d="M1318.77,-702.93C1349.1,-669.71 1419.05,-598.8 1493.28,-562.88 1507,-556.25 1522.33,-551.23 1537.47,-547.45"/>
<polygon fill="black" stroke="black" points="1538.43,-550.82 1547.37,-545.13 1536.84,-544 1538.43,-550.82"/>
</g>
<!-- deploy_js.sh -->
<g id="node33" class="node">
<title>deploy_js.sh</title>
<ellipse fill="none" stroke="black" cx="1301.94" cy="-881.88" rx="67.69" ry="18"/>
<text text-anchor="middle" x="1301.94" y="-878.18" font-family="Times,serif" font-size="14.00">deploy_js.sh</text>
</g>
<!-- ci_job_deploy_js.sh&#45;&gt;deploy_js.sh -->
<g id="edge27" class="edge">
<title>ci_job_deploy_js.sh&#45;&gt;deploy_js.sh</title>
<path fill="none" stroke="black" d="M1029.73,-860.05C1090.37,-864.93 1169.7,-871.32 1226.88,-875.92"/>
<polygon fill="black" stroke="black" points="1226.68,-879.42 1236.93,-876.73 1227.25,-872.44 1226.68,-879.42"/>
</g>
<!-- git_checkout_name.sh -->
<g id="node38" class="node">
<title>git_checkout_name.sh</title>
<ellipse fill="none" stroke="black" cx="1911.45" cy="-535.88" rx="112.38" ry="18"/>
<text text-anchor="middle" x="1911.45" y="-532.18" font-family="Times,serif" font-size="14.00">git_checkout_name.sh</text>
</g>
<!-- ci_job_package_debian.sh&#45;&gt;git_checkout_name.sh -->
<g id="edge32" class="edge">
<title>ci_job_package_debian.sh&#45;&gt;git_checkout_name.sh</title>
<path fill="none" stroke="black" d="M1699.63,-496.28C1739.04,-503.69 1787.12,-512.72 1827.4,-520.28"/>
<polygon fill="black" stroke="black" points="1826.99,-523.77 1837.47,-522.18 1828.28,-516.89 1826.99,-523.77"/>
</g>
<!-- git_default_branch.sh -->
<g id="node39" class="node">
<title>git_default_branch.sh</title>
<ellipse fill="none" stroke="black" cx="2182.73" cy="-560.88" rx="110.48" ry="18"/>
<text text-anchor="middle" x="2182.73" y="-557.18" font-family="Times,serif" font-size="14.00">git_default_branch.sh</text>
</g>
<!-- ci_job_package_debian.sh&#45;&gt;git_default_branch.sh -->
<g id="edge33" class="edge">
<title>ci_job_package_debian.sh&#45;&gt;git_default_branch.sh</title>
<path fill="none" stroke="black" d="M1750.8,-481.12C1833.08,-482.86 1941.89,-489.34 2036.24,-508.88 2069.83,-515.84 2106.18,-528.83 2134.14,-540.09"/>
<polygon fill="black" stroke="black" points="2133.08,-543.43 2143.66,-543.98 2135.73,-536.96 2133.08,-543.43"/>
</g>
<!-- ci_aptly_repo_publish.sh -->
<g id="node27" class="node">
<title>ci_aptly_repo_publish.sh</title>
<ellipse fill="none" stroke="black" cx="1301.94" cy="-381.88" rx="124.28" ry="18"/>
<text text-anchor="middle" x="1301.94" y="-378.18" font-family="Times,serif" font-size="14.00">ci_aptly_repo_publish.sh</text>
</g>
<!-- ci_job_deploy_debian.sh&#45;&gt;ci_aptly_repo_publish.sh -->
<g id="edge22" class="edge">
<title>ci_job_deploy_debian.sh&#45;&gt;ci_aptly_repo_publish.sh</title>
<path fill="none" stroke="black" d="M1061.39,-381.88C1095.45,-381.88 1132.7,-381.88 1167.46,-381.88"/>
<polygon fill="black" stroke="black" points="1167.68,-385.38 1177.68,-381.88 1167.68,-378.38 1167.68,-385.38"/>
</g>
<!-- ci_job_deploy_docker.sh&#45;&gt;container_build.sh -->
<g id="edge24" class="edge">
<title>ci_job_deploy_docker.sh&#45;&gt;container_build.sh</title>
<path fill="none" stroke="black" d="M1050.72,-212.86C1098.44,-209.81 1153.93,-206.27 1200.51,-203.3"/>
<polygon fill="black" stroke="black" points="1200.85,-206.78 1210.61,-202.65 1200.41,-199.8 1200.85,-206.78"/>
</g>
<!-- ci_job_deploy_docker_asan.sh&#45;&gt;container_build.sh -->
<g id="edge25" class="edge">
<title>ci_job_deploy_docker_asan.sh&#45;&gt;container_build.sh</title>
<path fill="none" stroke="black" d="M1037.14,-260.26C1061.22,-256.39 1086.93,-251.86 1110.61,-246.88 1154.04,-237.75 1202.4,-225.02 1239.5,-214.68"/>
<polygon fill="black" stroke="black" points="1240.48,-218.04 1249.17,-211.97 1238.6,-211.3 1240.48,-218.04"/>
</g>
<!-- ci_github_runner_cleanup.sh -->
<g id="node28" class="node">
<title>ci_github_runner_cleanup.sh</title>
<ellipse fill="none" stroke="black" cx="170.93" cy="-1227.88" rx="143.77" ry="18"/>
<text text-anchor="middle" x="170.93" y="-1224.18" font-family="Times,serif" font-size="14.00">ci_github_runner_cleanup.sh</text>
</g>
<!-- ci_github_runner_setup.sh -->
<g id="node29" class="node">
<title>ci_github_runner_setup.sh</title>
<ellipse fill="none" stroke="black" cx="170.93" cy="-1281.88" rx="133.48" ry="18"/>
<text text-anchor="middle" x="170.93" y="-1278.18" font-family="Times,serif" font-size="14.00">ci_github_runner_setup.sh</text>
</g>
<!-- ci_job_deploy_debian_test.sh -->
<g id="node30" class="node">
<title>ci_job_deploy_debian_test.sh</title>
<ellipse fill="none" stroke="black" cx="170.93" cy="-1335.88" rx="143.77" ry="18"/>
<text text-anchor="middle" x="170.93" y="-1332.18" font-family="Times,serif" font-size="14.00">ci_job_deploy_debian_test.sh</text>
</g>
<!-- check_version.sh -->
<g id="node45" class="node">
<title>check_version.sh</title>
<ellipse fill="none" stroke="black" cx="1911.45" cy="-1073.88" rx="89.08" ry="18"/>
<text text-anchor="middle" x="1911.45" y="-1070.18" font-family="Times,serif" font-size="14.00">check_version.sh</text>
</g>
<!-- doc_deploy.sh&#45;&gt;check_version.sh -->
<g id="edge49" class="edge">
<title>doc_deploy.sh&#45;&gt;check_version.sh</title>
<path fill="none" stroke="black" d="M1684.29,-1110.07C1727.15,-1103.21 1784.78,-1093.99 1831.14,-1086.57"/>
<polygon fill="black" stroke="black" points="1831.83,-1090.01 1841.15,-1084.97 1830.72,-1083.1 1831.83,-1090.01"/>
</g>
<!-- get_version.sh -->
<g id="node49" class="node">
<title>get_version.sh</title>
<ellipse fill="none" stroke="black" cx="2182.73" cy="-935.88" rx="77.99" ry="18"/>
<text text-anchor="middle" x="2182.73" y="-932.18" font-family="Times,serif" font-size="14.00">get_version.sh</text>
</g>
<!-- doc_deploy.sh&#45;&gt;get_version.sh -->
<g id="edge50" class="edge">
<title>doc_deploy.sh&#45;&gt;get_version.sh</title>
<path fill="none" stroke="black" d="M1681.18,-1130.85C1764.45,-1143.61 1920.31,-1156.46 2036.24,-1100.88 2098.3,-1071.13 2145.09,-1001.49 2167.34,-962.87"/>
<polygon fill="black" stroke="black" points="2170.62,-964.2 2172.47,-953.77 2164.52,-960.76 2170.62,-964.2"/>
</g>
<!-- maven_deploy.sh&#45;&gt;check_version.sh -->
<g id="edge53" class="edge">
<title>maven_deploy.sh&#45;&gt;check_version.sh</title>
<path fill="none" stroke="black" d="M1692.19,-1038.96C1733.96,-1045.64 1787.34,-1054.19 1830.85,-1061.15"/>
<polygon fill="black" stroke="black" points="1830.4,-1064.62 1840.83,-1062.74 1831.51,-1057.71 1830.4,-1064.62"/>
</g>
<!-- maven_deploy.sh&#45;&gt;get_version.sh -->
<g id="edge54" class="edge">
<title>maven_deploy.sh&#45;&gt;get_version.sh</title>
<path fill="none" stroke="black" d="M1705.64,-1034.07C1790.16,-1038.09 1924.53,-1038.06 2036.24,-1008.88 2076.7,-998.32 2119,-975.57 2147.49,-958.26"/>
<polygon fill="black" stroke="black" points="2149.57,-961.09 2156.23,-952.85 2145.89,-955.14 2149.57,-961.09"/>
</g>
<!-- maven_deploy_github.sh -->
<g id="node52" class="node">
<title>maven_deploy_github.sh</title>
<ellipse fill="none" stroke="black" cx="1911.45" cy="-981.88" rx="124.58" ry="18"/>
<text text-anchor="middle" x="1911.45" y="-978.18" font-family="Times,serif" font-size="14.00">maven_deploy_github.sh</text>
</g>
<!-- maven_deploy.sh&#45;&gt;maven_deploy_github.sh -->
<g id="edge55" class="edge">
<title>maven_deploy.sh&#45;&gt;maven_deploy_github.sh</title>
<path fill="none" stroke="black" d="M1692.19,-1016.81C1729.72,-1010.8 1776.61,-1003.3 1817.31,-996.79"/>
<polygon fill="black" stroke="black" points="1817.91,-1000.23 1827.24,-995.2 1816.81,-993.32 1817.91,-1000.23"/>
</g>
<!-- deploy_js.sh&#45;&gt;maven_deploy.sh -->
<g id="edge38" class="edge">
<title>deploy_js.sh&#45;&gt;maven_deploy.sh</title>
<path fill="none" stroke="black" d="M1344.13,-896.05C1376.76,-908.48 1422.49,-928.65 1457.28,-954.88 1476.64,-969.48 1472.58,-983.25 1493.28,-995.88 1507.01,-1004.26 1522.85,-1010.45 1538.59,-1015.03"/>
<polygon fill="black" stroke="black" points="1537.79,-1018.44 1548.36,-1017.67 1539.62,-1011.68 1537.79,-1018.44"/>
</g>
<!-- deploy_js.sh&#45;&gt;get_name.sh -->
<g id="edge39" class="edge">
<title>deploy_js.sh&#45;&gt;get_name.sh</title>
<path fill="none" stroke="black" d="M1332.17,-865.58C1368.62,-846.18 1433.44,-814.66 1493.28,-800.88 1609.57,-774.11 1748.73,-773.08 1833.31,-775.76"/>
<polygon fill="black" stroke="black" points="1833.23,-779.26 1843.35,-776.1 1833.47,-772.26 1833.23,-779.26"/>
</g>
<!-- deploy_js.sh&#45;&gt;check_version.sh -->
<g id="edge40" class="edge">
<title>deploy_js.sh&#45;&gt;check_version.sh</title>
<path fill="none" stroke="black" d="M1351.75,-894.23C1385.53,-905.08 1429.28,-924.05 1457.28,-954.88 1489.04,-989.85 1455.26,-1026.85 1493.28,-1054.88 1543.02,-1091.56 1711.55,-1087.81 1818.58,-1081.22"/>
<polygon fill="black" stroke="black" points="1818.98,-1084.7 1828.74,-1080.57 1818.53,-1077.71 1818.98,-1084.7"/>
</g>
<!-- deploy_js_bower.sh -->
<g id="node46" class="node">
<title>deploy_js_bower.sh</title>
<ellipse fill="none" stroke="black" cx="1621.97" cy="-643.88" rx="99.38" ry="18"/>
<text text-anchor="middle" x="1621.97" y="-640.18" font-family="Times,serif" font-size="14.00">deploy_js_bower.sh</text>
</g>
<!-- deploy_js.sh&#45;&gt;deploy_js_bower.sh -->
<g id="edge41" class="edge">
<title>deploy_js.sh&#45;&gt;deploy_js_bower.sh</title>
<path fill="none" stroke="black" d="M1328,-865.21C1361.15,-842.12 1419.76,-797.59 1457.28,-747.88 1480.04,-717.73 1463.69,-694.37 1493.28,-670.88 1501.84,-664.09 1511.71,-658.9 1522.09,-654.94"/>
<polygon fill="black" stroke="black" points="1523.4,-658.19 1531.74,-651.65 1521.14,-651.57 1523.4,-658.19"/>
</g>
<!-- deploy_js_http.sh -->
<g id="node47" class="node">
<title>deploy_js_http.sh</title>
<ellipse fill="none" stroke="black" cx="1621.97" cy="-935.88" rx="90.98" ry="18"/>
<text text-anchor="middle" x="1621.97" y="-932.18" font-family="Times,serif" font-size="14.00">deploy_js_http.sh</text>
</g>
<!-- deploy_js.sh&#45;&gt;deploy_js_http.sh -->
<g id="edge42" class="edge">
<title>deploy_js.sh&#45;&gt;deploy_js_http.sh</title>
<path fill="none" stroke="black" d="M1359.43,-891.48C1410.29,-900.11 1485.52,-912.89 1542.26,-922.52"/>
<polygon fill="black" stroke="black" points="1541.83,-926 1552.27,-924.22 1543,-919.09 1541.83,-926"/>
</g>
<!-- deploy_js_npm.sh -->
<g id="node48" class="node">
<title>deploy_js_npm.sh</title>
<ellipse fill="none" stroke="black" cx="1621.97" cy="-881.88" rx="92.08" ry="18"/>
<text text-anchor="middle" x="1621.97" y="-878.18" font-family="Times,serif" font-size="14.00">deploy_js_npm.sh</text>
</g>
<!-- deploy_js.sh&#45;&gt;deploy_js_npm.sh -->
<g id="edge43" class="edge">
<title>deploy_js.sh&#45;&gt;deploy_js_npm.sh</title>
<path fill="none" stroke="black" d="M1369.61,-881.88C1413.06,-881.88 1470.59,-881.88 1519.65,-881.88"/>
<polygon fill="black" stroke="black" points="1519.66,-885.38 1529.66,-881.88 1519.66,-878.38 1519.66,-885.38"/>
</g>
<!-- deploy_js.sh&#45;&gt;get_version.sh -->
<g id="edge44" class="edge">
<title>deploy_js.sh&#45;&gt;get_version.sh</title>
<path fill="none" stroke="black" d="M1331.11,-898.16C1367.26,-918.03 1432.58,-950.51 1493.28,-962.88 1605.36,-985.74 1636.95,-975.37 1750.66,-962.88 1766.95,-961.1 1770.41,-957.06 1786.66,-954.88 1891.9,-940.77 2014.15,-936.77 2094.46,-935.82"/>
<polygon fill="black" stroke="black" points="2094.57,-939.32 2104.53,-935.72 2094.49,-932.32 2094.57,-939.32"/>
</g>
<!-- mavenize_js_project.sh -->
<g id="node50" class="node">
<title>mavenize_js_project.sh</title>
<ellipse fill="none" stroke="black" cx="1621.97" cy="-827.88" rx="117.78" ry="18"/>
<text text-anchor="middle" x="1621.97" y="-824.18" font-family="Times,serif" font-size="14.00">mavenize_js_project.sh</text>
</g>
<!-- deploy_js.sh&#45;&gt;mavenize_js_project.sh -->
<g id="edge45" class="edge">
<title>deploy_js.sh&#45;&gt;mavenize_js_project.sh</title>
<path fill="none" stroke="black" d="M1359.43,-872.29C1407.41,-864.15 1477.08,-852.32 1532.46,-842.91"/>
<polygon fill="black" stroke="black" points="1533.35,-846.31 1542.62,-841.19 1532.18,-839.41 1533.35,-846.31"/>
</g>
<!-- generate_js_module.sh&#45;&gt;get_name.sh -->
<g id="edge51" class="edge">
<title>generate_js_module.sh&#45;&gt;get_name.sh</title>
<path fill="none" stroke="black" d="M1687.95,-712.82C1708.16,-717.83 1730.44,-723.72 1750.66,-729.88 1766.93,-734.85 1770.5,-737.56 1786.66,-742.88 1808.54,-750.1 1832.8,-757.48 1853.99,-763.74"/>
<polygon fill="black" stroke="black" points="1853.23,-767.16 1863.81,-766.62 1855.2,-760.44 1853.23,-767.16"/>
</g>
<!-- generate_js_module.sh&#45;&gt;get_version.sh -->
<g id="edge52" class="edge">
<title>generate_js_module.sh&#45;&gt;get_version.sh</title>
<path fill="none" stroke="black" d="M1733.46,-703.3C1837.95,-710.07 1986.02,-724.42 2036.24,-752.88 2100.93,-789.56 2147.55,-867.48 2168.82,-908.82"/>
<polygon fill="black" stroke="black" points="2165.71,-910.42 2173.33,-917.78 2171.96,-907.27 2165.71,-910.42"/>
</g>
<!-- git_checkout_name.sh&#45;&gt;git_default_branch.sh -->
<g id="edge60" class="edge">
<title>git_checkout_name.sh&#45;&gt;git_default_branch.sh</title>
<path fill="none" stroke="black" d="M2009.28,-544.87C2030.99,-546.89 2054.12,-549.04 2076.16,-551.08"/>
<polygon fill="black" stroke="black" points="2075.92,-554.58 2086.2,-552.02 2076.57,-547.61 2075.92,-554.58"/>
</g>
<!-- docker/rust&#45;buildpackage -->
<g id="node41" class="node">
<title>docker/rust&#45;buildpackage</title>
<ellipse fill="none" stroke="black" cx="170.93" cy="-1389.88" rx="128.08" ry="18"/>
<text text-anchor="middle" x="170.93" y="-1386.18" font-family="Times,serif" font-size="14.00">docker/rust&#45;buildpackage</text>
</g>
<!-- rust&#45;buildpackage.sh -->
<g id="node42" class="node">
<title>rust&#45;buildpackage.sh</title>
<ellipse fill="none" stroke="black" cx="555.3" cy="-1389.88" rx="107.78" ry="18"/>
<text text-anchor="middle" x="555.3" y="-1386.18" font-family="Times,serif" font-size="14.00">rust&#45;buildpackage.sh</text>
</g>
<!-- docker/rust&#45;buildpackage&#45;&gt;rust&#45;buildpackage.sh -->
<g id="edge35" class="edge">
<title>docker/rust&#45;buildpackage&#45;&gt;rust&#45;buildpackage.sh</title>
<path fill="none" stroke="black" d="M298.99,-1389.88C343.55,-1389.88 393.36,-1389.88 437.08,-1389.88"/>
<polygon fill="black" stroke="black" points="437.18,-1393.38 447.18,-1389.88 437.18,-1386.38 437.18,-1393.38"/>
</g>
<!-- server/bin/make&#45;dev&#45;container.sh -->
<g id="node43" class="node">
<title>server/bin/make&#45;dev&#45;container.sh</title>
<ellipse fill="none" stroke="black" cx="555.3" cy="-127.88" rx="165.17" ry="18"/>
<text text-anchor="middle" x="555.3" y="-124.18" font-family="Times,serif" font-size="14.00">server/bin/make&#45;dev&#45;container.sh</text>
</g>
<!-- server/bin/make&#45;dev&#45;container.sh&#45;&gt;kurento&#45;buildpackage.sh -->
<g id="edge36" class="edge">
<title>server/bin/make&#45;dev&#45;container.sh&#45;&gt;kurento&#45;buildpackage.sh</title>
<path fill="none" stroke="black" d="M694.35,-118.14C734.41,-115.31 777.85,-112.24 816.84,-109.49"/>
<polygon fill="black" stroke="black" points="817.45,-112.95 827.18,-108.76 816.96,-105.97 817.45,-112.95"/>
</g>
<!-- check_version.sh&#45;&gt;get_version.sh -->
<g id="edge58" class="edge">
<title>check_version.sh&#45;&gt;get_version.sh</title>
<path fill="none" stroke="black" d="M1977.99,-1061.81C1997.28,-1056.98 2018.07,-1050.46 2036.24,-1041.88 2081.5,-1020.5 2127.08,-984.38 2154.86,-960.33"/>
<polygon fill="black" stroke="black" points="2157.34,-962.81 2162.55,-953.59 2152.73,-957.55 2157.34,-962.81"/>
</g>
<!-- deploy_js_bower.sh&#45;&gt;git_default_branch.sh -->
<g id="edge46" class="edge">
<title>deploy_js_bower.sh&#45;&gt;git_default_branch.sh</title>
<path fill="none" stroke="black" d="M1691.24,-630.94C1710.55,-626.88 1731.52,-622.08 1750.66,-616.88 1766.93,-612.47 1770.19,-608.5 1786.66,-604.88 1880.06,-584.36 1988.1,-573.16 2067.57,-567.21"/>
<polygon fill="black" stroke="black" points="2067.89,-570.69 2077.6,-566.47 2067.38,-563.71 2067.89,-570.69"/>
</g>
<!-- deploy_js_bower.sh&#45;&gt;get_version.sh -->
<g id="edge47" class="edge">
<title>deploy_js_bower.sh&#45;&gt;get_version.sh</title>
<path fill="none" stroke="black" d="M1709.55,-652.55C1822.62,-664.46 2009.39,-686.4 2036.24,-703.88 2112.45,-753.54 2156.01,-858.55 2173.15,-908.45"/>
<polygon fill="black" stroke="black" points="2169.83,-909.56 2176.32,-917.94 2176.47,-907.34 2169.83,-909.56"/>
</g>
<!-- clone_repo.sh -->
<g id="node51" class="node">
<title>clone_repo.sh</title>
<ellipse fill="none" stroke="black" cx="1911.45" cy="-631.88" rx="74.19" ry="18"/>
<text text-anchor="middle" x="1911.45" y="-628.18" font-family="Times,serif" font-size="14.00">clone_repo.sh</text>
</g>
<!-- deploy_js_bower.sh&#45;&gt;clone_repo.sh -->
<g id="edge48" class="edge">
<title>deploy_js_bower.sh&#45;&gt;clone_repo.sh</title>
<path fill="none" stroke="black" d="M1719.09,-639.87C1754.3,-638.4 1793.8,-636.75 1827.73,-635.34"/>
<polygon fill="black" stroke="black" points="1828.23,-638.82 1838.07,-634.91 1827.94,-631.83 1828.23,-638.82"/>
</g>
<!-- mavenize_js_project.sh&#45;&gt;get_name.sh -->
<g id="edge56" class="edge">
<title>mavenize_js_project.sh&#45;&gt;get_name.sh</title>
<path fill="none" stroke="black" d="M1702.28,-814.64C1746.29,-807.29 1800.45,-798.25 1842.49,-791.23"/>
<polygon fill="black" stroke="black" points="1843.07,-794.68 1852.36,-789.58 1841.92,-787.78 1843.07,-794.68"/>
</g>
<!-- mavenize_js_project.sh&#45;&gt;get_version.sh -->
<g id="edge57" class="edge">
<title>mavenize_js_project.sh&#45;&gt;get_version.sh</title>
<path fill="none" stroke="black" d="M1695.73,-841.95C1803.96,-862.87 2005.97,-901.91 2112.26,-922.46"/>
<polygon fill="black" stroke="black" points="2111.76,-925.92 2122.24,-924.39 2113.09,-919.05 2111.76,-925.92"/>
</g>
<!-- clone_repo.sh&#45;&gt;git_default_branch.sh -->
<g id="edge59" class="edge">
<title>clone_repo.sh&#45;&gt;git_default_branch.sh</title>
<path fill="none" stroke="black" d="M1962.46,-618.7C2005.06,-607.46 2066.67,-591.22 2113.74,-578.81"/>
<polygon fill="black" stroke="black" points="2114.77,-582.16 2123.55,-576.22 2112.99,-575.39 2114.77,-582.16"/>
</g>
<!-- update_test_files.sh -->
<g id="node53" class="node">
<title>update_test_files.sh</title>
<ellipse fill="none" stroke="black" cx="170.93" cy="-1443.88" rx="102.88" ry="18"/>
<text text-anchor="middle" x="170.93" y="-1440.18" font-family="Times,serif" font-size="14.00">update_test_files.sh</text>
</g>
</g>
</svg>
