<?xml version="1.0" encoding="UTF-8" standalone="no"?>
<!DOCTYPE svg PUBLIC "-//W3C//DTD SVG 1.1//EN"
 "http://www.w3.org/Graphics/SVG/1.1/DTD/svg11.dtd">
<!-- Generated by graphviz version 2.43.0 (0)
 -->
<!-- Title: scripts Pages: 1 -->
<svg width="1825pt" height="999pt"
 viewBox="0.00 0.00 1825.46 999.00" xmlns="http://www.w3.org/2000/svg" xmlns:xlink="http://www.w3.org/1999/xlink">
<g id="graph0" class="graph" transform="scale(1 1) rotate(0) translate(4 995)">
<title>scripts</title>
<polygon fill="white" stroke="transparent" points="-4,4 -4,-995 1821.46,-995 1821.46,4 -4,4"/>
<!-- clients&#45;java.caller.yaml -->
<g id="node1" class="node">
<title>clients&#45;java.caller.yaml</title>
<ellipse fill="none" stroke="black" cx="134.54" cy="-582" rx="92.88" ry="18"/>
<text text-anchor="middle" x="134.54" y="-578.3" font-family="Times,serif" font-size="14.00">clients&#45;java.caller.yaml</text>
</g>
<!-- clients&#45;java.called.yaml -->
<g id="node7" class="node">
<title>clients&#45;java.called.yaml</title>
<ellipse fill="none" stroke="black" cx="719.34" cy="-582" rx="94.78" ry="18"/>
<text text-anchor="middle" x="719.34" y="-578.3" font-family="Times,serif" font-size="14.00">clients&#45;java.called.yaml</text>
</g>
<!-- clients&#45;java.caller.yaml&#45;&gt;clients&#45;java.called.yaml -->
<g id="edge1" class="edge">
<title>clients&#45;java.caller.yaml&#45;&gt;clients&#45;java.called.yaml</title>
<path fill="none" stroke="black" d="M227.56,-582C332.7,-582 504.36,-582 614.28,-582"/>
<polygon fill="black" stroke="black" points="614.39,-585.5 624.39,-582 614.39,-578.5 614.39,-585.5"/>
</g>
<!-- clients&#45;javascript.caller.yaml -->
<g id="node2" class="node">
<title>clients&#45;javascript.caller.yaml</title>
<ellipse fill="none" stroke="black" cx="134.54" cy="-679" rx="112.38" ry="18"/>
<text text-anchor="middle" x="134.54" y="-675.3" font-family="Times,serif" font-size="14.00">clients&#45;javascript.caller.yaml</text>
</g>
<!-- clients&#45;javascript.called.yaml -->
<g id="node8" class="node">
<title>clients&#45;javascript.called.yaml</title>
<ellipse fill="none" stroke="black" cx="434.41" cy="-679" rx="114.28" ry="18"/>
<text text-anchor="middle" x="434.41" y="-675.3" font-family="Times,serif" font-size="14.00">clients&#45;javascript.called.yaml</text>
</g>
<!-- clients&#45;javascript.caller.yaml&#45;&gt;clients&#45;javascript.called.yaml -->
<g id="edge2" class="edge">
<title>clients&#45;javascript.caller.yaml&#45;&gt;clients&#45;javascript.called.yaml</title>
<path fill="none" stroke="black" d="M247.3,-679C267.59,-679 288.86,-679 309.47,-679"/>
<polygon fill="black" stroke="black" points="309.53,-682.5 319.53,-679 309.53,-675.5 309.53,-682.5"/>
</g>
<!-- doc&#45;kurento.yaml -->
<g id="node3" class="node">
<title>doc&#45;kurento.yaml</title>
<ellipse fill="none" stroke="black" cx="134.54" cy="-448" rx="73.39" ry="18"/>
<text text-anchor="middle" x="134.54" y="-444.3" font-family="Times,serif" font-size="14.00">doc&#45;kurento.yaml</text>
</g>
<!-- ci_job_deploy_doc.sh -->
<g id="node9" class="node">
<title>ci_job_deploy_doc.sh</title>
<ellipse fill="none" stroke="black" cx="434.41" cy="-448" rx="88.28" ry="18"/>
<text text-anchor="middle" x="434.41" y="-444.3" font-family="Times,serif" font-size="14.00">ci_job_deploy_doc.sh</text>
</g>
<!-- doc&#45;kurento.yaml&#45;&gt;ci_job_deploy_doc.sh -->
<g id="edge3" class="edge">
<title>doc&#45;kurento.yaml&#45;&gt;ci_job_deploy_doc.sh</title>
<path fill="none" stroke="black" d="M208.03,-448C246.45,-448 294.18,-448 335.82,-448"/>
<polygon fill="black" stroke="black" points="335.98,-451.5 345.98,-448 335.98,-444.5 335.98,-451.5"/>
</g>
<!-- docker&#45;kurento&#45;buildpackage.yaml -->
<g id="node4" class="node">
<title>docker&#45;kurento&#45;buildpackage.yaml</title>
<ellipse fill="none" stroke="black" cx="134.54" cy="-83" rx="134.58" ry="18"/>
<text text-anchor="middle" x="134.54" y="-79.3" font-family="Times,serif" font-size="14.00">docker&#45;kurento&#45;buildpackage.yaml</text>
</g>
<!-- container_build.sh -->
<g id="node10" class="node">
<title>container_build.sh</title>
<ellipse fill="none" stroke="black" cx="1001.02" cy="-321" rx="76.09" ry="18"/>
<text text-anchor="middle" x="1001.02" y="-317.3" font-family="Times,serif" font-size="14.00">container_build.sh</text>
</g>
<!-- docker&#45;kurento&#45;buildpackage.yaml&#45;&gt;container_build.sh -->
<g id="edge4" class="edge">
<title>docker&#45;kurento&#45;buildpackage.yaml&#45;&gt;container_build.sh</title>
<path fill="none" stroke="black" d="M239.63,-94.33C429.23,-115.27 813.78,-159.36 838.93,-175 863.43,-190.23 855.01,-208.14 874.93,-229 901.28,-256.59 936.72,-281.79 963.15,-298.81"/>
<polygon fill="black" stroke="black" points="961.42,-301.86 971.74,-304.26 965.17,-295.95 961.42,-301.86"/>
</g>
<!-- docker/kurento&#45;buildpackage -->
<g id="node11" class="node">
<title>docker/kurento&#45;buildpackage</title>
<ellipse fill="none" stroke="black" cx="434.41" cy="-18" rx="113.98" ry="18"/>
<text text-anchor="middle" x="434.41" y="-14.3" font-family="Times,serif" font-size="14.00">docker/kurento&#45;buildpackage</text>
</g>
<!-- docker&#45;kurento&#45;buildpackage.yaml&#45;&gt;docker/kurento&#45;buildpackage -->
<g id="edge5" class="edge">
<title>docker&#45;kurento&#45;buildpackage.yaml&#45;&gt;docker/kurento&#45;buildpackage</title>
<path fill="none" stroke="black" d="M203.55,-67.54C234.5,-60.56 271.62,-52.27 305.08,-45 321.11,-41.52 338.28,-37.86 354.68,-34.39"/>
<polygon fill="black" stroke="black" points="355.71,-37.75 364.78,-32.27 354.27,-30.9 355.71,-37.75"/>
</g>
<!-- docker&#45;kurento&#45;ci&#45;buildtools.yaml -->
<g id="node5" class="node">
<title>docker&#45;kurento&#45;ci&#45;buildtools.yaml</title>
<ellipse fill="none" stroke="black" cx="134.54" cy="-302" rx="131.88" ry="18"/>
<text text-anchor="middle" x="134.54" y="-298.3" font-family="Times,serif" font-size="14.00">docker&#45;kurento&#45;ci&#45;buildtools.yaml</text>
</g>
<!-- docker&#45;kurento&#45;ci&#45;buildtools.yaml&#45;&gt;container_build.sh -->
<g id="edge6" class="edge">
<title>docker&#45;kurento&#45;ci&#45;buildtools.yaml&#45;&gt;container_build.sh</title>
<path fill="none" stroke="black" d="M264.96,-304.84C444.19,-308.78 763,-315.79 914.94,-319.13"/>
<polygon fill="black" stroke="black" points="915.07,-322.63 925.14,-319.35 915.22,-315.64 915.07,-322.63"/>
</g>
<!-- server.caller.yaml -->
<g id="node6" class="node">
<title>server.caller.yaml</title>
<ellipse fill="none" stroke="black" cx="134.54" cy="-225" rx="73.39" ry="18"/>
<text text-anchor="middle" x="134.54" y="-221.3" font-family="Times,serif" font-size="14.00">server.caller.yaml</text>
</g>
<!-- server&#45;buildpackage.called.yaml -->
<g id="node12" class="node">
<title>server&#45;buildpackage.called.yaml</title>
<ellipse fill="none" stroke="black" cx="1001.02" cy="-133" rx="126.18" ry="18"/>
<text text-anchor="middle" x="1001.02" y="-129.3" font-family="Times,serif" font-size="14.00">server&#45;buildpackage.called.yaml</text>
</g>
<!-- server.caller.yaml&#45;&gt;server&#45;buildpackage.called.yaml -->
<g id="edge7" class="edge">
<title>server.caller.yaml&#45;&gt;server&#45;buildpackage.called.yaml</title>
<path fill="none" stroke="black" d="M176.37,-210.12C210.33,-198.43 260.19,-182.87 305.08,-175 497.45,-141.27 723.83,-133.39 864.66,-132.16"/>
<polygon fill="black" stroke="black" points="865.09,-135.66 875.07,-132.08 865.04,-128.66 865.09,-135.66"/>
</g>
<!-- server&#45;deploy&#45;aws.called.yaml -->
<g id="node13" class="node">
<title>server&#45;deploy&#45;aws.called.yaml</title>
<ellipse fill="none" stroke="black" cx="434.41" cy="-256" rx="119.68" ry="18"/>
<text text-anchor="middle" x="434.41" y="-252.3" font-family="Times,serif" font-size="14.00">server&#45;deploy&#45;aws.called.yaml</text>
</g>
<!-- server.caller.yaml&#45;&gt;server&#45;deploy&#45;aws.called.yaml -->
<g id="edge8" class="edge">
<title>server.caller.yaml&#45;&gt;server&#45;deploy&#45;aws.called.yaml</title>
<path fill="none" stroke="black" d="M202.39,-231.96C238.68,-235.73 284.42,-240.49 325.61,-244.78"/>
<polygon fill="black" stroke="black" points="325.39,-248.28 335.7,-245.83 326.11,-241.31 325.39,-248.28"/>
</g>
<!-- server&#45;deploy&#45;debian.called.yaml -->
<g id="node14" class="node">
<title>server&#45;deploy&#45;debian.called.yaml</title>
<ellipse fill="none" stroke="black" cx="434.41" cy="-202" rx="129.18" ry="18"/>
<text text-anchor="middle" x="434.41" y="-198.3" font-family="Times,serif" font-size="14.00">server&#45;deploy&#45;debian.called.yaml</text>
</g>
<!-- server.caller.yaml&#45;&gt;server&#45;deploy&#45;debian.called.yaml -->
<g id="edge9" class="edge">
<title>server.caller.yaml&#45;&gt;server&#45;deploy&#45;debian.called.yaml</title>
<path fill="none" stroke="black" d="M205,-219.64C236.51,-217.2 274.72,-214.25 310.81,-211.47"/>
<polygon fill="black" stroke="black" points="311.23,-214.95 320.93,-210.69 310.69,-207.97 311.23,-214.95"/>
</g>
<!-- server&#45;deploy&#45;docker.called.yaml -->
<g id="node15" class="node">
<title>server&#45;deploy&#45;docker.called.yaml</title>
<ellipse fill="none" stroke="black" cx="434.41" cy="-348" rx="129.18" ry="18"/>
<text text-anchor="middle" x="434.41" y="-344.3" font-family="Times,serif" font-size="14.00">server&#45;deploy&#45;docker.called.yaml</text>
</g>
<!-- server.caller.yaml&#45;&gt;server&#45;deploy&#45;docker.called.yaml -->
<g id="edge10" class="edge">
<title>server.caller.yaml&#45;&gt;server&#45;deploy&#45;docker.called.yaml</title>
<path fill="none" stroke="black" d="M176.99,-239.8C203.49,-249.43 238.49,-262.49 269.08,-275 309.18,-291.4 354.11,-311.48 386.84,-326.42"/>
<polygon fill="black" stroke="black" points="385.61,-329.71 396.16,-330.69 388.52,-323.34 385.61,-329.71"/>
</g>
<!-- ci_job_deploy_java.sh -->
<g id="node16" class="node">
<title>ci_job_deploy_java.sh</title>
<ellipse fill="none" stroke="black" cx="1001.02" cy="-555" rx="90.18" ry="18"/>
<text text-anchor="middle" x="1001.02" y="-551.3" font-family="Times,serif" font-size="14.00">ci_job_deploy_java.sh</text>
</g>
<!-- clients&#45;java.called.yaml&#45;&gt;ci_job_deploy_java.sh -->
<g id="edge11" class="edge">
<title>clients&#45;java.called.yaml&#45;&gt;ci_job_deploy_java.sh</title>
<path fill="none" stroke="black" d="M804.26,-573.9C837.36,-570.7 875.46,-567.02 909.21,-563.77"/>
<polygon fill="black" stroke="black" points="909.91,-567.22 919.53,-562.77 909.24,-560.25 909.91,-567.22"/>
</g>
<!-- ci_job_generate_module.sh -->
<g id="node17" class="node">
<title>ci_job_generate_module.sh</title>
<ellipse fill="none" stroke="black" cx="1001.02" cy="-842" rx="108.58" ry="18"/>
<text text-anchor="middle" x="1001.02" y="-838.3" font-family="Times,serif" font-size="14.00">ci_job_generate_module.sh</text>
</g>
<!-- clients&#45;java.called.yaml&#45;&gt;ci_job_generate_module.sh -->
<g id="edge12" class="edge">
<title>clients&#45;java.called.yaml&#45;&gt;ci_job_generate_module.sh</title>
<path fill="none" stroke="black" d="M774.93,-596.65C796.26,-604.09 820.07,-614.65 838.93,-629 857.11,-642.83 942.73,-761.54 981.21,-815.5"/>
<polygon fill="black" stroke="black" points="978.53,-817.77 987.18,-823.88 984.23,-813.71 978.53,-817.77"/>
</g>
<!-- clients&#45;javascript.called.yaml&#45;&gt;ci_job_generate_module.sh -->
<g id="edge13" class="edge">
<title>clients&#45;javascript.called.yaml&#45;&gt;ci_job_generate_module.sh</title>
<path fill="none" stroke="black" d="M490.06,-694.78C595.1,-725.1 824.64,-791.37 936.38,-823.63"/>
<polygon fill="black" stroke="black" points="935.59,-827.04 946.17,-826.45 937.53,-820.32 935.59,-827.04"/>
</g>
<!-- ci_job_deploy_js.sh -->
<g id="node18" class="node">
<title>ci_job_deploy_js.sh</title>
<ellipse fill="none" stroke="black" cx="719.34" cy="-656" rx="81.49" ry="18"/>
<text text-anchor="middle" x="719.34" y="-652.3" font-family="Times,serif" font-size="14.00">ci_job_deploy_js.sh</text>
</g>
<!-- clients&#45;javascript.called.yaml&#45;&gt;ci_job_deploy_js.sh -->
<g id="edge14" class="edge">
<title>clients&#45;javascript.called.yaml&#45;&gt;ci_job_deploy_js.sh</title>
<path fill="none" stroke="black" d="M536.36,-670.79C567.87,-668.23 602.31,-665.43 632.67,-662.96"/>
<polygon fill="black" stroke="black" points="633.11,-666.44 642.8,-662.14 632.54,-659.46 633.11,-666.44"/>
</g>
<!-- doc_deploy.sh -->
<g id="node28" class="node">
<title>doc_deploy.sh</title>
<ellipse fill="none" stroke="black" cx="1267.1" cy="-443" rx="61.99" ry="18"/>
<text text-anchor="middle" x="1267.1" y="-439.3" font-family="Times,serif" font-size="14.00">doc_deploy.sh</text>
</g>
<!-- ci_job_deploy_doc.sh&#45;&gt;doc_deploy.sh -->
<g id="edge21" class="edge">
<title>ci_job_deploy_doc.sh&#45;&gt;doc_deploy.sh</title>
<path fill="none" stroke="black" d="M523.13,-447.47C688.55,-446.48 1043.55,-444.34 1195.13,-443.43"/>
<polygon fill="black" stroke="black" points="1195.28,-446.93 1205.26,-443.37 1195.23,-439.93 1195.28,-446.93"/>
</g>
<!-- parse_yaml.sh -->
<g id="node39" class="node">
<title>parse_yaml.sh</title>
<ellipse fill="none" stroke="black" cx="1267.1" cy="-321" rx="61.99" ry="18"/>
<text text-anchor="middle" x="1267.1" y="-317.3" font-family="Times,serif" font-size="14.00">parse_yaml.sh</text>
</g>
<!-- container_build.sh&#45;&gt;parse_yaml.sh -->
<g id="edge34" class="edge">
<title>container_build.sh&#45;&gt;parse_yaml.sh</title>
<path fill="none" stroke="black" d="M1077.34,-321C1114.41,-321 1158.84,-321 1195.28,-321"/>
<polygon fill="black" stroke="black" points="1195.33,-324.5 1205.33,-321 1195.33,-317.5 1195.33,-324.5"/>
</g>
<!-- kurento&#45;buildpackage.sh -->
<g id="node37" class="node">
<title>kurento&#45;buildpackage.sh</title>
<ellipse fill="none" stroke="black" cx="719.34" cy="-45" rx="97.48" ry="18"/>
<text text-anchor="middle" x="719.34" y="-41.3" font-family="Times,serif" font-size="14.00">kurento&#45;buildpackage.sh</text>
</g>
<!-- docker/kurento&#45;buildpackage&#45;&gt;kurento&#45;buildpackage.sh -->
<g id="edge32" class="edge">
<title>docker/kurento&#45;buildpackage&#45;&gt;kurento&#45;buildpackage.sh</title>
<path fill="none" stroke="black" d="M532.39,-27.25C561.43,-30.03 593.27,-33.06 622.26,-35.83"/>
<polygon fill="black" stroke="black" points="622.1,-39.33 632.39,-36.8 622.76,-32.36 622.1,-39.33"/>
</g>
<!-- ci_job_package_debian.sh -->
<g id="node19" class="node">
<title>ci_job_package_debian.sh</title>
<ellipse fill="none" stroke="black" cx="1267.1" cy="-229" rx="103.98" ry="18"/>
<text text-anchor="middle" x="1267.1" y="-225.3" font-family="Times,serif" font-size="14.00">ci_job_package_debian.sh</text>
</g>
<!-- server&#45;buildpackage.called.yaml&#45;&gt;ci_job_package_debian.sh -->
<g id="edge15" class="edge">
<title>server&#45;buildpackage.called.yaml&#45;&gt;ci_job_package_debian.sh</title>
<path fill="none" stroke="black" d="M1052.72,-149.43C1075.54,-156.97 1102.77,-166.19 1127.11,-175 1156.59,-185.67 1189.29,-198.33 1215.56,-208.71"/>
<polygon fill="black" stroke="black" points="1214.35,-212 1224.93,-212.43 1216.93,-205.49 1214.35,-212"/>
</g>
<!-- ci_job_deploy_aws_cf.sh -->
<g id="node20" class="node">
<title>ci_job_deploy_aws_cf.sh</title>
<ellipse fill="none" stroke="black" cx="719.34" cy="-256" rx="100.98" ry="18"/>
<text text-anchor="middle" x="719.34" y="-252.3" font-family="Times,serif" font-size="14.00">ci_job_deploy_aws_cf.sh</text>
</g>
<!-- server&#45;deploy&#45;aws.called.yaml&#45;&gt;ci_job_deploy_aws_cf.sh -->
<g id="edge16" class="edge">
<title>server&#45;deploy&#45;aws.called.yaml&#45;&gt;ci_job_deploy_aws_cf.sh</title>
<path fill="none" stroke="black" d="M554.17,-256C572,-256 590.31,-256 607.95,-256"/>
<polygon fill="black" stroke="black" points="608.25,-259.5 618.25,-256 608.25,-252.5 608.25,-259.5"/>
</g>
<!-- ci_job_deploy_debian.sh -->
<g id="node21" class="node">
<title>ci_job_deploy_debian.sh</title>
<ellipse fill="none" stroke="black" cx="719.34" cy="-202" rx="98.58" ry="18"/>
<text text-anchor="middle" x="719.34" y="-198.3" font-family="Times,serif" font-size="14.00">ci_job_deploy_debian.sh</text>
</g>
<!-- server&#45;deploy&#45;debian.called.yaml&#45;&gt;ci_job_deploy_debian.sh -->
<g id="edge17" class="edge">
<title>server&#45;deploy&#45;debian.called.yaml&#45;&gt;ci_job_deploy_debian.sh</title>
<path fill="none" stroke="black" d="M564.05,-202C579.47,-202 595.09,-202 610.18,-202"/>
<polygon fill="black" stroke="black" points="610.53,-205.5 620.53,-202 610.53,-198.5 610.53,-205.5"/>
</g>
<!-- ci_job_deploy_docker.sh -->
<g id="node22" class="node">
<title>ci_job_deploy_docker.sh</title>
<ellipse fill="none" stroke="black" cx="719.34" cy="-348" rx="98.58" ry="18"/>
<text text-anchor="middle" x="719.34" y="-344.3" font-family="Times,serif" font-size="14.00">ci_job_deploy_docker.sh</text>
</g>
<!-- server&#45;deploy&#45;docker.called.yaml&#45;&gt;ci_job_deploy_docker.sh -->
<g id="edge18" class="edge">
<title>server&#45;deploy&#45;docker.called.yaml&#45;&gt;ci_job_deploy_docker.sh</title>
<path fill="none" stroke="black" d="M564.05,-348C579.47,-348 595.09,-348 610.18,-348"/>
<polygon fill="black" stroke="black" points="610.53,-351.5 620.53,-348 610.53,-344.5 610.53,-351.5"/>
</g>
<!-- ci_job_deploy_docker_asan.sh -->
<g id="node23" class="node">
<title>ci_job_deploy_docker_asan.sh</title>
<ellipse fill="none" stroke="black" cx="719.34" cy="-402" rx="119.68" ry="18"/>
<text text-anchor="middle" x="719.34" y="-398.3" font-family="Times,serif" font-size="14.00">ci_job_deploy_docker_asan.sh</text>
</g>
<!-- server&#45;deploy&#45;docker.called.yaml&#45;&gt;ci_job_deploy_docker_asan.sh -->
<g id="edge19" class="edge">
<title>server&#45;deploy&#45;docker.called.yaml&#45;&gt;ci_job_deploy_docker_asan.sh</title>
<path fill="none" stroke="black" d="M511.61,-362.54C549.47,-369.77 595.32,-378.52 634.21,-385.94"/>
<polygon fill="black" stroke="black" points="633.98,-389.46 644.46,-387.9 635.29,-382.59 633.98,-389.46"/>
</g>
<!-- maven_deploy.sh -->
<g id="node29" class="node">
<title>maven_deploy.sh</title>
<ellipse fill="none" stroke="black" cx="1267.1" cy="-535" rx="72.59" ry="18"/>
<text text-anchor="middle" x="1267.1" y="-531.3" font-family="Times,serif" font-size="14.00">maven_deploy.sh</text>
</g>
<!-- ci_job_deploy_java.sh&#45;&gt;maven_deploy.sh -->
<g id="edge24" class="edge">
<title>ci_job_deploy_java.sh&#45;&gt;maven_deploy.sh</title>
<path fill="none" stroke="black" d="M1085.94,-548.64C1118.24,-546.2 1154.99,-543.42 1186.83,-541"/>
<polygon fill="black" stroke="black" points="1187.28,-544.48 1196.99,-540.23 1186.75,-537.5 1187.28,-544.48"/>
</g>
<!-- generate_java_module.sh -->
<g id="node31" class="node">
<title>generate_java_module.sh</title>
<ellipse fill="none" stroke="black" cx="1267.1" cy="-973" rx="100.98" ry="18"/>
<text text-anchor="middle" x="1267.1" y="-969.3" font-family="Times,serif" font-size="14.00">generate_java_module.sh</text>
</g>
<!-- ci_job_generate_module.sh&#45;&gt;generate_java_module.sh -->
<g id="edge26" class="edge">
<title>ci_job_generate_module.sh&#45;&gt;generate_java_module.sh</title>
<path fill="none" stroke="black" d="M1024.18,-859.59C1054.09,-882.54 1109.8,-922.52 1163.11,-946 1172.12,-949.97 1181.83,-953.45 1191.58,-956.48"/>
<polygon fill="black" stroke="black" points="1190.72,-959.88 1201.3,-959.37 1192.71,-953.17 1190.72,-959.88"/>
</g>
<!-- generate_js_module.sh -->
<g id="node32" class="node">
<title>generate_js_module.sh</title>
<ellipse fill="none" stroke="black" cx="1267.1" cy="-865" rx="92.08" ry="18"/>
<text text-anchor="middle" x="1267.1" y="-861.3" font-family="Times,serif" font-size="14.00">generate_js_module.sh</text>
</g>
<!-- ci_job_generate_module.sh&#45;&gt;generate_js_module.sh -->
<g id="edge27" class="edge">
<title>ci_job_generate_module.sh&#45;&gt;generate_js_module.sh</title>
<path fill="none" stroke="black" d="M1097.36,-850.3C1121.66,-852.42 1147.77,-854.69 1172.01,-856.81"/>
<polygon fill="black" stroke="black" points="1172.01,-860.32 1182.27,-857.7 1172.61,-853.34 1172.01,-860.32"/>
</g>
<!-- get_name.sh -->
<g id="node33" class="node">
<title>get_name.sh</title>
<ellipse fill="none" stroke="black" cx="1507.18" cy="-783" rx="55.79" ry="18"/>
<text text-anchor="middle" x="1507.18" y="-779.3" font-family="Times,serif" font-size="14.00">get_name.sh</text>
</g>
<!-- ci_job_generate_module.sh&#45;&gt;get_name.sh -->
<g id="edge28" class="edge">
<title>ci_job_generate_module.sh&#45;&gt;get_name.sh</title>
<path fill="none" stroke="black" d="M1090.13,-831.69C1191.54,-819.82 1355.49,-800.63 1444.28,-790.24"/>
<polygon fill="black" stroke="black" points="1444.94,-793.69 1454.46,-789.05 1444.12,-786.74 1444.94,-793.69"/>
</g>
<!-- install_server.sh -->
<g id="node34" class="node">
<title>install_server.sh</title>
<ellipse fill="none" stroke="black" cx="1267.1" cy="-919" rx="67.69" ry="18"/>
<text text-anchor="middle" x="1267.1" y="-915.3" font-family="Times,serif" font-size="14.00">install_server.sh</text>
</g>
<!-- ci_job_generate_module.sh&#45;&gt;install_server.sh -->
<g id="edge29" class="edge">
<title>ci_job_generate_module.sh&#45;&gt;install_server.sh</title>
<path fill="none" stroke="black" d="M1051.56,-858C1083.33,-868.11 1125.52,-881.25 1163.11,-892 1177.48,-896.11 1193.04,-900.32 1207.61,-904.15"/>
<polygon fill="black" stroke="black" points="1206.96,-907.6 1217.52,-906.74 1208.73,-900.82 1206.96,-907.6"/>
</g>
<!-- deploy_js.sh -->
<g id="node30" class="node">
<title>deploy_js.sh</title>
<ellipse fill="none" stroke="black" cx="1001.02" cy="-643" rx="55.49" ry="18"/>
<text text-anchor="middle" x="1001.02" y="-639.3" font-family="Times,serif" font-size="14.00">deploy_js.sh</text>
</g>
<!-- ci_job_deploy_js.sh&#45;&gt;deploy_js.sh -->
<g id="edge25" class="edge">
<title>ci_job_deploy_js.sh&#45;&gt;deploy_js.sh</title>
<path fill="none" stroke="black" d="M798.99,-652.34C842.34,-650.33 895.45,-647.86 936.19,-645.97"/>
<polygon fill="black" stroke="black" points="936.44,-649.46 946.27,-645.5 936.12,-642.47 936.44,-649.46"/>
</g>
<!-- git_checkout_name.sh -->
<g id="node35" class="node">
<title>git_checkout_name.sh</title>
<ellipse fill="none" stroke="black" cx="1507.18" cy="-229" rx="90.18" ry="18"/>
<text text-anchor="middle" x="1507.18" y="-225.3" font-family="Times,serif" font-size="14.00">git_checkout_name.sh</text>
</g>
<!-- ci_job_package_debian.sh&#45;&gt;git_checkout_name.sh -->
<g id="edge30" class="edge">
<title>ci_job_package_debian.sh&#45;&gt;git_checkout_name.sh</title>
<path fill="none" stroke="black" d="M1371.14,-229C1382.9,-229 1394.88,-229 1406.59,-229"/>
<polygon fill="black" stroke="black" points="1406.81,-232.5 1416.81,-229 1406.81,-225.5 1406.81,-232.5"/>
</g>
<!-- git_default_branch.sh -->
<g id="node36" class="node">
<title>git_default_branch.sh</title>
<ellipse fill="none" stroke="black" cx="1730.37" cy="-298" rx="87.18" ry="18"/>
<text text-anchor="middle" x="1730.37" y="-294.3" font-family="Times,serif" font-size="14.00">git_default_branch.sh</text>
</g>
<!-- ci_job_package_debian.sh&#45;&gt;git_default_branch.sh -->
<g id="edge31" class="edge">
<title>ci_job_package_debian.sh&#45;&gt;git_default_branch.sh</title>
<path fill="none" stroke="black" d="M1334.41,-242.75C1357.37,-247.28 1383.31,-252.14 1407.09,-256 1486.92,-268.94 1578.39,-280.56 1643.43,-288.28"/>
<polygon fill="black" stroke="black" points="1643.3,-291.78 1653.64,-289.48 1644.12,-284.83 1643.3,-291.78"/>
</g>
<!-- ci_aptly_repo_publish.sh -->
<g id="node24" class="node">
<title>ci_aptly_repo_publish.sh</title>
<ellipse fill="none" stroke="black" cx="1001.02" cy="-202" rx="99.38" ry="18"/>
<text text-anchor="middle" x="1001.02" y="-198.3" font-family="Times,serif" font-size="14.00">ci_aptly_repo_publish.sh</text>
</g>
<!-- ci_job_deploy_debian.sh&#45;&gt;ci_aptly_repo_publish.sh -->
<g id="edge20" class="edge">
<title>ci_job_deploy_debian.sh&#45;&gt;ci_aptly_repo_publish.sh</title>
<path fill="none" stroke="black" d="M818.16,-202C841.73,-202 867.05,-202 891.1,-202"/>
<polygon fill="black" stroke="black" points="891.31,-205.5 901.31,-202 891.31,-198.5 891.31,-205.5"/>
</g>
<!-- ci_job_deploy_docker.sh&#45;&gt;container_build.sh -->
<g id="edge22" class="edge">
<title>ci_job_deploy_docker.sh&#45;&gt;container_build.sh</title>
<path fill="none" stroke="black" d="M806.92,-339.64C842.98,-336.16 884.61,-332.14 919.95,-328.73"/>
<polygon fill="black" stroke="black" points="920.61,-332.18 930.23,-327.74 919.94,-325.22 920.61,-332.18"/>
</g>
<!-- ci_job_deploy_docker_asan.sh&#45;&gt;container_build.sh -->
<g id="edge23" class="edge">
<title>ci_job_deploy_docker_asan.sh&#45;&gt;container_build.sh</title>
<path fill="none" stroke="black" d="M789.93,-387.38C806.09,-383.64 823.18,-379.42 838.93,-375 876.38,-364.49 917.99,-350.48 949.53,-339.36"/>
<polygon fill="black" stroke="black" points="950.73,-342.65 958.99,-336.01 948.39,-336.06 950.73,-342.65"/>
</g>
<!-- ci_github_runner_cleanup.sh -->
<g id="node25" class="node">
<title>ci_github_runner_cleanup.sh</title>
<ellipse fill="none" stroke="black" cx="134.54" cy="-733" rx="113.18" ry="18"/>
<text text-anchor="middle" x="134.54" y="-729.3" font-family="Times,serif" font-size="14.00">ci_github_runner_cleanup.sh</text>
</g>
<!-- ci_github_runner_setup.sh -->
<g id="node26" class="node">
<title>ci_github_runner_setup.sh</title>
<ellipse fill="none" stroke="black" cx="134.54" cy="-787" rx="104.78" ry="18"/>
<text text-anchor="middle" x="134.54" y="-783.3" font-family="Times,serif" font-size="14.00">ci_github_runner_setup.sh</text>
</g>
<!-- ci_job_deploy_debian_test.sh -->
<g id="node27" class="node">
<title>ci_job_deploy_debian_test.sh</title>
<ellipse fill="none" stroke="black" cx="134.54" cy="-841" rx="115.88" ry="18"/>
<text text-anchor="middle" x="134.54" y="-837.3" font-family="Times,serif" font-size="14.00">ci_job_deploy_debian_test.sh</text>
</g>
<!-- check_version.sh -->
<g id="node40" class="node">
<title>check_version.sh</title>
<ellipse fill="none" stroke="black" cx="1507.18" cy="-489" rx="71.49" ry="18"/>
<text text-anchor="middle" x="1507.18" y="-485.3" font-family="Times,serif" font-size="14.00">check_version.sh</text>
</g>
<!-- doc_deploy.sh&#45;&gt;check_version.sh -->
<g id="edge46" class="edge">
<title>doc_deploy.sh&#45;&gt;check_version.sh</title>
<path fill="none" stroke="black" d="M1318.88,-452.81C1354.24,-459.64 1401.72,-468.82 1440.03,-476.22"/>
<polygon fill="black" stroke="black" points="1439.58,-479.7 1450.07,-478.16 1440.91,-472.82 1439.58,-479.7"/>
</g>
<!-- get_version.sh -->
<g id="node44" class="node">
<title>get_version.sh</title>
<ellipse fill="none" stroke="black" cx="1730.37" cy="-589" rx="61.99" ry="18"/>
<text text-anchor="middle" x="1730.37" y="-585.3" font-family="Times,serif" font-size="14.00">get_version.sh</text>
</g>
<!-- doc_deploy.sh&#45;&gt;get_version.sh -->
<g id="edge47" class="edge">
<title>doc_deploy.sh&#45;&gt;get_version.sh</title>
<path fill="none" stroke="black" d="M1321.5,-434.42C1390.84,-425.79 1514.02,-419.17 1607.27,-462 1654.33,-483.61 1692.54,-532.18 1713.03,-562.6"/>
<polygon fill="black" stroke="black" points="1710.15,-564.6 1718.57,-571.03 1716,-560.75 1710.15,-564.6"/>
</g>
<!-- maven_deploy.sh&#45;&gt;check_version.sh -->
<g id="edge50" class="edge">
<title>maven_deploy.sh&#45;&gt;check_version.sh</title>
<path fill="none" stroke="black" d="M1325.13,-523.98C1359.71,-517.3 1403.97,-508.75 1440.08,-501.77"/>
<polygon fill="black" stroke="black" points="1440.88,-505.18 1450.03,-499.85 1439.55,-498.31 1440.88,-505.18"/>
</g>
<!-- maven_deploy.sh&#45;&gt;get_version.sh -->
<g id="edge51" class="edge">
<title>maven_deploy.sh&#45;&gt;get_version.sh</title>
<path fill="none" stroke="black" d="M1317.69,-547.97C1353.87,-557.35 1398.08,-568.61 1407.09,-570 1492.8,-583.2 1592.63,-587.38 1658.2,-588.63"/>
<polygon fill="black" stroke="black" points="1658.36,-592.13 1668.42,-588.8 1658.48,-585.13 1658.36,-592.13"/>
</g>
<!-- maven_deploy_github.sh -->
<g id="node47" class="node">
<title>maven_deploy_github.sh</title>
<ellipse fill="none" stroke="black" cx="1507.18" cy="-543" rx="100.18" ry="18"/>
<text text-anchor="middle" x="1507.18" y="-539.3" font-family="Times,serif" font-size="14.00">maven_deploy_github.sh</text>
</g>
<!-- maven_deploy.sh&#45;&gt;maven_deploy_github.sh -->
<g id="edge52" class="edge">
<title>maven_deploy.sh&#45;&gt;maven_deploy_github.sh</title>
<path fill="none" stroke="black" d="M1339.53,-537.4C1358.05,-538.02 1378.4,-538.71 1398.33,-539.38"/>
<polygon fill="black" stroke="black" points="1398.27,-542.88 1408.38,-539.71 1398.51,-535.88 1398.27,-542.88"/>
</g>
<!-- deploy_js.sh&#45;&gt;maven_deploy.sh -->
<g id="edge35" class="edge">
<title>deploy_js.sh&#45;&gt;maven_deploy.sh</title>
<path fill="none" stroke="black" d="M1033.35,-628.29C1058.79,-616.21 1095.51,-598.47 1127.11,-582 1143.34,-573.54 1146.12,-568.82 1163.11,-562 1175.28,-557.12 1188.61,-552.87 1201.52,-549.27"/>
<polygon fill="black" stroke="black" points="1202.54,-552.62 1211.29,-546.65 1200.72,-545.86 1202.54,-552.62"/>
</g>
<!-- deploy_js.sh&#45;&gt;get_name.sh -->
<g id="edge36" class="edge">
<title>deploy_js.sh&#45;&gt;get_name.sh</title>
<path fill="none" stroke="black" d="M1018.37,-660.31C1045.45,-687.66 1102.66,-740.02 1163.11,-762 1256.52,-795.96 1373.6,-794.62 1444.02,-789.54"/>
<polygon fill="black" stroke="black" points="1444.36,-793.02 1454.06,-788.76 1443.82,-786.04 1444.36,-793.02"/>
</g>
<!-- deploy_js.sh&#45;&gt;check_version.sh -->
<g id="edge37" class="edge">
<title>deploy_js.sh&#45;&gt;check_version.sh</title>
<path fill="none" stroke="black" d="M1042.52,-631C1069.29,-621.36 1103.63,-605.5 1127.11,-582 1152.96,-556.13 1132.65,-528.25 1163.11,-508 1204.86,-480.24 1339.7,-480.75 1427.38,-484.36"/>
<polygon fill="black" stroke="black" points="1427.42,-487.87 1437.56,-484.81 1427.72,-480.88 1427.42,-487.87"/>
</g>
<!-- deploy_js_bower.sh -->
<g id="node41" class="node">
<title>deploy_js_bower.sh</title>
<ellipse fill="none" stroke="black" cx="1267.1" cy="-380" rx="81.49" ry="18"/>
<text text-anchor="middle" x="1267.1" y="-376.3" font-family="Times,serif" font-size="14.00">deploy_js_bower.sh</text>
</g>
<!-- deploy_js.sh&#45;&gt;deploy_js_bower.sh -->
<g id="edge38" class="edge">
<title>deploy_js.sh&#45;&gt;deploy_js_bower.sh</title>
<path fill="none" stroke="black" d="M1045.64,-632.3C1073.04,-623.34 1106.9,-607.76 1127.11,-582 1173.71,-522.61 1113.1,-472.55 1163.11,-416 1171.2,-406.85 1181.74,-400.03 1192.99,-394.94"/>
<polygon fill="black" stroke="black" points="1194.61,-398.06 1202.57,-391.06 1191.99,-391.57 1194.61,-398.06"/>
</g>
<!-- deploy_js_http.sh -->
<g id="node42" class="node">
<title>deploy_js_http.sh</title>
<ellipse fill="none" stroke="black" cx="1267.1" cy="-643" rx="73.39" ry="18"/>
<text text-anchor="middle" x="1267.1" y="-639.3" font-family="Times,serif" font-size="14.00">deploy_js_http.sh</text>
</g>
<!-- deploy_js.sh&#45;&gt;deploy_js_http.sh -->
<g id="edge39" class="edge">
<title>deploy_js.sh&#45;&gt;deploy_js_http.sh</title>
<path fill="none" stroke="black" d="M1056.42,-643C1092.96,-643 1141.82,-643 1183.17,-643"/>
<polygon fill="black" stroke="black" points="1183.24,-646.5 1193.24,-643 1183.24,-639.5 1183.24,-646.5"/>
</g>
<!-- deploy_js_npm.sh -->
<g id="node43" class="node">
<title>deploy_js_npm.sh</title>
<ellipse fill="none" stroke="black" cx="1267.1" cy="-589" rx="75.29" ry="18"/>
<text text-anchor="middle" x="1267.1" y="-585.3" font-family="Times,serif" font-size="14.00">deploy_js_npm.sh</text>
</g>
<!-- deploy_js.sh&#45;&gt;deploy_js_npm.sh -->
<g id="edge40" class="edge">
<title>deploy_js.sh&#45;&gt;deploy_js_npm.sh</title>
<path fill="none" stroke="black" d="M1048.32,-633.53C1090.17,-624.98 1152.25,-612.28 1199.44,-602.63"/>
<polygon fill="black" stroke="black" points="1200.17,-606.05 1209.27,-600.62 1198.77,-599.2 1200.17,-606.05"/>
</g>
<!-- deploy_js.sh&#45;&gt;get_version.sh -->
<g id="edge41" class="edge">
<title>deploy_js.sh&#45;&gt;get_version.sh</title>
<path fill="none" stroke="black" d="M1047.59,-652.72C1079.71,-659.05 1123.83,-666.73 1163.11,-670 1255.23,-677.67 1279.23,-680.26 1371.09,-670 1481.63,-657.66 1607.86,-624.53 1677.08,-604.67"/>
<polygon fill="black" stroke="black" points="1678.24,-607.98 1686.87,-601.84 1676.3,-601.26 1678.24,-607.98"/>
</g>
<!-- mavenize_js_project.sh -->
<g id="node45" class="node">
<title>mavenize_js_project.sh</title>
<ellipse fill="none" stroke="black" cx="1267.1" cy="-735" rx="94.48" ry="18"/>
<text text-anchor="middle" x="1267.1" y="-731.3" font-family="Times,serif" font-size="14.00">mavenize_js_project.sh</text>
</g>
<!-- deploy_js.sh&#45;&gt;mavenize_js_project.sh -->
<g id="edge42" class="edge">
<title>deploy_js.sh&#45;&gt;mavenize_js_project.sh</title>
<path fill="none" stroke="black" d="M1037.02,-656.67C1069.51,-669.21 1119.33,-688.06 1163.11,-703 1176.86,-707.69 1191.74,-712.48 1205.79,-716.87"/>
<polygon fill="black" stroke="black" points="1204.78,-720.23 1215.37,-719.85 1206.86,-713.54 1204.78,-720.23"/>
</g>
<!-- generate_js_module.sh&#45;&gt;get_name.sh -->
<g id="edge48" class="edge">
<title>generate_js_module.sh&#45;&gt;get_name.sh</title>
<path fill="none" stroke="black" d="M1318.3,-849.99C1335.14,-844.8 1353.99,-838.82 1371.09,-833 1401.32,-822.72 1435,-810.25 1461.17,-800.34"/>
<polygon fill="black" stroke="black" points="1462.71,-803.5 1470.81,-796.68 1460.22,-796.96 1462.71,-803.5"/>
</g>
<!-- generate_js_module.sh&#45;&gt;get_version.sh -->
<g id="edge49" class="edge">
<title>generate_js_module.sh&#45;&gt;get_version.sh</title>
<path fill="none" stroke="black" d="M1354.2,-870.99C1427.81,-871.77 1533.25,-862.11 1607.27,-810 1674.89,-762.4 1709.16,-664.93 1722.5,-616.95"/>
<polygon fill="black" stroke="black" points="1725.9,-617.79 1725.11,-607.23 1719.14,-615.98 1725.9,-617.79"/>
</g>
<!-- git_checkout_name.sh&#45;&gt;git_default_branch.sh -->
<g id="edge57" class="edge">
<title>git_checkout_name.sh&#45;&gt;git_default_branch.sh</title>
<path fill="none" stroke="black" d="M1556.72,-244.14C1590.55,-254.69 1635.82,-268.82 1671.52,-279.96"/>
<polygon fill="black" stroke="black" points="1670.73,-283.37 1681.32,-283.01 1672.82,-276.69 1670.73,-283.37"/>
</g>
<!-- server/bin/make&#45;dev&#45;container.sh -->
<g id="node38" class="node">
<title>server/bin/make&#45;dev&#45;container.sh</title>
<ellipse fill="none" stroke="black" cx="434.41" cy="-72" rx="128.88" ry="18"/>
<text text-anchor="middle" x="434.41" y="-68.3" font-family="Times,serif" font-size="14.00">server/bin/make&#45;dev&#45;container.sh</text>
</g>
<!-- server/bin/make&#45;dev&#45;container.sh&#45;&gt;kurento&#45;buildpackage.sh -->
<g id="edge33" class="edge">
<title>server/bin/make&#45;dev&#45;container.sh&#45;&gt;kurento&#45;buildpackage.sh</title>
<path fill="none" stroke="black" d="M541.17,-61.91C567.63,-59.38 595.88,-56.69 621.87,-54.21"/>
<polygon fill="black" stroke="black" points="622.47,-57.67 632.09,-53.23 621.81,-50.7 622.47,-57.67"/>
</g>
<!-- check_version.sh&#45;&gt;get_version.sh -->
<g id="edge55" class="edge">
<title>check_version.sh&#45;&gt;get_version.sh</title>
<path fill="none" stroke="black" d="M1561.8,-500.75C1576.8,-504.8 1592.92,-509.89 1607.27,-516 1639.65,-529.78 1673.82,-550.84 1697.74,-566.8"/>
<polygon fill="black" stroke="black" points="1695.83,-569.73 1706.07,-572.43 1699.75,-563.93 1695.83,-569.73"/>
</g>
<!-- deploy_js_bower.sh&#45;&gt;git_default_branch.sh -->
<g id="edge43" class="edge">
<title>deploy_js_bower.sh&#45;&gt;git_default_branch.sh</title>
<path fill="none" stroke="black" d="M1348.36,-379.05C1417.79,-376.67 1520.41,-369.38 1607.27,-348 1634.74,-341.24 1664.11,-329.37 1687.17,-318.89"/>
<polygon fill="black" stroke="black" points="1688.71,-322.03 1696.32,-314.65 1685.77,-315.68 1688.71,-322.03"/>
</g>
<!-- deploy_js_bower.sh&#45;&gt;get_version.sh -->
<g id="edge44" class="edge">
<title>deploy_js_bower.sh&#45;&gt;get_version.sh</title>
<path fill="none" stroke="black" d="M1347.47,-383.17C1433.61,-387.84 1564.59,-398.91 1607.27,-424 1662.13,-456.24 1699.85,-523.77 1717.66,-561.68"/>
<polygon fill="black" stroke="black" points="1714.62,-563.45 1721.96,-571.09 1720.99,-560.54 1714.62,-563.45"/>
</g>
<!-- clone_repo.sh -->
<g id="node46" class="node">
<title>clone_repo.sh</title>
<ellipse fill="none" stroke="black" cx="1507.18" cy="-321" rx="59.59" ry="18"/>
<text text-anchor="middle" x="1507.18" y="-317.3" font-family="Times,serif" font-size="14.00">clone_repo.sh</text>
</g>
<!-- deploy_js_bower.sh&#45;&gt;clone_repo.sh -->
<g id="edge45" class="edge">
<title>deploy_js_bower.sh&#45;&gt;clone_repo.sh</title>
<path fill="none" stroke="black" d="M1321.83,-366.69C1360.1,-357.2 1411.42,-344.48 1450.19,-334.87"/>
<polygon fill="black" stroke="black" points="1451.4,-338.18 1460.27,-332.38 1449.72,-331.39 1451.4,-338.18"/>
</g>
<!-- mavenize_js_project.sh&#45;&gt;get_name.sh -->
<g id="edge53" class="edge">
<title>mavenize_js_project.sh&#45;&gt;get_name.sh</title>
<path fill="none" stroke="black" d="M1332.53,-747.99C1369,-755.34 1414.21,-764.46 1449.35,-771.54"/>
<polygon fill="black" stroke="black" points="1448.96,-775.03 1459.45,-773.58 1450.34,-768.17 1448.96,-775.03"/>
</g>
<!-- mavenize_js_project.sh&#45;&gt;get_version.sh -->
<g id="edge54" class="edge">
<title>mavenize_js_project.sh&#45;&gt;get_version.sh</title>
<path fill="none" stroke="black" d="M1354.56,-741.86C1425.53,-744.04 1527.03,-739.08 1607.27,-703 1650.9,-683.38 1688.99,-641.72 1710.57,-614.57"/>
<polygon fill="black" stroke="black" points="1713.35,-616.69 1716.72,-606.64 1707.83,-612.39 1713.35,-616.69"/>
</g>
<!-- clone_repo.sh&#45;&gt;git_default_branch.sh -->
<g id="edge56" class="edge">
<title>clone_repo.sh&#45;&gt;git_default_branch.sh</title>
<path fill="none" stroke="black" d="M1564,-315.2C1587.71,-312.73 1615.93,-309.8 1642.27,-307.06"/>
<polygon fill="black" stroke="black" points="1642.68,-310.53 1652.27,-306.02 1641.96,-303.57 1642.68,-310.53"/>
</g>
<!-- update_test_files.sh -->
<g id="node48" class="node">
<title>update_test_files.sh</title>
<ellipse fill="none" stroke="black" cx="134.54" cy="-895" rx="80.69" ry="18"/>
<text text-anchor="middle" x="134.54" y="-891.3" font-family="Times,serif" font-size="14.00">update_test_files.sh</text>
</g>
</g>
</svg>
