<?xml version="1.0" encoding="UTF-8" standalone="no"?>
<!DOCTYPE svg PUBLIC "-//W3C//DTD SVG 1.1//EN"
 "http://www.w3.org/Graphics/SVG/1.1/DTD/svg11.dtd">
<!-- Generated by graphviz version 2.43.0 (0)
 -->
<!-- Title: scripts Pages: 1 -->
<svg width="2127pt" height="999pt"
 viewBox="0.00 0.00 2127.03 999.00" xmlns="http://www.w3.org/2000/svg" xmlns:xlink="http://www.w3.org/1999/xlink">
<g id="graph0" class="graph" transform="scale(1 1) rotate(0) translate(4 995)">
<title>scripts</title>
<polygon fill="white" stroke="transparent" points="-4,4 -4,-995 2123.03,-995 2123.03,4 -4,4"/>
<!-- clients&#45;java.caller.yaml -->
<g id="node1" class="node">
<title>clients&#45;java.caller.yaml</title>
<ellipse fill="none" stroke="black" cx="146.89" cy="-582" rx="92.88" ry="18"/>
<text text-anchor="middle" x="146.89" y="-578.3" font-family="Times,serif" font-size="14.00">clients&#45;java.caller.yaml</text>
</g>
<!-- clients&#45;java.called.yaml -->
<g id="node7" class="node">
<title>clients&#45;java.called.yaml</title>
<ellipse fill="none" stroke="black" cx="775.24" cy="-582" rx="94.78" ry="18"/>
<text text-anchor="middle" x="775.24" y="-578.3" font-family="Times,serif" font-size="14.00">clients&#45;java.called.yaml</text>
</g>
<!-- clients&#45;java.caller.yaml&#45;&gt;clients&#45;java.called.yaml -->
<g id="edge1" class="edge">
<title>clients&#45;java.caller.yaml&#45;&gt;clients&#45;java.called.yaml</title>
<path fill="none" stroke="black" d="M239.97,-582C354.62,-582 549.97,-582 670,-582"/>
<polygon fill="black" stroke="black" points="670.3,-585.5 680.3,-582 670.3,-578.5 670.3,-585.5"/>
</g>
<!-- clients&#45;javascript.caller.yaml -->
<g id="node2" class="node">
<title>clients&#45;javascript.caller.yaml</title>
<ellipse fill="none" stroke="black" cx="146.89" cy="-679" rx="112.38" ry="18"/>
<text text-anchor="middle" x="146.89" y="-675.3" font-family="Times,serif" font-size="14.00">clients&#45;javascript.caller.yaml</text>
</g>
<!-- clients&#45;javascript.called.yaml -->
<g id="node8" class="node">
<title>clients&#45;javascript.called.yaml</title>
<ellipse fill="none" stroke="black" cx="459.11" cy="-679" rx="114.28" ry="18"/>
<text text-anchor="middle" x="459.11" y="-675.3" font-family="Times,serif" font-size="14.00">clients&#45;javascript.called.yaml</text>
</g>
<!-- clients&#45;javascript.caller.yaml&#45;&gt;clients&#45;javascript.called.yaml -->
<g id="edge2" class="edge">
<title>clients&#45;javascript.caller.yaml&#45;&gt;clients&#45;javascript.called.yaml</title>
<path fill="none" stroke="black" d="M259.45,-679C283.8,-679 309.71,-679 334.5,-679"/>
<polygon fill="black" stroke="black" points="334.67,-682.5 344.67,-679 334.67,-675.5 334.67,-682.5"/>
</g>
<!-- doc&#45;kurento.yaml -->
<g id="node3" class="node">
<title>doc&#45;kurento.yaml</title>
<ellipse fill="none" stroke="black" cx="146.89" cy="-448" rx="73.39" ry="18"/>
<text text-anchor="middle" x="146.89" y="-444.3" font-family="Times,serif" font-size="14.00">doc&#45;kurento.yaml</text>
</g>
<!-- kurento_ci_job_deploy_doc.sh -->
<g id="node9" class="node">
<title>kurento_ci_job_deploy_doc.sh</title>
<ellipse fill="none" stroke="black" cx="459.11" cy="-448" rx="119.68" ry="18"/>
<text text-anchor="middle" x="459.11" y="-444.3" font-family="Times,serif" font-size="14.00">kurento_ci_job_deploy_doc.sh</text>
</g>
<!-- doc&#45;kurento.yaml&#45;&gt;kurento_ci_job_deploy_doc.sh -->
<g id="edge3" class="edge">
<title>doc&#45;kurento.yaml&#45;&gt;kurento_ci_job_deploy_doc.sh</title>
<path fill="none" stroke="black" d="M220.62,-448C252.95,-448 292.01,-448 329.03,-448"/>
<polygon fill="black" stroke="black" points="329.41,-451.5 339.41,-448 329.41,-444.5 329.41,-451.5"/>
</g>
<!-- docker&#45;kurento&#45;buildpackage.yaml -->
<g id="node4" class="node">
<title>docker&#45;kurento&#45;buildpackage.yaml</title>
<ellipse fill="none" stroke="black" cx="146.89" cy="-83" rx="134.58" ry="18"/>
<text text-anchor="middle" x="146.89" y="-79.3" font-family="Times,serif" font-size="14.00">docker&#45;kurento&#45;buildpackage.yaml</text>
</g>
<!-- kurento_container_build.sh -->
<g id="node10" class="node">
<title>kurento_container_build.sh</title>
<ellipse fill="none" stroke="black" cx="1101.76" cy="-321" rx="107.48" ry="18"/>
<text text-anchor="middle" x="1101.76" y="-317.3" font-family="Times,serif" font-size="14.00">kurento_container_build.sh</text>
</g>
<!-- docker&#45;kurento&#45;buildpackage.yaml&#45;&gt;kurento_container_build.sh -->
<g id="edge4" class="edge">
<title>docker&#45;kurento&#45;buildpackage.yaml&#45;&gt;kurento_container_build.sh</title>
<path fill="none" stroke="black" d="M256.95,-93.46C464.42,-113.7 897.87,-157.73 926.02,-175 950.61,-190.08 941.6,-208.63 962.02,-229 990.58,-257.49 1029.23,-282.26 1058.49,-298.9"/>
<polygon fill="black" stroke="black" points="1056.81,-301.97 1067.25,-303.79 1060.23,-295.86 1056.81,-301.97"/>
</g>
<!-- docker/kurento&#45;buildpackage -->
<g id="node11" class="node">
<title>docker/kurento&#45;buildpackage</title>
<ellipse fill="none" stroke="black" cx="459.11" cy="-18" rx="113.98" ry="18"/>
<text text-anchor="middle" x="459.11" y="-14.3" font-family="Times,serif" font-size="14.00">docker/kurento&#45;buildpackage</text>
</g>
<!-- docker&#45;kurento&#45;buildpackage.yaml&#45;&gt;docker/kurento&#45;buildpackage -->
<g id="edge5" class="edge">
<title>docker&#45;kurento&#45;buildpackage.yaml&#45;&gt;docker/kurento&#45;buildpackage</title>
<path fill="none" stroke="black" d="M220.23,-67.84C268.13,-57.81 330.94,-44.65 379.98,-34.37"/>
<polygon fill="black" stroke="black" points="380.84,-37.77 389.91,-32.29 379.41,-30.91 380.84,-37.77"/>
</g>
<!-- docker&#45;kurento&#45;ci&#45;buildtools.yaml -->
<g id="node5" class="node">
<title>docker&#45;kurento&#45;ci&#45;buildtools.yaml</title>
<ellipse fill="none" stroke="black" cx="146.89" cy="-302" rx="131.88" ry="18"/>
<text text-anchor="middle" x="146.89" y="-298.3" font-family="Times,serif" font-size="14.00">docker&#45;kurento&#45;ci&#45;buildtools.yaml</text>
</g>
<!-- docker&#45;kurento&#45;ci&#45;buildtools.yaml&#45;&gt;kurento_container_build.sh -->
<g id="edge6" class="edge">
<title>docker&#45;kurento&#45;ci&#45;buildtools.yaml&#45;&gt;kurento_container_build.sh</title>
<path fill="none" stroke="black" d="M277.88,-304.59C464.73,-308.32 806.31,-315.13 984.94,-318.69"/>
<polygon fill="black" stroke="black" points="985.09,-322.19 995.16,-318.89 985.23,-315.2 985.09,-322.19"/>
</g>
<!-- server.caller.yaml -->
<g id="node6" class="node">
<title>server.caller.yaml</title>
<ellipse fill="none" stroke="black" cx="146.89" cy="-225" rx="73.39" ry="18"/>
<text text-anchor="middle" x="146.89" y="-221.3" font-family="Times,serif" font-size="14.00">server.caller.yaml</text>
</g>
<!-- server&#45;buildpackage.called.yaml -->
<g id="node12" class="node">
<title>server&#45;buildpackage.called.yaml</title>
<ellipse fill="none" stroke="black" cx="1101.76" cy="-133" rx="126.18" ry="18"/>
<text text-anchor="middle" x="1101.76" y="-129.3" font-family="Times,serif" font-size="14.00">server&#45;buildpackage.called.yaml</text>
</g>
<!-- server.caller.yaml&#45;&gt;server&#45;buildpackage.called.yaml -->
<g id="edge7" class="edge">
<title>server.caller.yaml&#45;&gt;server&#45;buildpackage.called.yaml</title>
<path fill="none" stroke="black" d="M190.68,-210.44C227.18,-198.7 281.29,-182.89 329.77,-175 550.68,-139.05 811.38,-132.12 966,-131.66"/>
<polygon fill="black" stroke="black" points="966.04,-135.16 976.03,-131.64 966.03,-128.16 966.04,-135.16"/>
</g>
<!-- server&#45;deploy&#45;aws.called.yaml -->
<g id="node13" class="node">
<title>server&#45;deploy&#45;aws.called.yaml</title>
<ellipse fill="none" stroke="black" cx="459.11" cy="-256" rx="119.68" ry="18"/>
<text text-anchor="middle" x="459.11" y="-252.3" font-family="Times,serif" font-size="14.00">server&#45;deploy&#45;aws.called.yaml</text>
</g>
<!-- server.caller.yaml&#45;&gt;server&#45;deploy&#45;aws.called.yaml -->
<g id="edge8" class="edge">
<title>server.caller.yaml&#45;&gt;server&#45;deploy&#45;aws.called.yaml</title>
<path fill="none" stroke="black" d="M215.2,-231.73C254.3,-235.63 304.5,-240.65 349.1,-245.11"/>
<polygon fill="black" stroke="black" points="348.82,-248.6 359.12,-246.11 349.51,-241.63 348.82,-248.6"/>
</g>
<!-- server&#45;deploy&#45;debian.called.yaml -->
<g id="node14" class="node">
<title>server&#45;deploy&#45;debian.called.yaml</title>
<ellipse fill="none" stroke="black" cx="459.11" cy="-202" rx="129.18" ry="18"/>
<text text-anchor="middle" x="459.11" y="-198.3" font-family="Times,serif" font-size="14.00">server&#45;deploy&#45;debian.called.yaml</text>
</g>
<!-- server.caller.yaml&#45;&gt;server&#45;deploy&#45;debian.called.yaml -->
<g id="edge9" class="edge">
<title>server.caller.yaml&#45;&gt;server&#45;deploy&#45;debian.called.yaml</title>
<path fill="none" stroke="black" d="M217.51,-219.84C252.01,-217.28 294.72,-214.11 334.53,-211.16"/>
<polygon fill="black" stroke="black" points="334.87,-214.65 344.59,-210.42 334.35,-207.67 334.87,-214.65"/>
</g>
<!-- server&#45;deploy&#45;docker.called.yaml -->
<g id="node15" class="node">
<title>server&#45;deploy&#45;docker.called.yaml</title>
<ellipse fill="none" stroke="black" cx="459.11" cy="-348" rx="129.18" ry="18"/>
<text text-anchor="middle" x="459.11" y="-344.3" font-family="Times,serif" font-size="14.00">server&#45;deploy&#45;docker.called.yaml</text>
</g>
<!-- server.caller.yaml&#45;&gt;server&#45;deploy&#45;docker.called.yaml -->
<g id="edge10" class="edge">
<title>server.caller.yaml&#45;&gt;server&#45;deploy&#45;docker.called.yaml</title>
<path fill="none" stroke="black" d="M192.63,-239.2C221.69,-248.71 260.25,-261.84 293.77,-275 334.37,-290.94 379.6,-311.22 412.32,-326.36"/>
<polygon fill="black" stroke="black" points="411.08,-329.65 421.63,-330.69 414.03,-323.3 411.08,-329.65"/>
</g>
<!-- kurento_ci_job_deploy_java.sh -->
<g id="node16" class="node">
<title>kurento_ci_job_deploy_java.sh</title>
<ellipse fill="none" stroke="black" cx="1101.76" cy="-555" rx="121.58" ry="18"/>
<text text-anchor="middle" x="1101.76" y="-551.3" font-family="Times,serif" font-size="14.00">kurento_ci_job_deploy_java.sh</text>
</g>
<!-- clients&#45;java.called.yaml&#45;&gt;kurento_ci_job_deploy_java.sh -->
<g id="edge11" class="edge">
<title>clients&#45;java.called.yaml&#45;&gt;kurento_ci_job_deploy_java.sh</title>
<path fill="none" stroke="black" d="M862.35,-574.84C900,-571.7 944.73,-567.98 985.21,-564.61"/>
<polygon fill="black" stroke="black" points="985.73,-568.08 995.41,-563.77 985.15,-561.11 985.73,-568.08"/>
</g>
<!-- kurento_ci_job_generate_module.sh -->
<g id="node17" class="node">
<title>kurento_ci_job_generate_module.sh</title>
<ellipse fill="none" stroke="black" cx="1101.76" cy="-842" rx="139.98" ry="18"/>
<text text-anchor="middle" x="1101.76" y="-838.3" font-family="Times,serif" font-size="14.00">kurento_ci_job_generate_module.sh</text>
</g>
<!-- clients&#45;java.called.yaml&#45;&gt;kurento_ci_job_generate_module.sh -->
<g id="edge12" class="edge">
<title>clients&#45;java.called.yaml&#45;&gt;kurento_ci_job_generate_module.sh</title>
<path fill="none" stroke="black" d="M844.08,-594.45C871.16,-601.59 901.63,-612.53 926.02,-629 930.96,-632.33 1034.09,-759.54 1079.55,-815.75"/>
<polygon fill="black" stroke="black" points="1077.07,-818.24 1086.07,-823.82 1082.51,-813.84 1077.07,-818.24"/>
</g>
<!-- clients&#45;javascript.called.yaml&#45;&gt;kurento_ci_job_generate_module.sh -->
<g id="edge13" class="edge">
<title>clients&#45;javascript.called.yaml&#45;&gt;kurento_ci_job_generate_module.sh</title>
<path fill="none" stroke="black" d="M520.1,-694.26C638.18,-724.3 900.36,-791.01 1028.05,-823.5"/>
<polygon fill="black" stroke="black" points="1027.2,-826.9 1037.75,-825.97 1028.93,-820.11 1027.2,-826.9"/>
</g>
<!-- kurento_ci_job_deploy_js.sh -->
<g id="node18" class="node">
<title>kurento_ci_job_deploy_js.sh</title>
<ellipse fill="none" stroke="black" cx="775.24" cy="-656" rx="112.38" ry="18"/>
<text text-anchor="middle" x="775.24" y="-652.3" font-family="Times,serif" font-size="14.00">kurento_ci_job_deploy_js.sh</text>
</g>
<!-- clients&#45;javascript.called.yaml&#45;&gt;kurento_ci_job_deploy_js.sh -->
<g id="edge14" class="edge">
<title>clients&#45;javascript.called.yaml&#45;&gt;kurento_ci_job_deploy_js.sh</title>
<path fill="none" stroke="black" d="M563.4,-671.44C595.11,-669.12 630.14,-666.55 662.39,-664.19"/>
<polygon fill="black" stroke="black" points="663.04,-667.65 672.76,-663.43 662.53,-660.67 663.04,-667.65"/>
</g>
<!-- kurento_doc_deploy.sh -->
<g id="node28" class="node">
<title>kurento_doc_deploy.sh</title>
<ellipse fill="none" stroke="black" cx="1412.69" cy="-443" rx="92.88" ry="18"/>
<text text-anchor="middle" x="1412.69" y="-439.3" font-family="Times,serif" font-size="14.00">kurento_doc_deploy.sh</text>
</g>
<!-- kurento_ci_job_deploy_doc.sh&#45;&gt;kurento_doc_deploy.sh -->
<g id="edge21" class="edge">
<title>kurento_ci_job_deploy_doc.sh&#45;&gt;kurento_doc_deploy.sh</title>
<path fill="none" stroke="black" d="M578.71,-447.38C767.23,-446.39 1132.09,-444.47 1309.65,-443.54"/>
<polygon fill="black" stroke="black" points="1309.8,-447.04 1319.78,-443.48 1309.76,-440.04 1309.8,-447.04"/>
</g>
<!-- parse_yaml.sh -->
<g id="node39" class="node">
<title>parse_yaml.sh</title>
<ellipse fill="none" stroke="black" cx="1412.69" cy="-321" rx="61.99" ry="18"/>
<text text-anchor="middle" x="1412.69" y="-317.3" font-family="Times,serif" font-size="14.00">parse_yaml.sh</text>
</g>
<!-- kurento_container_build.sh&#45;&gt;parse_yaml.sh -->
<g id="edge34" class="edge">
<title>kurento_container_build.sh&#45;&gt;parse_yaml.sh</title>
<path fill="none" stroke="black" d="M1209.08,-321C1252.5,-321 1301.55,-321 1340.52,-321"/>
<polygon fill="black" stroke="black" points="1340.71,-324.5 1350.71,-321 1340.71,-317.5 1340.71,-324.5"/>
</g>
<!-- kurento&#45;buildpackage.sh -->
<g id="node37" class="node">
<title>kurento&#45;buildpackage.sh</title>
<ellipse fill="none" stroke="black" cx="775.24" cy="-45" rx="97.48" ry="18"/>
<text text-anchor="middle" x="775.24" y="-41.3" font-family="Times,serif" font-size="14.00">kurento&#45;buildpackage.sh</text>
</g>
<!-- docker/kurento&#45;buildpackage&#45;&gt;kurento&#45;buildpackage.sh -->
<g id="edge32" class="edge">
<title>docker/kurento&#45;buildpackage&#45;&gt;kurento&#45;buildpackage.sh</title>
<path fill="none" stroke="black" d="M559.5,-26.54C596.8,-29.75 639.13,-33.39 676.3,-36.58"/>
<polygon fill="black" stroke="black" points="676.37,-40.1 686.63,-37.47 676.97,-33.13 676.37,-40.1"/>
</g>
<!-- kurento_ci_job_package_debian.sh -->
<g id="node19" class="node">
<title>kurento_ci_job_package_debian.sh</title>
<ellipse fill="none" stroke="black" cx="1412.69" cy="-229" rx="135.38" ry="18"/>
<text text-anchor="middle" x="1412.69" y="-225.3" font-family="Times,serif" font-size="14.00">kurento_ci_job_package_debian.sh</text>
</g>
<!-- server&#45;buildpackage.called.yaml&#45;&gt;kurento_ci_job_package_debian.sh -->
<g id="edge15" class="edge">
<title>server&#45;buildpackage.called.yaml&#45;&gt;kurento_ci_job_package_debian.sh</title>
<path fill="none" stroke="black" d="M1157.17,-149.29C1182.78,-157 1213.74,-166.39 1241.5,-175 1277.59,-186.19 1317.89,-198.96 1350.22,-209.28"/>
<polygon fill="black" stroke="black" points="1349.39,-212.69 1359.98,-212.4 1351.52,-206.02 1349.39,-212.69"/>
</g>
<!-- kurento_ci_job_deploy_aws_cf.sh -->
<g id="node20" class="node">
<title>kurento_ci_job_deploy_aws_cf.sh</title>
<ellipse fill="none" stroke="black" cx="775.24" cy="-256" rx="131.88" ry="18"/>
<text text-anchor="middle" x="775.24" y="-252.3" font-family="Times,serif" font-size="14.00">kurento_ci_job_deploy_aws_cf.sh</text>
</g>
<!-- server&#45;deploy&#45;aws.called.yaml&#45;&gt;kurento_ci_job_deploy_aws_cf.sh -->
<g id="edge16" class="edge">
<title>server&#45;deploy&#45;aws.called.yaml&#45;&gt;kurento_ci_job_deploy_aws_cf.sh</title>
<path fill="none" stroke="black" d="M578.87,-256C596.61,-256 615.04,-256 633.18,-256"/>
<polygon fill="black" stroke="black" points="633.23,-259.5 643.23,-256 633.23,-252.5 633.23,-259.5"/>
</g>
<!-- kurento_ci_job_deploy_debian.sh -->
<g id="node21" class="node">
<title>kurento_ci_job_deploy_debian.sh</title>
<ellipse fill="none" stroke="black" cx="775.24" cy="-202" rx="129.98" ry="18"/>
<text text-anchor="middle" x="775.24" y="-198.3" font-family="Times,serif" font-size="14.00">kurento_ci_job_deploy_debian.sh</text>
</g>
<!-- server&#45;deploy&#45;debian.called.yaml&#45;&gt;kurento_ci_job_deploy_debian.sh -->
<g id="edge17" class="edge">
<title>server&#45;deploy&#45;debian.called.yaml&#45;&gt;kurento_ci_job_deploy_debian.sh</title>
<path fill="none" stroke="black" d="M588.79,-202C604,-202 619.59,-202 634.95,-202"/>
<polygon fill="black" stroke="black" points="635,-205.5 645,-202 635,-198.5 635,-205.5"/>
</g>
<!-- kurento_ci_job_deploy_docker.sh -->
<g id="node22" class="node">
<title>kurento_ci_job_deploy_docker.sh</title>
<ellipse fill="none" stroke="black" cx="775.24" cy="-348" rx="129.98" ry="18"/>
<text text-anchor="middle" x="775.24" y="-344.3" font-family="Times,serif" font-size="14.00">kurento_ci_job_deploy_docker.sh</text>
</g>
<!-- server&#45;deploy&#45;docker.called.yaml&#45;&gt;kurento_ci_job_deploy_docker.sh -->
<g id="edge18" class="edge">
<title>server&#45;deploy&#45;docker.called.yaml&#45;&gt;kurento_ci_job_deploy_docker.sh</title>
<path fill="none" stroke="black" d="M588.79,-348C604,-348 619.59,-348 634.95,-348"/>
<polygon fill="black" stroke="black" points="635,-351.5 645,-348 635,-344.5 635,-351.5"/>
</g>
<!-- kurento_ci_job_deploy_docker_asan.sh -->
<g id="node23" class="node">
<title>kurento_ci_job_deploy_docker_asan.sh</title>
<ellipse fill="none" stroke="black" cx="775.24" cy="-402" rx="150.57" ry="18"/>
<text text-anchor="middle" x="775.24" y="-398.3" font-family="Times,serif" font-size="14.00">kurento_ci_job_deploy_docker_asan.sh</text>
</g>
<!-- server&#45;deploy&#45;docker.called.yaml&#45;&gt;kurento_ci_job_deploy_docker_asan.sh -->
<g id="edge19" class="edge">
<title>server&#45;deploy&#45;docker.called.yaml&#45;&gt;kurento_ci_job_deploy_docker_asan.sh</title>
<path fill="none" stroke="black" d="M541.42,-361.98C583.24,-369.17 634.49,-377.98 678.25,-385.5"/>
<polygon fill="black" stroke="black" points="677.88,-388.99 688.33,-387.23 679.07,-382.09 677.88,-388.99"/>
</g>
<!-- kurento_maven_deploy.sh -->
<g id="node29" class="node">
<title>kurento_maven_deploy.sh</title>
<ellipse fill="none" stroke="black" cx="1412.69" cy="-535" rx="103.98" ry="18"/>
<text text-anchor="middle" x="1412.69" y="-531.3" font-family="Times,serif" font-size="14.00">kurento_maven_deploy.sh</text>
</g>
<!-- kurento_ci_job_deploy_java.sh&#45;&gt;kurento_maven_deploy.sh -->
<g id="edge24" class="edge">
<title>kurento_ci_job_deploy_java.sh&#45;&gt;kurento_maven_deploy.sh</title>
<path fill="none" stroke="black" d="M1213.42,-547.84C1243.15,-545.91 1275.25,-543.83 1304.78,-541.92"/>
<polygon fill="black" stroke="black" points="1305.35,-545.39 1315.11,-541.25 1304.9,-538.41 1305.35,-545.39"/>
</g>
<!-- kurento_generate_java_module.sh -->
<g id="node31" class="node">
<title>kurento_generate_java_module.sh</title>
<ellipse fill="none" stroke="black" cx="1412.69" cy="-973" rx="131.88" ry="18"/>
<text text-anchor="middle" x="1412.69" y="-969.3" font-family="Times,serif" font-size="14.00">kurento_generate_java_module.sh</text>
</g>
<!-- kurento_ci_job_generate_module.sh&#45;&gt;kurento_generate_java_module.sh -->
<g id="edge26" class="edge">
<title>kurento_ci_job_generate_module.sh&#45;&gt;kurento_generate_java_module.sh</title>
<path fill="none" stroke="black" d="M1126.58,-859.78C1159.02,-883.12 1219.68,-923.73 1277.5,-946 1288.96,-950.42 1301.26,-954.15 1313.6,-957.29"/>
<polygon fill="black" stroke="black" points="1312.94,-960.74 1323.49,-959.69 1314.59,-953.93 1312.94,-960.74"/>
</g>
<!-- kurento_generate_js_module.sh -->
<g id="node32" class="node">
<title>kurento_generate_js_module.sh</title>
<ellipse fill="none" stroke="black" cx="1412.69" cy="-865" rx="123.48" ry="18"/>
<text text-anchor="middle" x="1412.69" y="-861.3" font-family="Times,serif" font-size="14.00">kurento_generate_js_module.sh</text>
</g>
<!-- kurento_ci_job_generate_module.sh&#45;&gt;kurento_generate_js_module.sh -->
<g id="edge27" class="edge">
<title>kurento_ci_job_generate_module.sh&#45;&gt;kurento_generate_js_module.sh</title>
<path fill="none" stroke="black" d="M1223.09,-850.96C1245.81,-852.65 1269.58,-854.42 1292.28,-856.11"/>
<polygon fill="black" stroke="black" points="1292.04,-859.6 1302.28,-856.85 1292.56,-852.62 1292.04,-859.6"/>
</g>
<!-- kurento_get_name.sh -->
<g id="node33" class="node">
<title>kurento_get_name.sh</title>
<ellipse fill="none" stroke="black" cx="1715.16" cy="-783" rx="87.18" ry="18"/>
<text text-anchor="middle" x="1715.16" y="-779.3" font-family="Times,serif" font-size="14.00">kurento_get_name.sh</text>
</g>
<!-- kurento_ci_job_generate_module.sh&#45;&gt;kurento_get_name.sh -->
<g id="edge28" class="edge">
<title>kurento_ci_job_generate_module.sh&#45;&gt;kurento_get_name.sh</title>
<path fill="none" stroke="black" d="M1214.19,-831.25C1332.48,-819.83 1517.02,-802.02 1625.72,-791.53"/>
<polygon fill="black" stroke="black" points="1626.38,-794.99 1636,-790.54 1625.71,-788.02 1626.38,-794.99"/>
</g>
<!-- kurento_install_server.sh -->
<g id="node34" class="node">
<title>kurento_install_server.sh</title>
<ellipse fill="none" stroke="black" cx="1412.69" cy="-919" rx="98.58" ry="18"/>
<text text-anchor="middle" x="1412.69" y="-915.3" font-family="Times,serif" font-size="14.00">kurento_install_server.sh</text>
</g>
<!-- kurento_ci_job_generate_module.sh&#45;&gt;kurento_install_server.sh -->
<g id="edge29" class="edge">
<title>kurento_ci_job_generate_module.sh&#45;&gt;kurento_install_server.sh</title>
<path fill="none" stroke="black" d="M1156.77,-858.67C1191.15,-868.97 1236.72,-882.08 1277.5,-892 1295.33,-896.34 1314.6,-900.51 1332.84,-904.23"/>
<polygon fill="black" stroke="black" points="1332.35,-907.7 1342.84,-906.25 1333.73,-900.84 1332.35,-907.7"/>
</g>
<!-- kurento_deploy_js.sh -->
<g id="node30" class="node">
<title>kurento_deploy_js.sh</title>
<ellipse fill="none" stroke="black" cx="1101.76" cy="-643" rx="86.38" ry="18"/>
<text text-anchor="middle" x="1101.76" y="-639.3" font-family="Times,serif" font-size="14.00">kurento_deploy_js.sh</text>
</g>
<!-- kurento_ci_job_deploy_js.sh&#45;&gt;kurento_deploy_js.sh -->
<g id="edge25" class="edge">
<title>kurento_ci_job_deploy_js.sh&#45;&gt;kurento_deploy_js.sh</title>
<path fill="none" stroke="black" d="M884.75,-651.65C924.25,-650.07 968.53,-648.3 1006.67,-646.77"/>
<polygon fill="black" stroke="black" points="1006.89,-650.26 1016.74,-646.37 1006.61,-643.27 1006.89,-650.26"/>
</g>
<!-- kurento_git_checkout_name.sh -->
<g id="node35" class="node">
<title>kurento_git_checkout_name.sh</title>
<ellipse fill="none" stroke="black" cx="1715.16" cy="-229" rx="121.58" ry="18"/>
<text text-anchor="middle" x="1715.16" y="-225.3" font-family="Times,serif" font-size="14.00">kurento_git_checkout_name.sh</text>
</g>
<!-- kurento_ci_job_package_debian.sh&#45;&gt;kurento_git_checkout_name.sh -->
<g id="edge30" class="edge">
<title>kurento_ci_job_package_debian.sh&#45;&gt;kurento_git_checkout_name.sh</title>
<path fill="none" stroke="black" d="M1548.11,-229C1559.83,-229 1571.68,-229 1583.37,-229"/>
<polygon fill="black" stroke="black" points="1583.6,-232.5 1593.6,-229 1583.6,-225.5 1583.6,-232.5"/>
</g>
<!-- kurento_git_default_branch.sh -->
<g id="node36" class="node">
<title>kurento_git_default_branch.sh</title>
<ellipse fill="none" stroke="black" cx="2000.74" cy="-298" rx="118.08" ry="18"/>
<text text-anchor="middle" x="2000.74" y="-294.3" font-family="Times,serif" font-size="14.00">kurento_git_default_branch.sh</text>
</g>
<!-- kurento_ci_job_package_debian.sh&#45;&gt;kurento_git_default_branch.sh -->
<g id="edge31" class="edge">
<title>kurento_ci_job_package_debian.sh&#45;&gt;kurento_git_default_branch.sh</title>
<path fill="none" stroke="black" d="M1496.65,-243.13C1524.34,-247.59 1555.39,-252.31 1583.88,-256 1686.22,-269.28 1803.2,-280.76 1886.97,-288.35"/>
<polygon fill="black" stroke="black" points="1886.74,-291.85 1897.01,-289.26 1887.37,-284.87 1886.74,-291.85"/>
</g>
<!-- kurento_ci_aptly_repo_publish.sh -->
<g id="node24" class="node">
<title>kurento_ci_aptly_repo_publish.sh</title>
<ellipse fill="none" stroke="black" cx="1101.76" cy="-202" rx="130.78" ry="18"/>
<text text-anchor="middle" x="1101.76" y="-198.3" font-family="Times,serif" font-size="14.00">kurento_ci_aptly_repo_publish.sh</text>
</g>
<!-- kurento_ci_job_deploy_debian.sh&#45;&gt;kurento_ci_aptly_repo_publish.sh -->
<g id="edge20" class="edge">
<title>kurento_ci_job_deploy_debian.sh&#45;&gt;kurento_ci_aptly_repo_publish.sh</title>
<path fill="none" stroke="black" d="M905.43,-202C923.63,-202 942.4,-202 960.78,-202"/>
<polygon fill="black" stroke="black" points="960.95,-205.5 970.95,-202 960.95,-198.5 960.95,-205.5"/>
</g>
<!-- kurento_ci_job_deploy_docker.sh&#45;&gt;kurento_container_build.sh -->
<g id="edge22" class="edge">
<title>kurento_ci_job_deploy_docker.sh&#45;&gt;kurento_container_build.sh</title>
<path fill="none" stroke="black" d="M887.01,-338.78C922.02,-335.87 960.6,-332.66 995.24,-329.78"/>
<polygon fill="black" stroke="black" points="995.7,-333.25 1005.37,-328.94 995.12,-326.28 995.7,-333.25"/>
</g>
<!-- kurento_ci_job_deploy_docker_asan.sh&#45;&gt;kurento_container_build.sh -->
<g id="edge23" class="edge">
<title>kurento_ci_job_deploy_docker_asan.sh&#45;&gt;kurento_container_build.sh</title>
<path fill="none" stroke="black" d="M866.11,-387.63C885.94,-383.95 906.77,-379.69 926.02,-375 965.89,-365.28 1010.04,-351.61 1043.99,-340.46"/>
<polygon fill="black" stroke="black" points="1045.34,-343.7 1053.73,-337.24 1043.14,-337.06 1045.34,-343.7"/>
</g>
<!-- kurento_ci_github_runner_cleanup.sh -->
<g id="node25" class="node">
<title>kurento_ci_github_runner_cleanup.sh</title>
<ellipse fill="none" stroke="black" cx="146.89" cy="-733" rx="144.07" ry="18"/>
<text text-anchor="middle" x="146.89" y="-729.3" font-family="Times,serif" font-size="14.00">kurento_ci_github_runner_cleanup.sh</text>
</g>
<!-- kurento_ci_github_runner_setup.sh -->
<g id="node26" class="node">
<title>kurento_ci_github_runner_setup.sh</title>
<ellipse fill="none" stroke="black" cx="146.89" cy="-787" rx="135.68" ry="18"/>
<text text-anchor="middle" x="146.89" y="-783.3" font-family="Times,serif" font-size="14.00">kurento_ci_github_runner_setup.sh</text>
</g>
<!-- kurento_ci_job_deploy_debian_test.sh -->
<g id="node27" class="node">
<title>kurento_ci_job_deploy_debian_test.sh</title>
<ellipse fill="none" stroke="black" cx="146.89" cy="-841" rx="146.77" ry="18"/>
<text text-anchor="middle" x="146.89" y="-837.3" font-family="Times,serif" font-size="14.00">kurento_ci_job_deploy_debian_test.sh</text>
</g>
<!-- kurento_check_version.sh -->
<g id="node40" class="node">
<title>kurento_check_version.sh</title>
<ellipse fill="none" stroke="black" cx="1715.16" cy="-489" rx="102.88" ry="18"/>
<text text-anchor="middle" x="1715.16" y="-485.3" font-family="Times,serif" font-size="14.00">kurento_check_version.sh</text>
</g>
<!-- kurento_doc_deploy.sh&#45;&gt;kurento_check_version.sh -->
<g id="edge46" class="edge">
<title>kurento_doc_deploy.sh&#45;&gt;kurento_check_version.sh</title>
<path fill="none" stroke="black" d="M1486.04,-454.08C1528.5,-460.58 1582.43,-468.83 1627.2,-475.69"/>
<polygon fill="black" stroke="black" points="1626.77,-479.16 1637.19,-477.22 1627.83,-472.24 1626.77,-479.16"/>
</g>
<!-- kurento_get_version.sh -->
<g id="node44" class="node">
<title>kurento_get_version.sh</title>
<ellipse fill="none" stroke="black" cx="2000.74" cy="-589" rx="92.88" ry="18"/>
<text text-anchor="middle" x="2000.74" y="-585.3" font-family="Times,serif" font-size="14.00">kurento_get_version.sh</text>
</g>
<!-- kurento_doc_deploy.sh&#45;&gt;kurento_get_version.sh -->
<g id="edge47" class="edge">
<title>kurento_doc_deploy.sh&#45;&gt;kurento_get_version.sh</title>
<path fill="none" stroke="black" d="M1487.78,-432.34C1576.35,-422.69 1727.51,-416.16 1846.45,-462 1901.51,-483.22 1951.32,-532.63 1978.38,-563.19"/>
<polygon fill="black" stroke="black" points="1975.88,-565.64 1985.08,-570.89 1981.16,-561.05 1975.88,-565.64"/>
</g>
<!-- kurento_maven_deploy.sh&#45;&gt;kurento_check_version.sh -->
<g id="edge50" class="edge">
<title>kurento_maven_deploy.sh&#45;&gt;kurento_check_version.sh</title>
<path fill="none" stroke="black" d="M1491.07,-523.15C1532.77,-516.77 1584.35,-508.87 1627.41,-502.28"/>
<polygon fill="black" stroke="black" points="1627.95,-505.74 1637.31,-500.77 1626.89,-498.82 1627.95,-505.74"/>
</g>
<!-- kurento_maven_deploy.sh&#45;&gt;kurento_get_version.sh -->
<g id="edge51" class="edge">
<title>kurento_maven_deploy.sh&#45;&gt;kurento_get_version.sh</title>
<path fill="none" stroke="black" d="M1482.01,-548.47C1503.14,-552.71 1526.49,-557.47 1547.88,-562 1563.91,-565.39 1567.63,-567.84 1583.88,-570 1690.24,-584.14 1813.1,-588.27 1897.56,-589.24"/>
<polygon fill="black" stroke="black" points="1897.62,-592.74 1907.66,-589.35 1897.7,-585.75 1897.62,-592.74"/>
</g>
<!-- kurento_maven_deploy_github.sh -->
<g id="node47" class="node">
<title>kurento_maven_deploy_github.sh</title>
<ellipse fill="none" stroke="black" cx="1715.16" cy="-543" rx="131.08" ry="18"/>
<text text-anchor="middle" x="1715.16" y="-539.3" font-family="Times,serif" font-size="14.00">kurento_maven_deploy_github.sh</text>
</g>
<!-- kurento_maven_deploy.sh&#45;&gt;kurento_maven_deploy_github.sh -->
<g id="edge52" class="edge">
<title>kurento_maven_deploy.sh&#45;&gt;kurento_maven_deploy_github.sh</title>
<path fill="none" stroke="black" d="M1515.83,-537.72C1535.19,-538.23 1555.74,-538.78 1575.99,-539.32"/>
<polygon fill="black" stroke="black" points="1576.14,-542.83 1586.23,-539.59 1576.32,-535.83 1576.14,-542.83"/>
</g>
<!-- kurento_deploy_js.sh&#45;&gt;kurento_maven_deploy.sh -->
<g id="edge35" class="edge">
<title>kurento_deploy_js.sh&#45;&gt;kurento_maven_deploy.sh</title>
<path fill="none" stroke="black" d="M1141.78,-626.99C1169.83,-615.2 1208.39,-598.43 1241.5,-582 1257.89,-573.86 1260.32,-568.32 1277.5,-562 1291.86,-556.71 1307.49,-552.38 1322.83,-548.85"/>
<polygon fill="black" stroke="black" points="1323.84,-552.21 1332.86,-546.64 1322.34,-545.37 1323.84,-552.21"/>
</g>
<!-- kurento_deploy_js.sh&#45;&gt;kurento_get_name.sh -->
<g id="edge36" class="edge">
<title>kurento_deploy_js.sh&#45;&gt;kurento_get_name.sh</title>
<path fill="none" stroke="black" d="M1121.26,-660.86C1151.21,-688.47 1213.46,-740.57 1277.5,-762 1338.31,-782.35 1509.09,-784.99 1618.17,-784.43"/>
<polygon fill="black" stroke="black" points="1618.22,-787.92 1628.2,-784.36 1618.18,-780.93 1618.22,-787.92"/>
</g>
<!-- kurento_deploy_js.sh&#45;&gt;kurento_check_version.sh -->
<g id="edge37" class="edge">
<title>kurento_deploy_js.sh&#45;&gt;kurento_check_version.sh</title>
<path fill="none" stroke="black" d="M1156.97,-629C1184.97,-619.52 1218.08,-604.53 1241.5,-582 1267.85,-556.64 1246.92,-528.07 1277.5,-508 1330.18,-473.43 1498.26,-475.72 1609.86,-481.59"/>
<polygon fill="black" stroke="black" points="1609.96,-485.1 1620.14,-482.15 1610.34,-478.11 1609.96,-485.1"/>
</g>
<!-- kurento_deploy_js_bower.sh -->
<g id="node41" class="node">
<title>kurento_deploy_js_bower.sh</title>
<ellipse fill="none" stroke="black" cx="1412.69" cy="-380" rx="112.38" ry="18"/>
<text text-anchor="middle" x="1412.69" y="-376.3" font-family="Times,serif" font-size="14.00">kurento_deploy_js_bower.sh</text>
</g>
<!-- kurento_deploy_js.sh&#45;&gt;kurento_deploy_js_bower.sh -->
<g id="edge38" class="edge">
<title>kurento_deploy_js.sh&#45;&gt;kurento_deploy_js_bower.sh</title>
<path fill="none" stroke="black" d="M1162.41,-630.12C1190.32,-621.13 1221.69,-606.25 1241.5,-582 1289.27,-523.54 1225.43,-470.66 1277.5,-416 1286.65,-406.4 1298.06,-399.26 1310.33,-393.97"/>
<polygon fill="black" stroke="black" points="1311.81,-397.15 1319.87,-390.27 1309.28,-390.62 1311.81,-397.15"/>
</g>
<!-- kurento_deploy_js_http.sh -->
<g id="node42" class="node">
<title>kurento_deploy_js_http.sh</title>
<ellipse fill="none" stroke="black" cx="1412.69" cy="-643" rx="104.78" ry="18"/>
<text text-anchor="middle" x="1412.69" y="-639.3" font-family="Times,serif" font-size="14.00">kurento_deploy_js_http.sh</text>
</g>
<!-- kurento_deploy_js.sh&#45;&gt;kurento_deploy_js_http.sh -->
<g id="edge39" class="edge">
<title>kurento_deploy_js.sh&#45;&gt;kurento_deploy_js_http.sh</title>
<path fill="none" stroke="black" d="M1188.4,-643C1222.27,-643 1261.69,-643 1297.9,-643"/>
<polygon fill="black" stroke="black" points="1298.02,-646.5 1308.02,-643 1298.02,-639.5 1298.02,-646.5"/>
</g>
<!-- kurento_deploy_js_npm.sh -->
<g id="node43" class="node">
<title>kurento_deploy_js_npm.sh</title>
<ellipse fill="none" stroke="black" cx="1412.69" cy="-589" rx="106.68" ry="18"/>
<text text-anchor="middle" x="1412.69" y="-585.3" font-family="Times,serif" font-size="14.00">kurento_deploy_js_npm.sh</text>
</g>
<!-- kurento_deploy_js.sh&#45;&gt;kurento_deploy_js_npm.sh -->
<g id="edge40" class="edge">
<title>kurento_deploy_js.sh&#45;&gt;kurento_deploy_js_npm.sh</title>
<path fill="none" stroke="black" d="M1168.66,-631.48C1215.16,-623.35 1277.83,-612.4 1327.89,-603.65"/>
<polygon fill="black" stroke="black" points="1328.8,-607.04 1338.05,-601.87 1327.59,-600.15 1328.8,-607.04"/>
</g>
<!-- kurento_deploy_js.sh&#45;&gt;kurento_get_version.sh -->
<g id="edge41" class="edge">
<title>kurento_deploy_js.sh&#45;&gt;kurento_get_version.sh</title>
<path fill="none" stroke="black" d="M1165.99,-655.16C1199.06,-660.92 1240.31,-667.14 1277.5,-670 1397.31,-679.2 1428.18,-680.64 1547.88,-670 1685.28,-657.78 1843.43,-625.06 1931.48,-605.14"/>
<polygon fill="black" stroke="black" points="1932.36,-608.53 1941.34,-602.9 1930.81,-601.71 1932.36,-608.53"/>
</g>
<!-- kurento_mavenize_js_project.sh -->
<g id="node45" class="node">
<title>kurento_mavenize_js_project.sh</title>
<ellipse fill="none" stroke="black" cx="1412.69" cy="-735" rx="125.38" ry="18"/>
<text text-anchor="middle" x="1412.69" y="-731.3" font-family="Times,serif" font-size="14.00">kurento_mavenize_js_project.sh</text>
</g>
<!-- kurento_deploy_js.sh&#45;&gt;kurento_mavenize_js_project.sh -->
<g id="edge42" class="edge">
<title>kurento_deploy_js.sh&#45;&gt;kurento_mavenize_js_project.sh</title>
<path fill="none" stroke="black" d="M1144.77,-658.7C1179.94,-671.54 1231.6,-689.68 1277.5,-703 1295.44,-708.21 1314.9,-713.21 1333.29,-717.65"/>
<polygon fill="black" stroke="black" points="1332.55,-721.07 1343.09,-719.99 1334.17,-714.26 1332.55,-721.07"/>
</g>
<!-- kurento_generate_js_module.sh&#45;&gt;kurento_get_name.sh -->
<g id="edge48" class="edge">
<title>kurento_generate_js_module.sh&#45;&gt;kurento_get_name.sh</title>
<path fill="none" stroke="black" d="M1480.43,-849.89C1502.02,-844.79 1526.02,-838.89 1547.88,-833 1584.41,-823.16 1625.09,-810.95 1657.08,-801.06"/>
<polygon fill="black" stroke="black" points="1658.19,-804.38 1666.71,-798.07 1656.12,-797.69 1658.19,-804.38"/>
</g>
<!-- kurento_generate_js_module.sh&#45;&gt;kurento_get_version.sh -->
<g id="edge49" class="edge">
<title>kurento_generate_js_module.sh&#45;&gt;kurento_get_version.sh</title>
<path fill="none" stroke="black" d="M1517.56,-874.58C1610.38,-878.12 1746.74,-870.5 1846.45,-810 1922.11,-764.09 1969.76,-665.04 1989.4,-616.68"/>
<polygon fill="black" stroke="black" points="1992.74,-617.76 1993.17,-607.17 1986.23,-615.18 1992.74,-617.76"/>
</g>
<!-- kurento_git_checkout_name.sh&#45;&gt;kurento_git_default_branch.sh -->
<g id="edge57" class="edge">
<title>kurento_git_checkout_name.sh&#45;&gt;kurento_git_default_branch.sh</title>
<path fill="none" stroke="black" d="M1779.1,-244.31C1822.88,-254.97 1881.37,-269.2 1927.13,-280.33"/>
<polygon fill="black" stroke="black" points="1926.44,-283.77 1936.98,-282.73 1928.09,-276.96 1926.44,-283.77"/>
</g>
<!-- server/bin/make&#45;dev&#45;container.sh -->
<g id="node38" class="node">
<title>server/bin/make&#45;dev&#45;container.sh</title>
<ellipse fill="none" stroke="black" cx="459.11" cy="-72" rx="128.88" ry="18"/>
<text text-anchor="middle" x="459.11" y="-68.3" font-family="Times,serif" font-size="14.00">server/bin/make&#45;dev&#45;container.sh</text>
</g>
<!-- server/bin/make&#45;dev&#45;container.sh&#45;&gt;kurento&#45;buildpackage.sh -->
<g id="edge33" class="edge">
<title>server/bin/make&#45;dev&#45;container.sh&#45;&gt;kurento&#45;buildpackage.sh</title>
<path fill="none" stroke="black" d="M569.1,-62.63C603.86,-59.64 642.11,-56.36 676.06,-53.44"/>
<polygon fill="black" stroke="black" points="676.79,-56.89 686.45,-52.55 676.19,-49.91 676.79,-56.89"/>
</g>
<!-- kurento_check_version.sh&#45;&gt;kurento_get_version.sh -->
<g id="edge55" class="edge">
<title>kurento_check_version.sh&#45;&gt;kurento_get_version.sh</title>
<path fill="none" stroke="black" d="M1790.71,-501.24C1809.16,-505.14 1828.72,-510.04 1846.45,-516 1886.71,-529.54 1930.21,-550.96 1960.55,-567.11"/>
<polygon fill="black" stroke="black" points="1959.06,-570.28 1969.53,-571.93 1962.38,-564.12 1959.06,-570.28"/>
</g>
<!-- kurento_deploy_js_bower.sh&#45;&gt;kurento_git_default_branch.sh -->
<g id="edge43" class="edge">
<title>kurento_deploy_js_bower.sh&#45;&gt;kurento_git_default_branch.sh</title>
<path fill="none" stroke="black" d="M1525.4,-379.12C1613.38,-376.66 1738.72,-369.23 1846.45,-348 1881,-341.19 1918.6,-329 1947.92,-318.37"/>
<polygon fill="black" stroke="black" points="1949.35,-321.57 1957.53,-314.83 1946.93,-315 1949.35,-321.57"/>
</g>
<!-- kurento_deploy_js_bower.sh&#45;&gt;kurento_get_version.sh -->
<g id="edge44" class="edge">
<title>kurento_deploy_js_bower.sh&#45;&gt;kurento_get_version.sh</title>
<path fill="none" stroke="black" d="M1524.77,-381.51C1633.96,-384.6 1791.92,-393.79 1846.45,-421 1910.4,-452.9 1960.54,-523.67 1984.44,-562.4"/>
<polygon fill="black" stroke="black" points="1981.51,-564.31 1989.68,-571.06 1987.5,-560.69 1981.51,-564.31"/>
</g>
<!-- kurento_clone_repo.sh -->
<g id="node46" class="node">
<title>kurento_clone_repo.sh</title>
<ellipse fill="none" stroke="black" cx="1715.16" cy="-321" rx="90.98" ry="18"/>
<text text-anchor="middle" x="1715.16" y="-317.3" font-family="Times,serif" font-size="14.00">kurento_clone_repo.sh</text>
</g>
<!-- kurento_deploy_js_bower.sh&#45;&gt;kurento_clone_repo.sh -->
<g id="edge45" class="edge">
<title>kurento_deploy_js_bower.sh&#45;&gt;kurento_clone_repo.sh</title>
<path fill="none" stroke="black" d="M1484.52,-366.09C1531.33,-356.9 1592.58,-344.87 1640.05,-335.55"/>
<polygon fill="black" stroke="black" points="1640.82,-338.97 1649.96,-333.61 1639.47,-332.1 1640.82,-338.97"/>
</g>
<!-- kurento_mavenize_js_project.sh&#45;&gt;kurento_get_name.sh -->
<g id="edge53" class="edge">
<title>kurento_mavenize_js_project.sh&#45;&gt;kurento_get_name.sh</title>
<path fill="none" stroke="black" d="M1497.39,-748.37C1540.63,-755.28 1593.09,-763.66 1635.58,-770.45"/>
<polygon fill="black" stroke="black" points="1635.16,-773.92 1645.59,-772.05 1636.27,-767.01 1635.16,-773.92"/>
</g>
<!-- kurento_mavenize_js_project.sh&#45;&gt;kurento_get_version.sh -->
<g id="edge54" class="edge">
<title>kurento_mavenize_js_project.sh&#45;&gt;kurento_get_version.sh</title>
<path fill="none" stroke="black" d="M1523.53,-743.49C1613.22,-746.56 1741.79,-741.99 1846.45,-703 1898.15,-683.74 1947.39,-641.37 1975.54,-614.06"/>
<polygon fill="black" stroke="black" points="1978.24,-616.3 1982.9,-606.79 1973.33,-611.32 1978.24,-616.3"/>
</g>
<!-- kurento_clone_repo.sh&#45;&gt;kurento_git_default_branch.sh -->
<g id="edge56" class="edge">
<title>kurento_clone_repo.sh&#45;&gt;kurento_git_default_branch.sh</title>
<path fill="none" stroke="black" d="M1799.71,-314.22C1826.68,-312.04 1857.04,-309.57 1885.81,-307.24"/>
<polygon fill="black" stroke="black" points="1886.23,-310.72 1895.91,-306.42 1885.66,-303.74 1886.23,-310.72"/>
</g>
<!-- kurento_update_test_files.sh -->
<g id="node48" class="node">
<title>kurento_update_test_files.sh</title>
<ellipse fill="none" stroke="black" cx="146.89" cy="-895" rx="111.58" ry="18"/>
<text text-anchor="middle" x="146.89" y="-891.3" font-family="Times,serif" font-size="14.00">kurento_update_test_files.sh</text>
</g>
</g>
</svg>
