<?xml version="1.0" encoding="UTF-8" standalone="no"?>
<!DOCTYPE svg PUBLIC "-//W3C//DTD SVG 1.1//EN"
 "http://www.w3.org/Graphics/SVG/1.1/DTD/svg11.dtd">
<!-- Generated by graphviz version 2.43.0 (0)
 -->
<!-- Title: scripts Pages: 1 -->
<svg width="1816pt" height="999pt"
 viewBox="0.00 0.00 1816.36 999.00" xmlns="http://www.w3.org/2000/svg" xmlns:xlink="http://www.w3.org/1999/xlink">
<g id="graph0" class="graph" transform="scale(1 1) rotate(0) translate(4 995)">
<title>scripts</title>
<polygon fill="white" stroke="transparent" points="-4,4 -4,-995 1812.36,-995 1812.36,4 -4,4"/>
<!-- clients&#45;java.parent.yaml -->
<g id="node1" class="node">
<title>clients&#45;java.parent.yaml</title>
<ellipse fill="none" stroke="black" cx="134.54" cy="-582" rx="96.38" ry="18"/>
<text text-anchor="middle" x="134.54" y="-578.3" font-family="Times,serif" font-size="14.00">clients&#45;java.parent.yaml</text>
</g>
<!-- clients&#45;java.child.yaml -->
<g id="node7" class="node">
<title>clients&#45;java.child.yaml</title>
<ellipse fill="none" stroke="black" cx="718.04" cy="-582" rx="91.78" ry="18"/>
<text text-anchor="middle" x="718.04" y="-578.3" font-family="Times,serif" font-size="14.00">clients&#45;java.child.yaml</text>
</g>
<!-- clients&#45;java.parent.yaml&#45;&gt;clients&#45;java.child.yaml -->
<g id="edge1" class="edge">
<title>clients&#45;java.parent.yaml&#45;&gt;clients&#45;java.child.yaml</title>
<path fill="none" stroke="black" d="M230.91,-582C336.88,-582 507.3,-582 615.65,-582"/>
<polygon fill="black" stroke="black" points="615.93,-585.5 625.93,-582 615.93,-578.5 615.93,-585.5"/>
</g>
<!-- clients&#45;javascript.parent.yaml -->
<g id="node2" class="node">
<title>clients&#45;javascript.parent.yaml</title>
<ellipse fill="none" stroke="black" cx="134.54" cy="-679" rx="115.88" ry="18"/>
<text text-anchor="middle" x="134.54" y="-675.3" font-family="Times,serif" font-size="14.00">clients&#45;javascript.parent.yaml</text>
</g>
<!-- clients&#45;javascript.child.yaml -->
<g id="node8" class="node">
<title>clients&#45;javascript.child.yaml</title>
<ellipse fill="none" stroke="black" cx="433.76" cy="-679" rx="111.28" ry="18"/>
<text text-anchor="middle" x="433.76" y="-675.3" font-family="Times,serif" font-size="14.00">clients&#45;javascript.child.yaml</text>
</g>
<!-- clients&#45;javascript.parent.yaml&#45;&gt;clients&#45;javascript.child.yaml -->
<g id="edge2" class="edge">
<title>clients&#45;javascript.parent.yaml&#45;&gt;clients&#45;javascript.child.yaml</title>
<path fill="none" stroke="black" d="M250.45,-679C270.72,-679 291.86,-679 312.27,-679"/>
<polygon fill="black" stroke="black" points="312.55,-682.5 322.55,-679 312.55,-675.5 312.55,-682.5"/>
</g>
<!-- doc&#45;kurento.yaml -->
<g id="node3" class="node">
<title>doc&#45;kurento.yaml</title>
<ellipse fill="none" stroke="black" cx="134.54" cy="-448" rx="73.39" ry="18"/>
<text text-anchor="middle" x="134.54" y="-444.3" font-family="Times,serif" font-size="14.00">doc&#45;kurento.yaml</text>
</g>
<!-- ci_job_deploy_doc.sh -->
<g id="node9" class="node">
<title>ci_job_deploy_doc.sh</title>
<ellipse fill="none" stroke="black" cx="433.76" cy="-448" rx="88.28" ry="18"/>
<text text-anchor="middle" x="433.76" y="-444.3" font-family="Times,serif" font-size="14.00">ci_job_deploy_doc.sh</text>
</g>
<!-- doc&#45;kurento.yaml&#45;&gt;ci_job_deploy_doc.sh -->
<g id="edge3" class="edge">
<title>doc&#45;kurento.yaml&#45;&gt;ci_job_deploy_doc.sh</title>
<path fill="none" stroke="black" d="M208.25,-448C246.43,-448 293.76,-448 335.1,-448"/>
<polygon fill="black" stroke="black" points="335.19,-451.5 345.19,-448 335.19,-444.5 335.19,-451.5"/>
</g>
<!-- docker&#45;kurento&#45;buildpackage.yaml -->
<g id="node4" class="node">
<title>docker&#45;kurento&#45;buildpackage.yaml</title>
<ellipse fill="none" stroke="black" cx="134.54" cy="-83" rx="134.58" ry="18"/>
<text text-anchor="middle" x="134.54" y="-79.3" font-family="Times,serif" font-size="14.00">docker&#45;kurento&#45;buildpackage.yaml</text>
</g>
<!-- container_build.sh -->
<g id="node10" class="node">
<title>container_build.sh</title>
<ellipse fill="none" stroke="black" cx="995.82" cy="-321" rx="76.09" ry="18"/>
<text text-anchor="middle" x="995.82" y="-317.3" font-family="Times,serif" font-size="14.00">container_build.sh</text>
</g>
<!-- docker&#45;kurento&#45;buildpackage.yaml&#45;&gt;container_build.sh -->
<g id="edge4" class="edge">
<title>docker&#45;kurento&#45;buildpackage.yaml&#45;&gt;container_build.sh</title>
<path fill="none" stroke="black" d="M239.43,-94.33C428.68,-115.29 812.53,-159.38 837.63,-175 862.12,-190.24 853.87,-207.99 873.63,-229 899.21,-256.2 933.48,-281.41 959.06,-298.53"/>
<polygon fill="black" stroke="black" points="957.44,-301.66 967.71,-304.24 961.29,-295.81 957.44,-301.66"/>
</g>
<!-- docker/kurento&#45;buildpackage -->
<g id="node11" class="node">
<title>docker/kurento&#45;buildpackage</title>
<ellipse fill="none" stroke="black" cx="433.76" cy="-18" rx="113.98" ry="18"/>
<text text-anchor="middle" x="433.76" y="-14.3" font-family="Times,serif" font-size="14.00">docker/kurento&#45;buildpackage</text>
</g>
<!-- docker&#45;kurento&#45;buildpackage.yaml&#45;&gt;docker/kurento&#45;buildpackage -->
<g id="edge5" class="edge">
<title>docker&#45;kurento&#45;buildpackage.yaml&#45;&gt;docker/kurento&#45;buildpackage</title>
<path fill="none" stroke="black" d="M203.96,-67.47C234.84,-60.51 271.77,-52.25 305.08,-45 321.03,-41.53 338.11,-37.87 354.43,-34.41"/>
<polygon fill="black" stroke="black" points="355.42,-37.78 364.48,-32.28 353.97,-30.93 355.42,-37.78"/>
</g>
<!-- docker&#45;kurento&#45;ci&#45;buildtools.yaml -->
<g id="node5" class="node">
<title>docker&#45;kurento&#45;ci&#45;buildtools.yaml</title>
<ellipse fill="none" stroke="black" cx="134.54" cy="-302" rx="131.88" ry="18"/>
<text text-anchor="middle" x="134.54" y="-298.3" font-family="Times,serif" font-size="14.00">docker&#45;kurento&#45;ci&#45;buildtools.yaml</text>
</g>
<!-- docker&#45;kurento&#45;ci&#45;buildtools.yaml&#45;&gt;container_build.sh -->
<g id="edge6" class="edge">
<title>docker&#45;kurento&#45;ci&#45;buildtools.yaml&#45;&gt;container_build.sh</title>
<path fill="none" stroke="black" d="M265.11,-304.87C443.28,-308.8 758.96,-315.78 909.87,-319.12"/>
<polygon fill="black" stroke="black" points="909.93,-322.62 920.01,-319.35 910.09,-315.63 909.93,-322.62"/>
</g>
<!-- server.parent.yaml -->
<g id="node6" class="node">
<title>server.parent.yaml</title>
<ellipse fill="none" stroke="black" cx="134.54" cy="-225" rx="76.89" ry="18"/>
<text text-anchor="middle" x="134.54" y="-221.3" font-family="Times,serif" font-size="14.00">server.parent.yaml</text>
</g>
<!-- server&#45;buildpackage.child.yaml -->
<g id="node12" class="node">
<title>server&#45;buildpackage.child.yaml</title>
<ellipse fill="none" stroke="black" cx="995.82" cy="-133" rx="122.38" ry="18"/>
<text text-anchor="middle" x="995.82" y="-129.3" font-family="Times,serif" font-size="14.00">server&#45;buildpackage.child.yaml</text>
</g>
<!-- server.parent.yaml&#45;&gt;server&#45;buildpackage.child.yaml -->
<g id="edge7" class="edge">
<title>server.parent.yaml&#45;&gt;server&#45;buildpackage.child.yaml</title>
<path fill="none" stroke="black" d="M177.06,-209.89C211,-198.23 260.49,-182.83 305.08,-175 497.3,-141.25 723.75,-133.43 863.31,-132.22"/>
<polygon fill="black" stroke="black" points="863.64,-135.72 873.62,-132.14 863.59,-128.72 863.64,-135.72"/>
</g>
<!-- server&#45;deploy&#45;aws.child.yaml -->
<g id="node13" class="node">
<title>server&#45;deploy&#45;aws.child.yaml</title>
<ellipse fill="none" stroke="black" cx="433.76" cy="-256" rx="116.18" ry="18"/>
<text text-anchor="middle" x="433.76" y="-252.3" font-family="Times,serif" font-size="14.00">server&#45;deploy&#45;aws.child.yaml</text>
</g>
<!-- server.parent.yaml&#45;&gt;server&#45;deploy&#45;aws.child.yaml -->
<g id="edge8" class="edge">
<title>server.parent.yaml&#45;&gt;server&#45;deploy&#45;aws.child.yaml</title>
<path fill="none" stroke="black" d="M204.85,-232.23C241.06,-236.01 286.16,-240.71 326.66,-244.93"/>
<polygon fill="black" stroke="black" points="326.54,-248.44 336.85,-246 327.27,-241.48 326.54,-248.44"/>
</g>
<!-- server&#45;deploy&#45;debian.child.yaml -->
<g id="node14" class="node">
<title>server&#45;deploy&#45;debian.child.yaml</title>
<ellipse fill="none" stroke="black" cx="433.76" cy="-202" rx="126.18" ry="18"/>
<text text-anchor="middle" x="433.76" y="-198.3" font-family="Times,serif" font-size="14.00">server&#45;deploy&#45;debian.child.yaml</text>
</g>
<!-- server.parent.yaml&#45;&gt;server&#45;deploy&#45;debian.child.yaml -->
<g id="edge9" class="edge">
<title>server.parent.yaml&#45;&gt;server&#45;deploy&#45;debian.child.yaml</title>
<path fill="none" stroke="black" d="M207.49,-219.43C239.05,-216.99 276.97,-214.06 312.62,-211.3"/>
<polygon fill="black" stroke="black" points="312.91,-214.79 322.61,-210.52 312.37,-207.81 312.91,-214.79"/>
</g>
<!-- server&#45;deploy&#45;docker.child.yaml -->
<g id="node15" class="node">
<title>server&#45;deploy&#45;docker.child.yaml</title>
<ellipse fill="none" stroke="black" cx="433.76" cy="-348" rx="126.18" ry="18"/>
<text text-anchor="middle" x="433.76" y="-344.3" font-family="Times,serif" font-size="14.00">server&#45;deploy&#45;docker.child.yaml</text>
</g>
<!-- server.parent.yaml&#45;&gt;server&#45;deploy&#45;docker.child.yaml -->
<g id="edge10" class="edge">
<title>server.parent.yaml&#45;&gt;server&#45;deploy&#45;docker.child.yaml</title>
<path fill="none" stroke="black" d="M177.6,-240C204.02,-249.61 238.72,-262.56 269.08,-275 309.17,-291.43 354.08,-311.58 386.7,-326.55"/>
<polygon fill="black" stroke="black" points="385.44,-329.82 395.99,-330.82 388.37,-323.46 385.44,-329.82"/>
</g>
<!-- ci_job_deploy_java.sh -->
<g id="node16" class="node">
<title>ci_job_deploy_java.sh</title>
<ellipse fill="none" stroke="black" cx="995.82" cy="-555" rx="90.18" ry="18"/>
<text text-anchor="middle" x="995.82" y="-551.3" font-family="Times,serif" font-size="14.00">ci_job_deploy_java.sh</text>
</g>
<!-- clients&#45;java.child.yaml&#45;&gt;ci_job_deploy_java.sh -->
<g id="edge11" class="edge">
<title>clients&#45;java.child.yaml&#45;&gt;ci_job_deploy_java.sh</title>
<path fill="none" stroke="black" d="M800.29,-574.05C832.83,-570.86 870.47,-567.17 903.92,-563.9"/>
<polygon fill="black" stroke="black" points="904.54,-567.36 914.15,-562.9 903.86,-560.39 904.54,-567.36"/>
</g>
<!-- ci_job_generate_module.sh -->
<g id="node17" class="node">
<title>ci_job_generate_module.sh</title>
<ellipse fill="none" stroke="black" cx="995.82" cy="-842" rx="108.58" ry="18"/>
<text text-anchor="middle" x="995.82" y="-838.3" font-family="Times,serif" font-size="14.00">ci_job_generate_module.sh</text>
</g>
<!-- clients&#45;java.child.yaml&#45;&gt;ci_job_generate_module.sh -->
<g id="edge12" class="edge">
<title>clients&#45;java.child.yaml&#45;&gt;ci_job_generate_module.sh</title>
<path fill="none" stroke="black" d="M773.42,-596.43C794.84,-603.86 818.77,-614.48 837.63,-629 855.57,-642.81 939.01,-761.54 976.5,-815.5"/>
<polygon fill="black" stroke="black" points="973.74,-817.66 982.31,-823.88 979.49,-813.67 973.74,-817.66"/>
</g>
<!-- clients&#45;javascript.child.yaml&#45;&gt;ci_job_generate_module.sh -->
<g id="edge13" class="edge">
<title>clients&#45;javascript.child.yaml&#45;&gt;ci_job_generate_module.sh</title>
<path fill="none" stroke="black" d="M488.72,-694.7C592.64,-724.95 820.09,-791.15 931.2,-823.48"/>
<polygon fill="black" stroke="black" points="930.35,-826.88 940.93,-826.32 932.31,-820.16 930.35,-826.88"/>
</g>
<!-- ci_job_deploy_js.sh -->
<g id="node18" class="node">
<title>ci_job_deploy_js.sh</title>
<ellipse fill="none" stroke="black" cx="718.04" cy="-656" rx="81.49" ry="18"/>
<text text-anchor="middle" x="718.04" y="-652.3" font-family="Times,serif" font-size="14.00">ci_job_deploy_js.sh</text>
</g>
<!-- clients&#45;javascript.child.yaml&#45;&gt;ci_job_deploy_js.sh -->
<g id="edge14" class="edge">
<title>clients&#45;javascript.child.yaml&#45;&gt;ci_job_deploy_js.sh</title>
<path fill="none" stroke="black" d="M533.49,-670.96C565.34,-668.36 600.38,-665.51 631.22,-662.99"/>
<polygon fill="black" stroke="black" points="631.82,-666.46 641.51,-662.15 631.26,-659.48 631.82,-666.46"/>
</g>
<!-- doc_deploy.sh -->
<g id="node28" class="node">
<title>doc_deploy.sh</title>
<ellipse fill="none" stroke="black" cx="1258" cy="-443" rx="61.99" ry="18"/>
<text text-anchor="middle" x="1258" y="-439.3" font-family="Times,serif" font-size="14.00">doc_deploy.sh</text>
</g>
<!-- ci_job_deploy_doc.sh&#45;&gt;doc_deploy.sh -->
<g id="edge21" class="edge">
<title>ci_job_deploy_doc.sh&#45;&gt;doc_deploy.sh</title>
<path fill="none" stroke="black" d="M522.37,-447.47C686.19,-446.47 1035.91,-444.34 1186.08,-443.43"/>
<polygon fill="black" stroke="black" points="1186.14,-446.93 1196.12,-443.37 1186.09,-439.93 1186.14,-446.93"/>
</g>
<!-- parse_yaml.sh -->
<g id="node39" class="node">
<title>parse_yaml.sh</title>
<ellipse fill="none" stroke="black" cx="1258" cy="-321" rx="61.99" ry="18"/>
<text text-anchor="middle" x="1258" y="-317.3" font-family="Times,serif" font-size="14.00">parse_yaml.sh</text>
</g>
<!-- container_build.sh&#45;&gt;parse_yaml.sh -->
<g id="edge34" class="edge">
<title>container_build.sh&#45;&gt;parse_yaml.sh</title>
<path fill="none" stroke="black" d="M1072.08,-321C1107.86,-321 1150.43,-321 1185.7,-321"/>
<polygon fill="black" stroke="black" points="1185.91,-324.5 1195.91,-321 1185.91,-317.5 1185.91,-324.5"/>
</g>
<!-- kurento&#45;buildpackage.sh -->
<g id="node37" class="node">
<title>kurento&#45;buildpackage.sh</title>
<ellipse fill="none" stroke="black" cx="718.04" cy="-45" rx="97.48" ry="18"/>
<text text-anchor="middle" x="718.04" y="-41.3" font-family="Times,serif" font-size="14.00">kurento&#45;buildpackage.sh</text>
</g>
<!-- docker/kurento&#45;buildpackage&#45;&gt;kurento&#45;buildpackage.sh -->
<g id="edge32" class="edge">
<title>docker/kurento&#45;buildpackage&#45;&gt;kurento&#45;buildpackage.sh</title>
<path fill="none" stroke="black" d="M531.51,-27.25C560.35,-30.01 591.94,-33.03 620.75,-35.79"/>
<polygon fill="black" stroke="black" points="620.53,-39.28 630.82,-36.75 621.2,-32.32 620.53,-39.28"/>
</g>
<!-- ci_job_package_debian.sh -->
<g id="node19" class="node">
<title>ci_job_package_debian.sh</title>
<ellipse fill="none" stroke="black" cx="1258" cy="-229" rx="103.98" ry="18"/>
<text text-anchor="middle" x="1258" y="-225.3" font-family="Times,serif" font-size="14.00">ci_job_package_debian.sh</text>
</g>
<!-- server&#45;buildpackage.child.yaml&#45;&gt;ci_job_package_debian.sh -->
<g id="edge15" class="edge">
<title>server&#45;buildpackage.child.yaml&#45;&gt;ci_job_package_debian.sh</title>
<path fill="none" stroke="black" d="M1045.62,-149.45C1067.78,-157.04 1094.29,-166.28 1118.01,-175 1147.44,-185.81 1180.14,-198.48 1206.42,-208.83"/>
<polygon fill="black" stroke="black" points="1205.21,-212.12 1215.8,-212.53 1207.78,-205.6 1205.21,-212.12"/>
</g>
<!-- ci_job_deploy_aws_cf.sh -->
<g id="node20" class="node">
<title>ci_job_deploy_aws_cf.sh</title>
<ellipse fill="none" stroke="black" cx="718.04" cy="-256" rx="100.98" ry="18"/>
<text text-anchor="middle" x="718.04" y="-252.3" font-family="Times,serif" font-size="14.00">ci_job_deploy_aws_cf.sh</text>
</g>
<!-- server&#45;deploy&#45;aws.child.yaml&#45;&gt;ci_job_deploy_aws_cf.sh -->
<g id="edge16" class="edge">
<title>server&#45;deploy&#45;aws.child.yaml&#45;&gt;ci_job_deploy_aws_cf.sh</title>
<path fill="none" stroke="black" d="M550.39,-256C569.02,-256 588.26,-256 606.76,-256"/>
<polygon fill="black" stroke="black" points="606.95,-259.5 616.95,-256 606.95,-252.5 606.95,-259.5"/>
</g>
<!-- ci_job_deploy_debian.sh -->
<g id="node21" class="node">
<title>ci_job_deploy_debian.sh</title>
<ellipse fill="none" stroke="black" cx="718.04" cy="-202" rx="98.58" ry="18"/>
<text text-anchor="middle" x="718.04" y="-198.3" font-family="Times,serif" font-size="14.00">ci_job_deploy_debian.sh</text>
</g>
<!-- server&#45;deploy&#45;debian.child.yaml&#45;&gt;ci_job_deploy_debian.sh -->
<g id="edge17" class="edge">
<title>server&#45;deploy&#45;debian.child.yaml&#45;&gt;ci_job_deploy_debian.sh</title>
<path fill="none" stroke="black" d="M560.22,-202C576.41,-202 592.87,-202 608.75,-202"/>
<polygon fill="black" stroke="black" points="609.09,-205.5 619.09,-202 609.09,-198.5 609.09,-205.5"/>
</g>
<!-- ci_job_deploy_docker.sh -->
<g id="node22" class="node">
<title>ci_job_deploy_docker.sh</title>
<ellipse fill="none" stroke="black" cx="718.04" cy="-348" rx="98.58" ry="18"/>
<text text-anchor="middle" x="718.04" y="-344.3" font-family="Times,serif" font-size="14.00">ci_job_deploy_docker.sh</text>
</g>
<!-- server&#45;deploy&#45;docker.child.yaml&#45;&gt;ci_job_deploy_docker.sh -->
<g id="edge18" class="edge">
<title>server&#45;deploy&#45;docker.child.yaml&#45;&gt;ci_job_deploy_docker.sh</title>
<path fill="none" stroke="black" d="M560.22,-348C576.41,-348 592.87,-348 608.75,-348"/>
<polygon fill="black" stroke="black" points="609.09,-351.5 619.09,-348 609.09,-344.5 609.09,-351.5"/>
</g>
<!-- ci_job_deploy_docker_asan.sh -->
<g id="node23" class="node">
<title>ci_job_deploy_docker_asan.sh</title>
<ellipse fill="none" stroke="black" cx="718.04" cy="-402" rx="119.68" ry="18"/>
<text text-anchor="middle" x="718.04" y="-398.3" font-family="Times,serif" font-size="14.00">ci_job_deploy_docker_asan.sh</text>
</g>
<!-- server&#45;deploy&#45;docker.child.yaml&#45;&gt;ci_job_deploy_docker_asan.sh -->
<g id="edge19" class="edge">
<title>server&#45;deploy&#45;docker.child.yaml&#45;&gt;ci_job_deploy_docker_asan.sh</title>
<path fill="none" stroke="black" d="M510.04,-362.4C547.97,-369.66 594.08,-378.48 633.15,-385.95"/>
<polygon fill="black" stroke="black" points="632.96,-389.48 643.44,-387.92 634.28,-382.6 632.96,-389.48"/>
</g>
<!-- maven_deploy.sh -->
<g id="node29" class="node">
<title>maven_deploy.sh</title>
<ellipse fill="none" stroke="black" cx="1258" cy="-535" rx="72.59" ry="18"/>
<text text-anchor="middle" x="1258" y="-531.3" font-family="Times,serif" font-size="14.00">maven_deploy.sh</text>
</g>
<!-- ci_job_deploy_java.sh&#45;&gt;maven_deploy.sh -->
<g id="edge24" class="edge">
<title>ci_job_deploy_java.sh&#45;&gt;maven_deploy.sh</title>
<path fill="none" stroke="black" d="M1080.58,-548.56C1111.81,-546.16 1147.14,-543.45 1177.93,-541.08"/>
<polygon fill="black" stroke="black" points="1178.49,-544.55 1188.19,-540.29 1177.95,-537.57 1178.49,-544.55"/>
</g>
<!-- generate_java_module.sh -->
<g id="node31" class="node">
<title>generate_java_module.sh</title>
<ellipse fill="none" stroke="black" cx="1258" cy="-973" rx="100.98" ry="18"/>
<text text-anchor="middle" x="1258" y="-969.3" font-family="Times,serif" font-size="14.00">generate_java_module.sh</text>
</g>
<!-- ci_job_generate_module.sh&#45;&gt;generate_java_module.sh -->
<g id="edge26" class="edge">
<title>ci_job_generate_module.sh&#45;&gt;generate_java_module.sh</title>
<path fill="none" stroke="black" d="M1018.37,-859.63C1047.47,-882.61 1101.73,-922.63 1154.01,-946 1162.93,-949.99 1172.56,-953.48 1182.23,-956.51"/>
<polygon fill="black" stroke="black" points="1181.3,-959.89 1191.88,-959.39 1183.3,-953.18 1181.3,-959.89"/>
</g>
<!-- generate_js_module.sh -->
<g id="node32" class="node">
<title>generate_js_module.sh</title>
<ellipse fill="none" stroke="black" cx="1258" cy="-865" rx="92.08" ry="18"/>
<text text-anchor="middle" x="1258" y="-861.3" font-family="Times,serif" font-size="14.00">generate_js_module.sh</text>
</g>
<!-- ci_job_generate_module.sh&#45;&gt;generate_js_module.sh -->
<g id="edge27" class="edge">
<title>ci_job_generate_module.sh&#45;&gt;generate_js_module.sh</title>
<path fill="none" stroke="black" d="M1091.86,-850.4C1115.12,-852.46 1140.01,-854.66 1163.22,-856.71"/>
<polygon fill="black" stroke="black" points="1163.13,-860.22 1173.4,-857.61 1163.74,-853.24 1163.13,-860.22"/>
</g>
<!-- get_name.sh -->
<g id="node33" class="node">
<title>get_name.sh</title>
<ellipse fill="none" stroke="black" cx="1498.08" cy="-783" rx="55.79" ry="18"/>
<text text-anchor="middle" x="1498.08" y="-779.3" font-family="Times,serif" font-size="14.00">get_name.sh</text>
</g>
<!-- ci_job_generate_module.sh&#45;&gt;get_name.sh -->
<g id="edge28" class="edge">
<title>ci_job_generate_module.sh&#45;&gt;get_name.sh</title>
<path fill="none" stroke="black" d="M1084.82,-831.62C1185.28,-819.77 1347.04,-800.7 1435.1,-790.31"/>
<polygon fill="black" stroke="black" points="1435.68,-793.77 1445.2,-789.12 1434.86,-786.81 1435.68,-793.77"/>
</g>
<!-- install_server.sh -->
<g id="node34" class="node">
<title>install_server.sh</title>
<ellipse fill="none" stroke="black" cx="1258" cy="-919" rx="67.69" ry="18"/>
<text text-anchor="middle" x="1258" y="-915.3" font-family="Times,serif" font-size="14.00">install_server.sh</text>
</g>
<!-- ci_job_generate_module.sh&#45;&gt;install_server.sh -->
<g id="edge29" class="edge">
<title>ci_job_generate_module.sh&#45;&gt;install_server.sh</title>
<path fill="none" stroke="black" d="M1045.13,-858.08C1076.12,-868.21 1117.29,-881.35 1154.01,-892 1168.29,-896.14 1183.77,-900.34 1198.27,-904.16"/>
<polygon fill="black" stroke="black" points="1197.58,-907.6 1208.14,-906.74 1199.35,-900.83 1197.58,-907.6"/>
</g>
<!-- deploy_js.sh -->
<g id="node30" class="node">
<title>deploy_js.sh</title>
<ellipse fill="none" stroke="black" cx="995.82" cy="-643" rx="55.49" ry="18"/>
<text text-anchor="middle" x="995.82" y="-639.3" font-family="Times,serif" font-size="14.00">deploy_js.sh</text>
</g>
<!-- ci_job_deploy_js.sh&#45;&gt;deploy_js.sh -->
<g id="edge25" class="edge">
<title>ci_job_deploy_js.sh&#45;&gt;deploy_js.sh</title>
<path fill="none" stroke="black" d="M797.7,-652.29C839.88,-650.3 891.19,-647.89 930.88,-646.01"/>
<polygon fill="black" stroke="black" points="931.15,-649.51 940.97,-645.54 930.82,-642.51 931.15,-649.51"/>
</g>
<!-- git_checkout_name.sh -->
<g id="node35" class="node">
<title>git_checkout_name.sh</title>
<ellipse fill="none" stroke="black" cx="1498.08" cy="-229" rx="90.18" ry="18"/>
<text text-anchor="middle" x="1498.08" y="-225.3" font-family="Times,serif" font-size="14.00">git_checkout_name.sh</text>
</g>
<!-- ci_job_package_debian.sh&#45;&gt;git_checkout_name.sh -->
<g id="edge30" class="edge">
<title>ci_job_package_debian.sh&#45;&gt;git_checkout_name.sh</title>
<path fill="none" stroke="black" d="M1362.04,-229C1373.8,-229 1385.78,-229 1397.49,-229"/>
<polygon fill="black" stroke="black" points="1397.71,-232.5 1407.71,-229 1397.71,-225.5 1397.71,-232.5"/>
</g>
<!-- git_default_branch.sh -->
<g id="node36" class="node">
<title>git_default_branch.sh</title>
<ellipse fill="none" stroke="black" cx="1721.27" cy="-298" rx="87.18" ry="18"/>
<text text-anchor="middle" x="1721.27" y="-294.3" font-family="Times,serif" font-size="14.00">git_default_branch.sh</text>
</g>
<!-- ci_job_package_debian.sh&#45;&gt;git_default_branch.sh -->
<g id="edge31" class="edge">
<title>ci_job_package_debian.sh&#45;&gt;git_default_branch.sh</title>
<path fill="none" stroke="black" d="M1325.31,-242.75C1348.27,-247.28 1374.21,-252.14 1397.99,-256 1477.82,-268.94 1569.29,-280.56 1634.33,-288.28"/>
<polygon fill="black" stroke="black" points="1634.2,-291.78 1644.54,-289.48 1635.02,-284.83 1634.2,-291.78"/>
</g>
<!-- ci_aptly_repo_publish.sh -->
<g id="node24" class="node">
<title>ci_aptly_repo_publish.sh</title>
<ellipse fill="none" stroke="black" cx="995.82" cy="-202" rx="99.38" ry="18"/>
<text text-anchor="middle" x="995.82" y="-198.3" font-family="Times,serif" font-size="14.00">ci_aptly_repo_publish.sh</text>
</g>
<!-- ci_job_deploy_debian.sh&#45;&gt;ci_aptly_repo_publish.sh -->
<g id="edge20" class="edge">
<title>ci_job_deploy_debian.sh&#45;&gt;ci_aptly_repo_publish.sh</title>
<path fill="none" stroke="black" d="M817.05,-202C839.44,-202 863.36,-202 886.16,-202"/>
<polygon fill="black" stroke="black" points="886.2,-205.5 896.2,-202 886.2,-198.5 886.2,-205.5"/>
</g>
<!-- ci_job_deploy_docker.sh&#45;&gt;container_build.sh -->
<g id="edge22" class="edge">
<title>ci_job_deploy_docker.sh&#45;&gt;container_build.sh</title>
<path fill="none" stroke="black" d="M805.54,-339.53C840.62,-336.1 880.88,-332.16 915.23,-328.79"/>
<polygon fill="black" stroke="black" points="915.6,-332.27 925.21,-327.81 914.92,-325.31 915.6,-332.27"/>
</g>
<!-- ci_job_deploy_docker_asan.sh&#45;&gt;container_build.sh -->
<g id="edge23" class="edge">
<title>ci_job_deploy_docker_asan.sh&#45;&gt;container_build.sh</title>
<path fill="none" stroke="black" d="M788.65,-387.46C804.82,-383.72 821.89,-379.48 837.63,-375 873.94,-364.66 914.2,-350.79 944.88,-339.69"/>
<polygon fill="black" stroke="black" points="946.29,-342.9 954.49,-336.19 943.89,-336.32 946.29,-342.9"/>
</g>
<!-- ci_github_runner_cleanup.sh -->
<g id="node25" class="node">
<title>ci_github_runner_cleanup.sh</title>
<ellipse fill="none" stroke="black" cx="134.54" cy="-733" rx="113.18" ry="18"/>
<text text-anchor="middle" x="134.54" y="-729.3" font-family="Times,serif" font-size="14.00">ci_github_runner_cleanup.sh</text>
</g>
<!-- ci_github_runner_setup.sh -->
<g id="node26" class="node">
<title>ci_github_runner_setup.sh</title>
<ellipse fill="none" stroke="black" cx="134.54" cy="-787" rx="104.78" ry="18"/>
<text text-anchor="middle" x="134.54" y="-783.3" font-family="Times,serif" font-size="14.00">ci_github_runner_setup.sh</text>
</g>
<!-- ci_job_deploy_debian_test.sh -->
<g id="node27" class="node">
<title>ci_job_deploy_debian_test.sh</title>
<ellipse fill="none" stroke="black" cx="134.54" cy="-841" rx="115.88" ry="18"/>
<text text-anchor="middle" x="134.54" y="-837.3" font-family="Times,serif" font-size="14.00">ci_job_deploy_debian_test.sh</text>
</g>
<!-- check_version.sh -->
<g id="node40" class="node">
<title>check_version.sh</title>
<ellipse fill="none" stroke="black" cx="1498.08" cy="-489" rx="71.49" ry="18"/>
<text text-anchor="middle" x="1498.08" y="-485.3" font-family="Times,serif" font-size="14.00">check_version.sh</text>
</g>
<!-- doc_deploy.sh&#45;&gt;check_version.sh -->
<g id="edge46" class="edge">
<title>doc_deploy.sh&#45;&gt;check_version.sh</title>
<path fill="none" stroke="black" d="M1309.78,-452.81C1345.14,-459.64 1392.62,-468.82 1430.93,-476.22"/>
<polygon fill="black" stroke="black" points="1430.48,-479.7 1440.97,-478.16 1431.81,-472.82 1430.48,-479.7"/>
</g>
<!-- get_version.sh -->
<g id="node44" class="node">
<title>get_version.sh</title>
<ellipse fill="none" stroke="black" cx="1721.27" cy="-589" rx="61.99" ry="18"/>
<text text-anchor="middle" x="1721.27" y="-585.3" font-family="Times,serif" font-size="14.00">get_version.sh</text>
</g>
<!-- doc_deploy.sh&#45;&gt;get_version.sh -->
<g id="edge47" class="edge">
<title>doc_deploy.sh&#45;&gt;get_version.sh</title>
<path fill="none" stroke="black" d="M1312.4,-434.42C1381.74,-425.79 1504.92,-419.17 1598.17,-462 1645.23,-483.61 1683.44,-532.18 1703.93,-562.6"/>
<polygon fill="black" stroke="black" points="1701.05,-564.6 1709.47,-571.03 1706.9,-560.75 1701.05,-564.6"/>
</g>
<!-- maven_deploy.sh&#45;&gt;check_version.sh -->
<g id="edge50" class="edge">
<title>maven_deploy.sh&#45;&gt;check_version.sh</title>
<path fill="none" stroke="black" d="M1316.03,-523.98C1350.61,-517.3 1394.87,-508.75 1430.98,-501.77"/>
<polygon fill="black" stroke="black" points="1431.78,-505.18 1440.93,-499.85 1430.45,-498.31 1431.78,-505.18"/>
</g>
<!-- maven_deploy.sh&#45;&gt;get_version.sh -->
<g id="edge51" class="edge">
<title>maven_deploy.sh&#45;&gt;get_version.sh</title>
<path fill="none" stroke="black" d="M1308.59,-547.97C1344.77,-557.35 1388.98,-568.61 1397.99,-570 1483.7,-583.2 1583.53,-587.38 1649.1,-588.63"/>
<polygon fill="black" stroke="black" points="1649.26,-592.13 1659.32,-588.8 1649.38,-585.13 1649.26,-592.13"/>
</g>
<!-- maven_deploy_github.sh -->
<g id="node47" class="node">
<title>maven_deploy_github.sh</title>
<ellipse fill="none" stroke="black" cx="1498.08" cy="-543" rx="100.18" ry="18"/>
<text text-anchor="middle" x="1498.08" y="-539.3" font-family="Times,serif" font-size="14.00">maven_deploy_github.sh</text>
</g>
<!-- maven_deploy.sh&#45;&gt;maven_deploy_github.sh -->
<g id="edge52" class="edge">
<title>maven_deploy.sh&#45;&gt;maven_deploy_github.sh</title>
<path fill="none" stroke="black" d="M1330.43,-537.4C1348.95,-538.02 1369.3,-538.71 1389.23,-539.38"/>
<polygon fill="black" stroke="black" points="1389.17,-542.88 1399.29,-539.71 1389.41,-535.88 1389.17,-542.88"/>
</g>
<!-- deploy_js.sh&#45;&gt;maven_deploy.sh -->
<g id="edge35" class="edge">
<title>deploy_js.sh&#45;&gt;maven_deploy.sh</title>
<path fill="none" stroke="black" d="M1027.38,-628.05C1051.99,-615.9 1087.41,-598.2 1118.01,-582 1134.19,-573.44 1137.02,-568.82 1154.01,-562 1166.18,-557.12 1179.51,-552.87 1192.42,-549.27"/>
<polygon fill="black" stroke="black" points="1193.44,-552.62 1202.19,-546.65 1191.62,-545.86 1193.44,-552.62"/>
</g>
<!-- deploy_js.sh&#45;&gt;get_name.sh -->
<g id="edge36" class="edge">
<title>deploy_js.sh&#45;&gt;get_name.sh</title>
<path fill="none" stroke="black" d="M1012.68,-660.31C1038.98,-687.66 1094.63,-740.02 1154.01,-762 1247.35,-796.56 1364.7,-795 1435.15,-789.71"/>
<polygon fill="black" stroke="black" points="1435.5,-793.2 1445.19,-788.91 1434.95,-786.22 1435.5,-793.2"/>
</g>
<!-- deploy_js.sh&#45;&gt;check_version.sh -->
<g id="edge37" class="edge">
<title>deploy_js.sh&#45;&gt;check_version.sh</title>
<path fill="none" stroke="black" d="M1036.34,-630.6C1062.23,-620.83 1095.35,-604.97 1118.01,-582 1143.7,-555.96 1123.55,-528.25 1154.01,-508 1195.76,-480.24 1330.6,-480.75 1418.28,-484.36"/>
<polygon fill="black" stroke="black" points="1418.32,-487.87 1428.46,-484.81 1418.62,-480.88 1418.32,-487.87"/>
</g>
<!-- deploy_js_bower.sh -->
<g id="node41" class="node">
<title>deploy_js_bower.sh</title>
<ellipse fill="none" stroke="black" cx="1258" cy="-380" rx="81.49" ry="18"/>
<text text-anchor="middle" x="1258" y="-376.3" font-family="Times,serif" font-size="14.00">deploy_js_bower.sh</text>
</g>
<!-- deploy_js.sh&#45;&gt;deploy_js_bower.sh -->
<g id="edge38" class="edge">
<title>deploy_js.sh&#45;&gt;deploy_js_bower.sh</title>
<path fill="none" stroke="black" d="M1039.4,-631.85C1065.9,-622.73 1098.54,-607.14 1118.01,-582 1164.24,-522.32 1104,-472.55 1154.01,-416 1162.1,-406.85 1172.64,-400.03 1183.89,-394.94"/>
<polygon fill="black" stroke="black" points="1185.51,-398.06 1193.47,-391.06 1182.89,-391.57 1185.51,-398.06"/>
</g>
<!-- deploy_js_http.sh -->
<g id="node42" class="node">
<title>deploy_js_http.sh</title>
<ellipse fill="none" stroke="black" cx="1258" cy="-643" rx="73.39" ry="18"/>
<text text-anchor="middle" x="1258" y="-639.3" font-family="Times,serif" font-size="14.00">deploy_js_http.sh</text>
</g>
<!-- deploy_js.sh&#45;&gt;deploy_js_http.sh -->
<g id="edge39" class="edge">
<title>deploy_js.sh&#45;&gt;deploy_js_http.sh</title>
<path fill="none" stroke="black" d="M1051.36,-643C1086.94,-643 1134.06,-643 1174.21,-643"/>
<polygon fill="black" stroke="black" points="1174.26,-646.5 1184.26,-643 1174.26,-639.5 1174.26,-646.5"/>
</g>
<!-- deploy_js_npm.sh -->
<g id="node43" class="node">
<title>deploy_js_npm.sh</title>
<ellipse fill="none" stroke="black" cx="1258" cy="-589" rx="75.29" ry="18"/>
<text text-anchor="middle" x="1258" y="-585.3" font-family="Times,serif" font-size="14.00">deploy_js_npm.sh</text>
</g>
<!-- deploy_js.sh&#45;&gt;deploy_js_npm.sh -->
<g id="edge40" class="edge">
<title>deploy_js.sh&#45;&gt;deploy_js_npm.sh</title>
<path fill="none" stroke="black" d="M1042.74,-633.47C1083.78,-624.95 1144.42,-612.37 1190.72,-602.76"/>
<polygon fill="black" stroke="black" points="1191.59,-606.15 1200.67,-600.69 1190.17,-599.3 1191.59,-606.15"/>
</g>
<!-- deploy_js.sh&#45;&gt;get_version.sh -->
<g id="edge41" class="edge">
<title>deploy_js.sh&#45;&gt;get_version.sh</title>
<path fill="none" stroke="black" d="M1042.3,-652.92C1073.54,-659.22 1116.08,-666.77 1154.01,-670 1246.11,-677.85 1270.13,-680.26 1361.99,-670 1472.53,-657.66 1598.76,-624.53 1667.98,-604.67"/>
<polygon fill="black" stroke="black" points="1669.14,-607.98 1677.78,-601.84 1667.2,-601.26 1669.14,-607.98"/>
</g>
<!-- mavenize_js_project.sh -->
<g id="node45" class="node">
<title>mavenize_js_project.sh</title>
<ellipse fill="none" stroke="black" cx="1258" cy="-735" rx="94.48" ry="18"/>
<text text-anchor="middle" x="1258" y="-731.3" font-family="Times,serif" font-size="14.00">mavenize_js_project.sh</text>
</g>
<!-- deploy_js.sh&#45;&gt;mavenize_js_project.sh -->
<g id="edge42" class="edge">
<title>deploy_js.sh&#45;&gt;mavenize_js_project.sh</title>
<path fill="none" stroke="black" d="M1031.24,-656.86C1062.94,-669.45 1111.36,-688.25 1154.01,-703 1167.74,-707.75 1182.61,-712.56 1196.67,-716.96"/>
<polygon fill="black" stroke="black" points="1195.65,-720.31 1206.24,-719.93 1197.73,-713.62 1195.65,-720.31"/>
</g>
<!-- generate_js_module.sh&#45;&gt;get_name.sh -->
<g id="edge48" class="edge">
<title>generate_js_module.sh&#45;&gt;get_name.sh</title>
<path fill="none" stroke="black" d="M1309.2,-849.99C1326.04,-844.8 1344.89,-838.82 1361.99,-833 1392.22,-822.72 1425.91,-810.25 1452.07,-800.34"/>
<polygon fill="black" stroke="black" points="1453.61,-803.5 1461.71,-796.68 1451.12,-796.96 1453.61,-803.5"/>
</g>
<!-- generate_js_module.sh&#45;&gt;get_version.sh -->
<g id="edge49" class="edge">
<title>generate_js_module.sh&#45;&gt;get_version.sh</title>
<path fill="none" stroke="black" d="M1345.1,-870.99C1418.71,-871.77 1524.15,-862.11 1598.17,-810 1665.79,-762.4 1700.06,-664.93 1713.4,-616.95"/>
<polygon fill="black" stroke="black" points="1716.8,-617.79 1716.01,-607.23 1710.04,-615.98 1716.8,-617.79"/>
</g>
<!-- git_checkout_name.sh&#45;&gt;git_default_branch.sh -->
<g id="edge57" class="edge">
<title>git_checkout_name.sh&#45;&gt;git_default_branch.sh</title>
<path fill="none" stroke="black" d="M1547.62,-244.14C1581.45,-254.69 1626.72,-268.82 1662.42,-279.96"/>
<polygon fill="black" stroke="black" points="1661.63,-283.37 1672.22,-283.01 1663.72,-276.69 1661.63,-283.37"/>
</g>
<!-- server/bin/make&#45;dev&#45;container.sh -->
<g id="node38" class="node">
<title>server/bin/make&#45;dev&#45;container.sh</title>
<ellipse fill="none" stroke="black" cx="433.76" cy="-72" rx="128.88" ry="18"/>
<text text-anchor="middle" x="433.76" y="-68.3" font-family="Times,serif" font-size="14.00">server/bin/make&#45;dev&#45;container.sh</text>
</g>
<!-- server/bin/make&#45;dev&#45;container.sh&#45;&gt;kurento&#45;buildpackage.sh -->
<g id="edge33" class="edge">
<title>server/bin/make&#45;dev&#45;container.sh&#45;&gt;kurento&#45;buildpackage.sh</title>
<path fill="none" stroke="black" d="M540.68,-61.87C567.06,-59.35 595.19,-56.66 621.06,-54.18"/>
<polygon fill="black" stroke="black" points="621.61,-57.64 631.23,-53.21 620.94,-50.68 621.61,-57.64"/>
</g>
<!-- check_version.sh&#45;&gt;get_version.sh -->
<g id="edge55" class="edge">
<title>check_version.sh&#45;&gt;get_version.sh</title>
<path fill="none" stroke="black" d="M1552.7,-500.75C1567.7,-504.8 1583.82,-509.89 1598.17,-516 1630.55,-529.78 1664.72,-550.84 1688.64,-566.8"/>
<polygon fill="black" stroke="black" points="1686.73,-569.73 1696.97,-572.43 1690.65,-563.93 1686.73,-569.73"/>
</g>
<!-- deploy_js_bower.sh&#45;&gt;git_default_branch.sh -->
<g id="edge43" class="edge">
<title>deploy_js_bower.sh&#45;&gt;git_default_branch.sh</title>
<path fill="none" stroke="black" d="M1339.26,-379.05C1408.69,-376.67 1511.31,-369.38 1598.17,-348 1625.64,-341.24 1655.02,-329.37 1678.07,-318.89"/>
<polygon fill="black" stroke="black" points="1679.61,-322.03 1687.22,-314.65 1676.67,-315.68 1679.61,-322.03"/>
</g>
<!-- deploy_js_bower.sh&#45;&gt;get_version.sh -->
<g id="edge44" class="edge">
<title>deploy_js_bower.sh&#45;&gt;get_version.sh</title>
<path fill="none" stroke="black" d="M1338.37,-383.17C1424.51,-387.84 1555.49,-398.91 1598.17,-424 1653.03,-456.24 1690.75,-523.77 1708.56,-561.68"/>
<polygon fill="black" stroke="black" points="1705.52,-563.45 1712.86,-571.09 1711.89,-560.54 1705.52,-563.45"/>
</g>
<!-- clone_repo.sh -->
<g id="node46" class="node">
<title>clone_repo.sh</title>
<ellipse fill="none" stroke="black" cx="1498.08" cy="-321" rx="59.59" ry="18"/>
<text text-anchor="middle" x="1498.08" y="-317.3" font-family="Times,serif" font-size="14.00">clone_repo.sh</text>
</g>
<!-- deploy_js_bower.sh&#45;&gt;clone_repo.sh -->
<g id="edge45" class="edge">
<title>deploy_js_bower.sh&#45;&gt;clone_repo.sh</title>
<path fill="none" stroke="black" d="M1312.73,-366.69C1351,-357.2 1402.32,-344.48 1441.09,-334.87"/>
<polygon fill="black" stroke="black" points="1442.31,-338.18 1451.17,-332.38 1440.62,-331.39 1442.31,-338.18"/>
</g>
<!-- mavenize_js_project.sh&#45;&gt;get_name.sh -->
<g id="edge53" class="edge">
<title>mavenize_js_project.sh&#45;&gt;get_name.sh</title>
<path fill="none" stroke="black" d="M1323.43,-747.99C1359.9,-755.34 1405.11,-764.46 1440.26,-771.54"/>
<polygon fill="black" stroke="black" points="1439.86,-775.03 1450.35,-773.58 1441.24,-768.17 1439.86,-775.03"/>
</g>
<!-- mavenize_js_project.sh&#45;&gt;get_version.sh -->
<g id="edge54" class="edge">
<title>mavenize_js_project.sh&#45;&gt;get_version.sh</title>
<path fill="none" stroke="black" d="M1345.46,-741.86C1416.43,-744.04 1517.93,-739.08 1598.17,-703 1641.8,-683.38 1679.89,-641.72 1701.47,-614.57"/>
<polygon fill="black" stroke="black" points="1704.25,-616.69 1707.63,-606.64 1698.73,-612.39 1704.25,-616.69"/>
</g>
<!-- clone_repo.sh&#45;&gt;git_default_branch.sh -->
<g id="edge56" class="edge">
<title>clone_repo.sh&#45;&gt;git_default_branch.sh</title>
<path fill="none" stroke="black" d="M1554.9,-315.2C1578.61,-312.73 1606.83,-309.8 1633.18,-307.06"/>
<polygon fill="black" stroke="black" points="1633.58,-310.53 1643.17,-306.02 1632.86,-303.57 1633.58,-310.53"/>
</g>
<!-- update_test_files.sh -->
<g id="node48" class="node">
<title>update_test_files.sh</title>
<ellipse fill="none" stroke="black" cx="134.54" cy="-895" rx="80.69" ry="18"/>
<text text-anchor="middle" x="134.54" y="-891.3" font-family="Times,serif" font-size="14.00">update_test_files.sh</text>
</g>
</g>
</svg>
