<?xml version="1.0" encoding="UTF-8" standalone="no"?>
<!DOCTYPE svg PUBLIC "-//W3C//DTD SVG 1.1//EN"
 "http://www.w3.org/Graphics/SVG/1.1/DTD/svg11.dtd">
<!-- Generated by graphviz version 2.43.0 (0)
 -->
<!-- Title: scripts Pages: 1 -->
<svg width="2256pt" height="1110pt"
 viewBox="0.00 0.00 2255.72 1110.00" xmlns="http://www.w3.org/2000/svg" xmlns:xlink="http://www.w3.org/1999/xlink">
<g id="graph0" class="graph" transform="scale(1 1) rotate(0) translate(4 1106)">
<title>scripts</title>
<polygon fill="white" stroke="transparent" points="-4,4 -4,-1106 2251.72,-1106 2251.72,4 -4,4"/>
<!-- clients&#45;java.caller.yaml -->
<g id="node1" class="node">
<title>clients&#45;java.caller.yaml</title>
<ellipse fill="none" stroke="black" cx="173.53" cy="-594" rx="92.88" ry="18"/>
<text text-anchor="middle" x="173.53" y="-590.3" font-family="Times,serif" font-size="14.00">clients&#45;java.caller.yaml</text>
</g>
<!-- clients&#45;java.called.yaml -->
<g id="node7" class="node">
<title>clients&#45;java.called.yaml</title>
<ellipse fill="none" stroke="black" cx="903.93" cy="-594" rx="94.78" ry="18"/>
<text text-anchor="middle" x="903.93" y="-590.3" font-family="Times,serif" font-size="14.00">clients&#45;java.called.yaml</text>
</g>
<!-- clients&#45;java.caller.yaml&#45;&gt;clients&#45;java.called.yaml -->
<g id="edge1" class="edge">
<title>clients&#45;java.caller.yaml&#45;&gt;clients&#45;java.called.yaml</title>
<path fill="none" stroke="black" d="M266.79,-594C402.77,-594 656.27,-594 798.77,-594"/>
<polygon fill="black" stroke="black" points="798.83,-597.5 808.83,-594 798.83,-590.5 798.83,-597.5"/>
</g>
<!-- clients&#45;javascript.caller.yaml -->
<g id="node2" class="node">
<title>clients&#45;javascript.caller.yaml</title>
<ellipse fill="none" stroke="black" cx="173.53" cy="-750" rx="112.38" ry="18"/>
<text text-anchor="middle" x="173.53" y="-746.3" font-family="Times,serif" font-size="14.00">clients&#45;javascript.caller.yaml</text>
</g>
<!-- clients&#45;javascript.called.yaml -->
<g id="node8" class="node">
<title>clients&#45;javascript.called.yaml</title>
<ellipse fill="none" stroke="black" cx="550.1" cy="-750" rx="114.28" ry="18"/>
<text text-anchor="middle" x="550.1" y="-746.3" font-family="Times,serif" font-size="14.00">clients&#45;javascript.called.yaml</text>
</g>
<!-- clients&#45;javascript.caller.yaml&#45;&gt;clients&#45;javascript.called.yaml -->
<g id="edge2" class="edge">
<title>clients&#45;javascript.caller.yaml&#45;&gt;clients&#45;javascript.called.yaml</title>
<path fill="none" stroke="black" d="M286.16,-750C329.96,-750 380.39,-750 425.3,-750"/>
<polygon fill="black" stroke="black" points="425.39,-753.5 435.39,-750 425.39,-746.5 425.39,-753.5"/>
</g>
<!-- doc&#45;kurento.yaml -->
<g id="node3" class="node">
<title>doc&#45;kurento.yaml</title>
<ellipse fill="none" stroke="black" cx="173.53" cy="-448" rx="73.39" ry="18"/>
<text text-anchor="middle" x="173.53" y="-444.3" font-family="Times,serif" font-size="14.00">doc&#45;kurento.yaml</text>
</g>
<!-- kurento_ci_job_deploy_doc.sh -->
<g id="node9" class="node">
<title>kurento_ci_job_deploy_doc.sh</title>
<ellipse fill="none" stroke="black" cx="550.1" cy="-448" rx="119.68" ry="18"/>
<text text-anchor="middle" x="550.1" y="-444.3" font-family="Times,serif" font-size="14.00">kurento_ci_job_deploy_doc.sh</text>
</g>
<!-- doc&#45;kurento.yaml&#45;&gt;kurento_ci_job_deploy_doc.sh -->
<g id="edge3" class="edge">
<title>doc&#45;kurento.yaml&#45;&gt;kurento_ci_job_deploy_doc.sh</title>
<path fill="none" stroke="black" d="M247.2,-448C296.17,-448 362.13,-448 419.9,-448"/>
<polygon fill="black" stroke="black" points="420.21,-451.5 430.21,-448 420.21,-444.5 420.21,-451.5"/>
</g>
<!-- docker&#45;kurento&#45;buildpackage.yaml -->
<g id="node4" class="node">
<title>docker&#45;kurento&#45;buildpackage.yaml</title>
<ellipse fill="none" stroke="black" cx="173.53" cy="-83" rx="134.58" ry="18"/>
<text text-anchor="middle" x="173.53" y="-79.3" font-family="Times,serif" font-size="14.00">docker&#45;kurento&#45;buildpackage.yaml</text>
</g>
<!-- kurento_container_build.sh -->
<g id="node10" class="node">
<title>kurento_container_build.sh</title>
<ellipse fill="none" stroke="black" cx="1230.45" cy="-310" rx="107.48" ry="18"/>
<text text-anchor="middle" x="1230.45" y="-306.3" font-family="Times,serif" font-size="14.00">kurento_container_build.sh</text>
</g>
<!-- docker&#45;kurento&#45;buildpackage.yaml&#45;&gt;kurento_container_build.sh -->
<g id="edge4" class="edge">
<title>docker&#45;kurento&#45;buildpackage.yaml&#45;&gt;kurento_container_build.sh</title>
<path fill="none" stroke="black" d="M288.96,-92.36C519.84,-111.61 1022.37,-155.46 1054.71,-175 1079.4,-189.92 1069.72,-209.22 1090.71,-229 1117.16,-253.92 1152.62,-274.45 1181.07,-288.61"/>
<polygon fill="black" stroke="black" points="1179.9,-291.93 1190.42,-293.16 1182.96,-285.64 1179.9,-291.93"/>
</g>
<!-- docker/kurento&#45;buildpackage -->
<g id="node11" class="node">
<title>docker/kurento&#45;buildpackage</title>
<ellipse fill="none" stroke="black" cx="550.1" cy="-18" rx="113.98" ry="18"/>
<text text-anchor="middle" x="550.1" y="-14.3" font-family="Times,serif" font-size="14.00">docker/kurento&#45;buildpackage</text>
</g>
<!-- docker&#45;kurento&#45;buildpackage.yaml&#45;&gt;docker/kurento&#45;buildpackage -->
<g id="edge5" class="edge">
<title>docker&#45;kurento&#45;buildpackage.yaml&#45;&gt;docker/kurento&#45;buildpackage</title>
<path fill="none" stroke="black" d="M252.7,-68.39C291.82,-61.17 339.91,-52.44 383.07,-45 407.73,-40.75 434.49,-36.32 459.17,-32.3"/>
<polygon fill="black" stroke="black" points="459.93,-35.73 469.25,-30.67 458.81,-28.82 459.93,-35.73"/>
</g>
<!-- docker&#45;kurento&#45;ci&#45;buildtools.yaml -->
<g id="node5" class="node">
<title>docker&#45;kurento&#45;ci&#45;buildtools.yaml</title>
<ellipse fill="none" stroke="black" cx="173.53" cy="-302" rx="131.88" ry="18"/>
<text text-anchor="middle" x="173.53" y="-298.3" font-family="Times,serif" font-size="14.00">docker&#45;kurento&#45;ci&#45;buildtools.yaml</text>
</g>
<!-- docker&#45;kurento&#45;ci&#45;buildtools.yaml&#45;&gt;kurento_container_build.sh -->
<g id="edge6" class="edge">
<title>docker&#45;kurento&#45;ci&#45;buildtools.yaml&#45;&gt;kurento_container_build.sh</title>
<path fill="none" stroke="black" d="M305.48,-302.99C513.2,-304.57 914.97,-307.62 1113.14,-309.12"/>
<polygon fill="black" stroke="black" points="1113.26,-312.62 1123.29,-309.19 1113.32,-305.62 1113.26,-312.62"/>
</g>
<!-- server.caller.yaml -->
<g id="node6" class="node">
<title>server.caller.yaml</title>
<ellipse fill="none" stroke="black" cx="173.53" cy="-225" rx="73.39" ry="18"/>
<text text-anchor="middle" x="173.53" y="-221.3" font-family="Times,serif" font-size="14.00">server.caller.yaml</text>
</g>
<!-- server&#45;buildpackage.called.yaml -->
<g id="node12" class="node">
<title>server&#45;buildpackage.called.yaml</title>
<ellipse fill="none" stroke="black" cx="1230.45" cy="-133" rx="126.18" ry="18"/>
<text text-anchor="middle" x="1230.45" y="-129.3" font-family="Times,serif" font-size="14.00">server&#45;buildpackage.called.yaml</text>
</g>
<!-- server.caller.yaml&#45;&gt;server&#45;buildpackage.called.yaml -->
<g id="edge7" class="edge">
<title>server.caller.yaml&#45;&gt;server&#45;buildpackage.called.yaml</title>
<path fill="none" stroke="black" d="M221.26,-211.16C263.21,-199.37 326.68,-183.09 383.07,-175 632.29,-139.26 926.53,-132.53 1094.23,-132"/>
<polygon fill="black" stroke="black" points="1094.36,-135.5 1104.35,-131.98 1094.34,-128.5 1094.36,-135.5"/>
</g>
<!-- server&#45;deploy&#45;aws.called.yaml -->
<g id="node13" class="node">
<title>server&#45;deploy&#45;aws.called.yaml</title>
<ellipse fill="none" stroke="black" cx="550.1" cy="-256" rx="119.68" ry="18"/>
<text text-anchor="middle" x="550.1" y="-252.3" font-family="Times,serif" font-size="14.00">server&#45;deploy&#45;aws.called.yaml</text>
</g>
<!-- server.caller.yaml&#45;&gt;server&#45;deploy&#45;aws.called.yaml -->
<g id="edge8" class="edge">
<title>server.caller.yaml&#45;&gt;server&#45;deploy&#45;aws.called.yaml</title>
<path fill="none" stroke="black" d="M243.24,-230.69C296.65,-235.11 371.93,-241.34 434.44,-246.51"/>
<polygon fill="black" stroke="black" points="434.5,-250.03 444.76,-247.36 435.08,-243.05 434.5,-250.03"/>
</g>
<!-- server&#45;deploy&#45;debian.called.yaml -->
<g id="node14" class="node">
<title>server&#45;deploy&#45;debian.called.yaml</title>
<ellipse fill="none" stroke="black" cx="550.1" cy="-202" rx="129.18" ry="18"/>
<text text-anchor="middle" x="550.1" y="-198.3" font-family="Times,serif" font-size="14.00">server&#45;deploy&#45;debian.called.yaml</text>
</g>
<!-- server.caller.yaml&#45;&gt;server&#45;deploy&#45;debian.called.yaml -->
<g id="edge9" class="edge">
<title>server.caller.yaml&#45;&gt;server&#45;deploy&#45;debian.called.yaml</title>
<path fill="none" stroke="black" d="M244.99,-220.67C294.57,-217.63 362.34,-213.47 421.33,-209.85"/>
<polygon fill="black" stroke="black" points="421.7,-213.33 431.47,-209.22 421.27,-206.34 421.7,-213.33"/>
</g>
<!-- server&#45;deploy&#45;docker.called.yaml -->
<g id="node15" class="node">
<title>server&#45;deploy&#45;docker.called.yaml</title>
<ellipse fill="none" stroke="black" cx="550.1" cy="-348" rx="129.18" ry="18"/>
<text text-anchor="middle" x="550.1" y="-344.3" font-family="Times,serif" font-size="14.00">server&#45;deploy&#45;docker.called.yaml</text>
</g>
<!-- server.caller.yaml&#45;&gt;server&#45;deploy&#45;docker.called.yaml -->
<g id="edge10" class="edge">
<title>server.caller.yaml&#45;&gt;server&#45;deploy&#45;docker.called.yaml</title>
<path fill="none" stroke="black" d="M223.5,-238.28C258.18,-247.91 305.7,-261.55 347.07,-275 397.8,-291.5 454.91,-312.35 495.44,-327.54"/>
<polygon fill="black" stroke="black" points="494.26,-330.83 504.85,-331.08 496.72,-324.28 494.26,-330.83"/>
</g>
<!-- kurento_ci_job_deploy_java.sh -->
<g id="node16" class="node">
<title>kurento_ci_job_deploy_java.sh</title>
<ellipse fill="none" stroke="black" cx="1230.45" cy="-552" rx="121.58" ry="18"/>
<text text-anchor="middle" x="1230.45" y="-548.3" font-family="Times,serif" font-size="14.00">kurento_ci_job_deploy_java.sh</text>
</g>
<!-- clients&#45;java.called.yaml&#45;&gt;kurento_ci_job_deploy_java.sh -->
<g id="edge11" class="edge">
<title>clients&#45;java.called.yaml&#45;&gt;kurento_ci_job_deploy_java.sh</title>
<path fill="none" stroke="black" d="M982.66,-583.94C1026.24,-578.3 1081.12,-571.2 1128.05,-565.12"/>
<polygon fill="black" stroke="black" points="1128.78,-568.56 1138.25,-563.8 1127.88,-561.62 1128.78,-568.56"/>
</g>
<!-- kurento_ci_job_generate_module.sh -->
<g id="node17" class="node">
<title>kurento_ci_job_generate_module.sh</title>
<ellipse fill="none" stroke="black" cx="1230.45" cy="-832" rx="139.98" ry="18"/>
<text text-anchor="middle" x="1230.45" y="-828.3" font-family="Times,serif" font-size="14.00">kurento_ci_job_generate_module.sh</text>
</g>
<!-- clients&#45;java.called.yaml&#45;&gt;kurento_ci_job_generate_module.sh -->
<g id="edge12" class="edge">
<title>clients&#45;java.called.yaml&#45;&gt;kurento_ci_job_generate_module.sh</title>
<path fill="none" stroke="black" d="M935.59,-611.08C966.47,-628.68 1015.07,-657.49 1054.71,-686 1109.53,-725.42 1168.99,-777.23 1202.49,-807.35"/>
<polygon fill="black" stroke="black" points="1200.26,-810.06 1210.03,-814.16 1204.95,-804.86 1200.26,-810.06"/>
</g>
<!-- clients&#45;javascript.called.yaml&#45;&gt;kurento_ci_job_generate_module.sh -->
<g id="edge13" class="edge">
<title>clients&#45;javascript.called.yaml&#45;&gt;kurento_ci_job_generate_module.sh</title>
<path fill="none" stroke="black" d="M641.53,-760.93C764.58,-775.81 984.63,-802.41 1117.81,-818.5"/>
<polygon fill="black" stroke="black" points="1117.69,-822.02 1128.04,-819.74 1118.53,-815.07 1117.69,-822.02"/>
</g>
<!-- kurento_ci_job_deploy_js.sh -->
<g id="node18" class="node">
<title>kurento_ci_job_deploy_js.sh</title>
<ellipse fill="none" stroke="black" cx="903.93" cy="-713" rx="112.38" ry="18"/>
<text text-anchor="middle" x="903.93" y="-709.3" font-family="Times,serif" font-size="14.00">kurento_ci_job_deploy_js.sh</text>
</g>
<!-- clients&#45;javascript.called.yaml&#45;&gt;kurento_ci_job_deploy_js.sh -->
<g id="edge14" class="edge">
<title>clients&#45;javascript.called.yaml&#45;&gt;kurento_ci_job_deploy_js.sh</title>
<path fill="none" stroke="black" d="M645.85,-740.04C693.26,-735.05 750.74,-729.01 799.31,-723.9"/>
<polygon fill="black" stroke="black" points="799.96,-727.35 809.54,-722.82 799.22,-720.39 799.96,-727.35"/>
</g>
<!-- kurento_doc_deploy.sh -->
<g id="node34" class="node">
<title>kurento_doc_deploy.sh</title>
<ellipse fill="none" stroke="black" cx="1541.38" cy="-433" rx="92.88" ry="18"/>
<text text-anchor="middle" x="1541.38" y="-429.3" font-family="Times,serif" font-size="14.00">kurento_doc_deploy.sh</text>
</g>
<!-- kurento_ci_job_deploy_doc.sh&#45;&gt;kurento_doc_deploy.sh -->
<g id="edge25" class="edge">
<title>kurento_ci_job_deploy_doc.sh&#45;&gt;kurento_doc_deploy.sh</title>
<path fill="none" stroke="black" d="M669.45,-446.21C865.38,-443.23 1253.8,-437.35 1438.38,-434.55"/>
<polygon fill="black" stroke="black" points="1438.68,-438.04 1448.62,-434.39 1438.57,-431.04 1438.68,-438.04"/>
</g>
<!-- parse_yaml.sh -->
<g id="node45" class="node">
<title>parse_yaml.sh</title>
<ellipse fill="none" stroke="black" cx="1541.38" cy="-310" rx="61.99" ry="18"/>
<text text-anchor="middle" x="1541.38" y="-306.3" font-family="Times,serif" font-size="14.00">parse_yaml.sh</text>
</g>
<!-- kurento_container_build.sh&#45;&gt;parse_yaml.sh -->
<g id="edge38" class="edge">
<title>kurento_container_build.sh&#45;&gt;parse_yaml.sh</title>
<path fill="none" stroke="black" d="M1337.77,-310C1381.18,-310 1430.24,-310 1469.21,-310"/>
<polygon fill="black" stroke="black" points="1469.4,-313.5 1479.4,-310 1469.4,-306.5 1469.4,-313.5"/>
</g>
<!-- kurento&#45;buildpackage.sh -->
<g id="node43" class="node">
<title>kurento&#45;buildpackage.sh</title>
<ellipse fill="none" stroke="black" cx="903.93" cy="-45" rx="97.48" ry="18"/>
<text text-anchor="middle" x="903.93" y="-41.3" font-family="Times,serif" font-size="14.00">kurento&#45;buildpackage.sh</text>
</g>
<!-- docker/kurento&#45;buildpackage&#45;&gt;kurento&#45;buildpackage.sh -->
<g id="edge36" class="edge">
<title>docker/kurento&#45;buildpackage&#45;&gt;kurento&#45;buildpackage.sh</title>
<path fill="none" stroke="black" d="M652.87,-25.81C700.23,-29.44 756.37,-33.75 803.44,-37.37"/>
<polygon fill="black" stroke="black" points="803.41,-40.87 813.65,-38.15 803.95,-33.89 803.41,-40.87"/>
</g>
<!-- kurento_ci_job_package_debian.sh -->
<g id="node19" class="node">
<title>kurento_ci_job_package_debian.sh</title>
<ellipse fill="none" stroke="black" cx="1541.38" cy="-219" rx="135.38" ry="18"/>
<text text-anchor="middle" x="1541.38" y="-215.3" font-family="Times,serif" font-size="14.00">kurento_ci_job_package_debian.sh</text>
</g>
<!-- server&#45;buildpackage.called.yaml&#45;&gt;kurento_ci_job_package_debian.sh -->
<g id="edge15" class="edge">
<title>server&#45;buildpackage.called.yaml&#45;&gt;kurento_ci_job_package_debian.sh</title>
<path fill="none" stroke="black" d="M1288.83,-148.97C1340.77,-163.43 1417.32,-184.74 1472.33,-200.06"/>
<polygon fill="black" stroke="black" points="1471.42,-203.44 1481.99,-202.75 1473.29,-196.69 1471.42,-203.44"/>
</g>
<!-- kurento_ci_job_deploy_aws_cf.sh -->
<g id="node20" class="node">
<title>kurento_ci_job_deploy_aws_cf.sh</title>
<ellipse fill="none" stroke="black" cx="903.93" cy="-256" rx="131.88" ry="18"/>
<text text-anchor="middle" x="903.93" y="-252.3" font-family="Times,serif" font-size="14.00">kurento_ci_job_deploy_aws_cf.sh</text>
</g>
<!-- server&#45;deploy&#45;aws.called.yaml&#45;&gt;kurento_ci_job_deploy_aws_cf.sh -->
<g id="edge16" class="edge">
<title>server&#45;deploy&#45;aws.called.yaml&#45;&gt;kurento_ci_job_deploy_aws_cf.sh</title>
<path fill="none" stroke="black" d="M669.72,-256C699.21,-256 731.1,-256 761.56,-256"/>
<polygon fill="black" stroke="black" points="761.82,-259.5 771.82,-256 761.82,-252.5 761.82,-259.5"/>
</g>
<!-- kurento_ci_job_deploy_debian.sh -->
<g id="node21" class="node">
<title>kurento_ci_job_deploy_debian.sh</title>
<ellipse fill="none" stroke="black" cx="903.93" cy="-202" rx="129.98" ry="18"/>
<text text-anchor="middle" x="903.93" y="-198.3" font-family="Times,serif" font-size="14.00">kurento_ci_job_deploy_debian.sh</text>
</g>
<!-- server&#45;deploy&#45;debian.called.yaml&#45;&gt;kurento_ci_job_deploy_debian.sh -->
<g id="edge17" class="edge">
<title>server&#45;deploy&#45;debian.called.yaml&#45;&gt;kurento_ci_job_deploy_debian.sh</title>
<path fill="none" stroke="black" d="M679.61,-202C706.97,-202 735.99,-202 763.73,-202"/>
<polygon fill="black" stroke="black" points="763.88,-205.5 773.88,-202 763.88,-198.5 763.88,-205.5"/>
</g>
<!-- kurento_ci_job_deploy_docker.sh -->
<g id="node22" class="node">
<title>kurento_ci_job_deploy_docker.sh</title>
<ellipse fill="none" stroke="black" cx="903.93" cy="-348" rx="129.98" ry="18"/>
<text text-anchor="middle" x="903.93" y="-344.3" font-family="Times,serif" font-size="14.00">kurento_ci_job_deploy_docker.sh</text>
</g>
<!-- server&#45;deploy&#45;docker.called.yaml&#45;&gt;kurento_ci_job_deploy_docker.sh -->
<g id="edge18" class="edge">
<title>server&#45;deploy&#45;docker.called.yaml&#45;&gt;kurento_ci_job_deploy_docker.sh</title>
<path fill="none" stroke="black" d="M679.61,-348C706.97,-348 735.99,-348 763.73,-348"/>
<polygon fill="black" stroke="black" points="763.88,-351.5 773.88,-348 763.88,-344.5 763.88,-351.5"/>
</g>
<!-- kurento_ci_job_deploy_docker_asan.sh -->
<g id="node23" class="node">
<title>kurento_ci_job_deploy_docker_asan.sh</title>
<ellipse fill="none" stroke="black" cx="903.93" cy="-402" rx="150.57" ry="18"/>
<text text-anchor="middle" x="903.93" y="-398.3" font-family="Times,serif" font-size="14.00">kurento_ci_job_deploy_docker_asan.sh</text>
</g>
<!-- server&#45;deploy&#45;docker.called.yaml&#45;&gt;kurento_ci_job_deploy_docker_asan.sh -->
<g id="edge19" class="edge">
<title>server&#45;deploy&#45;docker.called.yaml&#45;&gt;kurento_ci_job_deploy_docker_asan.sh</title>
<path fill="none" stroke="black" d="M637.62,-361.28C686.83,-368.83 748.76,-378.34 800.4,-386.26"/>
<polygon fill="black" stroke="black" points="800.17,-389.77 810.58,-387.83 801.23,-382.85 800.17,-389.77"/>
</g>
<!-- kurento_maven_deploy.sh -->
<g id="node35" class="node">
<title>kurento_maven_deploy.sh</title>
<ellipse fill="none" stroke="black" cx="1541.38" cy="-525" rx="103.98" ry="18"/>
<text text-anchor="middle" x="1541.38" y="-521.3" font-family="Times,serif" font-size="14.00">kurento_maven_deploy.sh</text>
</g>
<!-- kurento_ci_job_deploy_java.sh&#45;&gt;kurento_maven_deploy.sh -->
<g id="edge28" class="edge">
<title>kurento_ci_job_deploy_java.sh&#45;&gt;kurento_maven_deploy.sh</title>
<path fill="none" stroke="black" d="M1335.61,-542.9C1368.71,-540 1405.26,-536.81 1438.22,-533.93"/>
<polygon fill="black" stroke="black" points="1438.67,-537.4 1448.32,-533.05 1438.06,-530.43 1438.67,-537.4"/>
</g>
<!-- kurento_generate_java_module.sh -->
<g id="node37" class="node">
<title>kurento_generate_java_module.sh</title>
<ellipse fill="none" stroke="black" cx="1541.38" cy="-963" rx="131.88" ry="18"/>
<text text-anchor="middle" x="1541.38" y="-959.3" font-family="Times,serif" font-size="14.00">kurento_generate_java_module.sh</text>
</g>
<!-- kurento_ci_job_generate_module.sh&#45;&gt;kurento_generate_java_module.sh -->
<g id="edge30" class="edge">
<title>kurento_ci_job_generate_module.sh&#45;&gt;kurento_generate_java_module.sh</title>
<path fill="none" stroke="black" d="M1255.27,-849.78C1287.71,-873.12 1348.37,-913.73 1406.19,-936 1417.65,-940.42 1429.95,-944.15 1442.29,-947.29"/>
<polygon fill="black" stroke="black" points="1441.63,-950.74 1452.17,-949.69 1443.28,-943.93 1441.63,-950.74"/>
</g>
<!-- kurento_generate_js_module.sh -->
<g id="node38" class="node">
<title>kurento_generate_js_module.sh</title>
<ellipse fill="none" stroke="black" cx="1541.38" cy="-855" rx="123.48" ry="18"/>
<text text-anchor="middle" x="1541.38" y="-851.3" font-family="Times,serif" font-size="14.00">kurento_generate_js_module.sh</text>
</g>
<!-- kurento_ci_job_generate_module.sh&#45;&gt;kurento_generate_js_module.sh -->
<g id="edge31" class="edge">
<title>kurento_ci_job_generate_module.sh&#45;&gt;kurento_generate_js_module.sh</title>
<path fill="none" stroke="black" d="M1351.77,-840.96C1374.5,-842.65 1398.27,-844.42 1420.96,-846.11"/>
<polygon fill="black" stroke="black" points="1420.73,-849.6 1430.96,-846.85 1421.25,-842.62 1420.73,-849.6"/>
</g>
<!-- kurento_get_name.sh -->
<g id="node39" class="node">
<title>kurento_get_name.sh</title>
<ellipse fill="none" stroke="black" cx="1843.85" cy="-773" rx="87.18" ry="18"/>
<text text-anchor="middle" x="1843.85" y="-769.3" font-family="Times,serif" font-size="14.00">kurento_get_name.sh</text>
</g>
<!-- kurento_ci_job_generate_module.sh&#45;&gt;kurento_get_name.sh -->
<g id="edge32" class="edge">
<title>kurento_ci_job_generate_module.sh&#45;&gt;kurento_get_name.sh</title>
<path fill="none" stroke="black" d="M1342.88,-821.25C1461.17,-809.83 1645.71,-792.02 1754.41,-781.53"/>
<polygon fill="black" stroke="black" points="1755.07,-784.99 1764.69,-780.54 1754.4,-778.02 1755.07,-784.99"/>
</g>
<!-- kurento_install_server.sh -->
<g id="node40" class="node">
<title>kurento_install_server.sh</title>
<ellipse fill="none" stroke="black" cx="1541.38" cy="-909" rx="98.58" ry="18"/>
<text text-anchor="middle" x="1541.38" y="-905.3" font-family="Times,serif" font-size="14.00">kurento_install_server.sh</text>
</g>
<!-- kurento_ci_job_generate_module.sh&#45;&gt;kurento_install_server.sh -->
<g id="edge33" class="edge">
<title>kurento_ci_job_generate_module.sh&#45;&gt;kurento_install_server.sh</title>
<path fill="none" stroke="black" d="M1285.46,-848.67C1319.84,-858.97 1365.41,-872.08 1406.19,-882 1424.01,-886.34 1443.29,-890.51 1461.53,-894.23"/>
<polygon fill="black" stroke="black" points="1461.04,-897.7 1471.53,-896.25 1462.42,-890.84 1461.04,-897.7"/>
</g>
<!-- kurento_deploy_js.sh -->
<g id="node36" class="node">
<title>kurento_deploy_js.sh</title>
<ellipse fill="none" stroke="black" cx="1230.45" cy="-633" rx="86.38" ry="18"/>
<text text-anchor="middle" x="1230.45" y="-629.3" font-family="Times,serif" font-size="14.00">kurento_deploy_js.sh</text>
</g>
<!-- kurento_ci_job_deploy_js.sh&#45;&gt;kurento_deploy_js.sh -->
<g id="edge29" class="edge">
<title>kurento_ci_job_deploy_js.sh&#45;&gt;kurento_deploy_js.sh</title>
<path fill="none" stroke="black" d="M965.97,-697.95C1022.46,-684.03 1106.22,-663.38 1164.06,-649.12"/>
<polygon fill="black" stroke="black" points="1164.96,-652.5 1173.83,-646.71 1163.28,-645.71 1164.96,-652.5"/>
</g>
<!-- kurento_git_checkout_name.sh -->
<g id="node41" class="node">
<title>kurento_git_checkout_name.sh</title>
<ellipse fill="none" stroke="black" cx="1843.85" cy="-219" rx="121.58" ry="18"/>
<text text-anchor="middle" x="1843.85" y="-215.3" font-family="Times,serif" font-size="14.00">kurento_git_checkout_name.sh</text>
</g>
<!-- kurento_ci_job_package_debian.sh&#45;&gt;kurento_git_checkout_name.sh -->
<g id="edge34" class="edge">
<title>kurento_ci_job_package_debian.sh&#45;&gt;kurento_git_checkout_name.sh</title>
<path fill="none" stroke="black" d="M1676.79,-219C1688.52,-219 1700.37,-219 1712.06,-219"/>
<polygon fill="black" stroke="black" points="1712.29,-222.5 1722.29,-219 1712.29,-215.5 1712.29,-222.5"/>
</g>
<!-- kurento_git_default_branch.sh -->
<g id="node42" class="node">
<title>kurento_git_default_branch.sh</title>
<ellipse fill="none" stroke="black" cx="2129.43" cy="-288" rx="118.08" ry="18"/>
<text text-anchor="middle" x="2129.43" y="-284.3" font-family="Times,serif" font-size="14.00">kurento_git_default_branch.sh</text>
</g>
<!-- kurento_ci_job_package_debian.sh&#45;&gt;kurento_git_default_branch.sh -->
<g id="edge35" class="edge">
<title>kurento_ci_job_package_debian.sh&#45;&gt;kurento_git_default_branch.sh</title>
<path fill="none" stroke="black" d="M1625.34,-233.13C1653.03,-237.59 1684.08,-242.31 1712.56,-246 1814.91,-259.28 1931.89,-270.76 2015.65,-278.35"/>
<polygon fill="black" stroke="black" points="2015.43,-281.85 2025.7,-279.26 2016.06,-274.87 2015.43,-281.85"/>
</g>
<!-- kurento_ci_aptly_repo_publish.sh -->
<g id="node24" class="node">
<title>kurento_ci_aptly_repo_publish.sh</title>
<ellipse fill="none" stroke="black" cx="1230.45" cy="-202" rx="130.78" ry="18"/>
<text text-anchor="middle" x="1230.45" y="-198.3" font-family="Times,serif" font-size="14.00">kurento_ci_aptly_repo_publish.sh</text>
</g>
<!-- kurento_ci_job_deploy_debian.sh&#45;&gt;kurento_ci_aptly_repo_publish.sh -->
<g id="edge24" class="edge">
<title>kurento_ci_job_deploy_debian.sh&#45;&gt;kurento_ci_aptly_repo_publish.sh</title>
<path fill="none" stroke="black" d="M1034.12,-202C1052.31,-202 1071.09,-202 1089.47,-202"/>
<polygon fill="black" stroke="black" points="1089.64,-205.5 1099.64,-202 1089.64,-198.5 1089.64,-205.5"/>
</g>
<!-- kurento_ci_job_deploy_docker.sh&#45;&gt;kurento_container_build.sh -->
<g id="edge26" class="edge">
<title>kurento_ci_job_deploy_docker.sh&#45;&gt;kurento_container_build.sh</title>
<path fill="none" stroke="black" d="M1003.62,-336.44C1044.27,-331.68 1091.25,-326.18 1131.8,-321.43"/>
<polygon fill="black" stroke="black" points="1132.44,-324.88 1141.96,-320.24 1131.62,-317.93 1132.44,-324.88"/>
</g>
<!-- kurento_ci_job_deploy_docker_asan.sh&#45;&gt;kurento_container_build.sh -->
<g id="edge27" class="edge">
<title>kurento_ci_job_deploy_docker_asan.sh&#45;&gt;kurento_container_build.sh</title>
<path fill="none" stroke="black" d="M998.19,-387.84C1017.04,-384.24 1036.62,-379.95 1054.71,-375 1098.37,-363.05 1146.48,-344.76 1181.14,-330.62"/>
<polygon fill="black" stroke="black" points="1182.63,-333.79 1190.55,-326.75 1179.97,-327.32 1182.63,-333.79"/>
</g>
<!-- kurento_ci_container_dnat_hook_handler.sh -->
<g id="node25" class="node">
<title>kurento_ci_container_dnat_hook_handler.sh</title>
<ellipse fill="none" stroke="black" cx="550.1" cy="-841" rx="167.07" ry="18"/>
<text text-anchor="middle" x="550.1" y="-837.3" font-family="Times,serif" font-size="14.00">kurento_ci_container_dnat_hook_handler.sh</text>
</g>
<!-- kurento_ci_container_dnat.sh -->
<g id="node26" class="node">
<title>kurento_ci_container_dnat.sh</title>
<ellipse fill="none" stroke="black" cx="903.93" cy="-841" rx="115.08" ry="18"/>
<text text-anchor="middle" x="903.93" y="-837.3" font-family="Times,serif" font-size="14.00">kurento_ci_container_dnat.sh</text>
</g>
<!-- kurento_ci_container_dnat_hook_handler.sh&#45;&gt;kurento_ci_container_dnat.sh -->
<g id="edge20" class="edge">
<title>kurento_ci_container_dnat_hook_handler.sh&#45;&gt;kurento_ci_container_dnat.sh</title>
<path fill="none" stroke="black" d="M717.23,-841C737.93,-841 758.81,-841 778.72,-841"/>
<polygon fill="black" stroke="black" points="778.72,-844.5 788.72,-841 778.72,-837.5 778.72,-844.5"/>
</g>
<!-- kurento_ci_container_dockerhook_monitor.sh -->
<g id="node27" class="node">
<title>kurento_ci_container_dockerhook_monitor.sh</title>
<ellipse fill="none" stroke="black" cx="173.53" cy="-841" rx="173.57" ry="18"/>
<text text-anchor="middle" x="173.53" y="-837.3" font-family="Times,serif" font-size="14.00">kurento_ci_container_dockerhook_monitor.sh</text>
</g>
<!-- kurento_ci_container_dockerhook_monitor.sh&#45;&gt;kurento_ci_container_dnat_hook_handler.sh -->
<g id="edge21" class="edge">
<title>kurento_ci_container_dockerhook_monitor.sh&#45;&gt;kurento_ci_container_dnat_hook_handler.sh</title>
<path fill="none" stroke="black" d="M347.29,-841C355.84,-841 364.43,-841 372.99,-841"/>
<polygon fill="black" stroke="black" points="373.02,-844.5 383.02,-841 373.02,-837.5 373.02,-844.5"/>
</g>
<!-- kurento_ci_container_entrypoint.sh -->
<g id="node28" class="node">
<title>kurento_ci_container_entrypoint.sh</title>
<ellipse fill="none" stroke="black" cx="550.1" cy="-949" rx="135.68" ry="18"/>
<text text-anchor="middle" x="550.1" y="-945.3" font-family="Times,serif" font-size="14.00">kurento_ci_container_entrypoint.sh</text>
</g>
<!-- kurento_ci_container_job_setup.sh -->
<g id="node29" class="node">
<title>kurento_ci_container_job_setup.sh</title>
<ellipse fill="none" stroke="black" cx="173.53" cy="-922" rx="133.78" ry="18"/>
<text text-anchor="middle" x="173.53" y="-918.3" font-family="Times,serif" font-size="14.00">kurento_ci_container_job_setup.sh</text>
</g>
<!-- kurento_ci_container_job_setup.sh&#45;&gt;kurento_ci_container_entrypoint.sh -->
<g id="edge22" class="edge">
<title>kurento_ci_container_job_setup.sh&#45;&gt;kurento_ci_container_entrypoint.sh</title>
<path fill="none" stroke="black" d="M291.77,-930.45C332.51,-933.39 378.42,-936.7 420.06,-939.7"/>
<polygon fill="black" stroke="black" points="420.04,-943.21 430.27,-940.43 420.55,-936.22 420.04,-943.21"/>
</g>
<!-- kurento_update_test_files.sh -->
<g id="node30" class="node">
<title>kurento_update_test_files.sh</title>
<ellipse fill="none" stroke="black" cx="550.1" cy="-895" rx="111.58" ry="18"/>
<text text-anchor="middle" x="550.1" y="-891.3" font-family="Times,serif" font-size="14.00">kurento_update_test_files.sh</text>
</g>
<!-- kurento_ci_container_job_setup.sh&#45;&gt;kurento_update_test_files.sh -->
<g id="edge23" class="edge">
<title>kurento_ci_container_job_setup.sh&#45;&gt;kurento_update_test_files.sh</title>
<path fill="none" stroke="black" d="M291.77,-913.55C338.35,-910.19 391.69,-906.35 437.68,-903.03"/>
<polygon fill="black" stroke="black" points="437.96,-906.52 447.68,-902.31 437.46,-899.54 437.96,-906.52"/>
</g>
<!-- kurento_ci_github_runner_cleanup.sh -->
<g id="node31" class="node">
<title>kurento_ci_github_runner_cleanup.sh</title>
<ellipse fill="none" stroke="black" cx="173.53" cy="-976" rx="144.07" ry="18"/>
<text text-anchor="middle" x="173.53" y="-972.3" font-family="Times,serif" font-size="14.00">kurento_ci_github_runner_cleanup.sh</text>
</g>
<!-- kurento_ci_github_runner_setup.sh -->
<g id="node32" class="node">
<title>kurento_ci_github_runner_setup.sh</title>
<ellipse fill="none" stroke="black" cx="173.53" cy="-1030" rx="135.68" ry="18"/>
<text text-anchor="middle" x="173.53" y="-1026.3" font-family="Times,serif" font-size="14.00">kurento_ci_github_runner_setup.sh</text>
</g>
<!-- kurento_ci_job_deploy_debian_test.sh -->
<g id="node33" class="node">
<title>kurento_ci_job_deploy_debian_test.sh</title>
<ellipse fill="none" stroke="black" cx="173.53" cy="-1084" rx="146.77" ry="18"/>
<text text-anchor="middle" x="173.53" y="-1080.3" font-family="Times,serif" font-size="14.00">kurento_ci_job_deploy_debian_test.sh</text>
</g>
<!-- kurento_check_version.sh -->
<g id="node46" class="node">
<title>kurento_check_version.sh</title>
<ellipse fill="none" stroke="black" cx="1843.85" cy="-479" rx="102.88" ry="18"/>
<text text-anchor="middle" x="1843.85" y="-475.3" font-family="Times,serif" font-size="14.00">kurento_check_version.sh</text>
</g>
<!-- kurento_doc_deploy.sh&#45;&gt;kurento_check_version.sh -->
<g id="edge50" class="edge">
<title>kurento_doc_deploy.sh&#45;&gt;kurento_check_version.sh</title>
<path fill="none" stroke="black" d="M1614.73,-444.08C1657.19,-450.58 1711.12,-458.83 1755.88,-465.69"/>
<polygon fill="black" stroke="black" points="1755.46,-469.16 1765.87,-467.22 1756.52,-462.24 1755.46,-469.16"/>
</g>
<!-- kurento_get_version.sh -->
<g id="node50" class="node">
<title>kurento_get_version.sh</title>
<ellipse fill="none" stroke="black" cx="2129.43" cy="-579" rx="92.88" ry="18"/>
<text text-anchor="middle" x="2129.43" y="-575.3" font-family="Times,serif" font-size="14.00">kurento_get_version.sh</text>
</g>
<!-- kurento_doc_deploy.sh&#45;&gt;kurento_get_version.sh -->
<g id="edge51" class="edge">
<title>kurento_doc_deploy.sh&#45;&gt;kurento_get_version.sh</title>
<path fill="none" stroke="black" d="M1616.47,-422.34C1705.04,-412.69 1856.2,-406.16 1975.14,-452 2030.2,-473.22 2080,-522.63 2107.07,-553.19"/>
<polygon fill="black" stroke="black" points="2104.57,-555.64 2113.77,-560.89 2109.85,-551.05 2104.57,-555.64"/>
</g>
<!-- kurento_maven_deploy.sh&#45;&gt;kurento_check_version.sh -->
<g id="edge54" class="edge">
<title>kurento_maven_deploy.sh&#45;&gt;kurento_check_version.sh</title>
<path fill="none" stroke="black" d="M1619.76,-513.15C1661.46,-506.77 1713.04,-498.87 1756.1,-492.28"/>
<polygon fill="black" stroke="black" points="1756.64,-495.74 1765.99,-490.77 1755.58,-488.82 1756.64,-495.74"/>
</g>
<!-- kurento_maven_deploy.sh&#45;&gt;kurento_get_version.sh -->
<g id="edge55" class="edge">
<title>kurento_maven_deploy.sh&#45;&gt;kurento_get_version.sh</title>
<path fill="none" stroke="black" d="M1610.7,-538.47C1631.83,-542.71 1655.18,-547.47 1676.56,-552 1692.6,-555.39 1696.32,-557.84 1712.56,-560 1818.93,-574.14 1941.79,-578.27 2026.24,-579.24"/>
<polygon fill="black" stroke="black" points="2026.31,-582.74 2036.35,-579.35 2026.39,-575.75 2026.31,-582.74"/>
</g>
<!-- kurento_maven_deploy_github.sh -->
<g id="node53" class="node">
<title>kurento_maven_deploy_github.sh</title>
<ellipse fill="none" stroke="black" cx="1843.85" cy="-533" rx="131.08" ry="18"/>
<text text-anchor="middle" x="1843.85" y="-529.3" font-family="Times,serif" font-size="14.00">kurento_maven_deploy_github.sh</text>
</g>
<!-- kurento_maven_deploy.sh&#45;&gt;kurento_maven_deploy_github.sh -->
<g id="edge56" class="edge">
<title>kurento_maven_deploy.sh&#45;&gt;kurento_maven_deploy_github.sh</title>
<path fill="none" stroke="black" d="M1644.52,-527.72C1663.88,-528.23 1684.43,-528.78 1704.68,-529.32"/>
<polygon fill="black" stroke="black" points="1704.83,-532.83 1714.92,-529.59 1705.01,-525.83 1704.83,-532.83"/>
</g>
<!-- kurento_deploy_js.sh&#45;&gt;kurento_maven_deploy.sh -->
<g id="edge39" class="edge">
<title>kurento_deploy_js.sh&#45;&gt;kurento_maven_deploy.sh</title>
<path fill="none" stroke="black" d="M1279.13,-618.06C1306.59,-608.57 1341.27,-595.07 1370.19,-579 1387.67,-569.28 1387.93,-560.17 1406.19,-552 1419.14,-546.2 1433.35,-541.64 1447.53,-538.05"/>
<polygon fill="black" stroke="black" points="1448.41,-541.44 1457.32,-535.72 1446.79,-534.63 1448.41,-541.44"/>
</g>
<!-- kurento_deploy_js.sh&#45;&gt;kurento_get_name.sh -->
<g id="edge40" class="edge">
<title>kurento_deploy_js.sh&#45;&gt;kurento_get_name.sh</title>
<path fill="none" stroke="black" d="M1249.94,-650.86C1279.89,-678.47 1342.15,-730.57 1406.19,-752 1467,-772.35 1637.78,-774.99 1746.86,-774.43"/>
<polygon fill="black" stroke="black" points="1746.91,-777.92 1756.89,-774.36 1746.87,-770.93 1746.91,-777.92"/>
</g>
<!-- kurento_deploy_js.sh&#45;&gt;kurento_check_version.sh -->
<g id="edge41" class="edge">
<title>kurento_deploy_js.sh&#45;&gt;kurento_check_version.sh</title>
<path fill="none" stroke="black" d="M1292.48,-620.36C1319.02,-612.27 1348.87,-599.34 1370.19,-579 1398.69,-551.81 1373.63,-520.18 1406.19,-498 1458.34,-462.47 1627.02,-465.09 1738.81,-471.28"/>
<polygon fill="black" stroke="black" points="1738.93,-474.79 1749.11,-471.87 1739.33,-467.8 1738.93,-474.79"/>
</g>
<!-- kurento_deploy_js_bower.sh -->
<g id="node47" class="node">
<title>kurento_deploy_js_bower.sh</title>
<ellipse fill="none" stroke="black" cx="1541.38" cy="-368" rx="112.38" ry="18"/>
<text text-anchor="middle" x="1541.38" y="-364.3" font-family="Times,serif" font-size="14.00">kurento_deploy_js_bower.sh</text>
</g>
<!-- kurento_deploy_js.sh&#45;&gt;kurento_deploy_js_bower.sh -->
<g id="edge42" class="edge">
<title>kurento_deploy_js.sh&#45;&gt;kurento_deploy_js_bower.sh</title>
<path fill="none" stroke="black" d="M1297.43,-621.52C1323.62,-613.72 1351.82,-600.7 1370.19,-579 1420.93,-519.05 1352.65,-463.46 1406.19,-406 1415.82,-395.66 1428.03,-388.07 1441.14,-382.49"/>
<polygon fill="black" stroke="black" points="1442.74,-385.63 1450.82,-378.79 1440.23,-379.09 1442.74,-385.63"/>
</g>
<!-- kurento_deploy_js_http.sh -->
<g id="node48" class="node">
<title>kurento_deploy_js_http.sh</title>
<ellipse fill="none" stroke="black" cx="1541.38" cy="-633" rx="104.78" ry="18"/>
<text text-anchor="middle" x="1541.38" y="-629.3" font-family="Times,serif" font-size="14.00">kurento_deploy_js_http.sh</text>
</g>
<!-- kurento_deploy_js.sh&#45;&gt;kurento_deploy_js_http.sh -->
<g id="edge43" class="edge">
<title>kurento_deploy_js.sh&#45;&gt;kurento_deploy_js_http.sh</title>
<path fill="none" stroke="black" d="M1317.09,-633C1350.96,-633 1390.38,-633 1426.58,-633"/>
<polygon fill="black" stroke="black" points="1426.7,-636.5 1436.7,-633 1426.7,-629.5 1426.7,-636.5"/>
</g>
<!-- kurento_deploy_js_npm.sh -->
<g id="node49" class="node">
<title>kurento_deploy_js_npm.sh</title>
<ellipse fill="none" stroke="black" cx="1541.38" cy="-579" rx="106.68" ry="18"/>
<text text-anchor="middle" x="1541.38" y="-575.3" font-family="Times,serif" font-size="14.00">kurento_deploy_js_npm.sh</text>
</g>
<!-- kurento_deploy_js.sh&#45;&gt;kurento_deploy_js_npm.sh -->
<g id="edge44" class="edge">
<title>kurento_deploy_js.sh&#45;&gt;kurento_deploy_js_npm.sh</title>
<path fill="none" stroke="black" d="M1297.34,-621.48C1343.85,-613.35 1406.52,-602.4 1456.58,-593.65"/>
<polygon fill="black" stroke="black" points="1457.49,-597.04 1466.74,-591.87 1456.28,-590.15 1457.49,-597.04"/>
</g>
<!-- kurento_deploy_js.sh&#45;&gt;kurento_get_version.sh -->
<g id="edge45" class="edge">
<title>kurento_deploy_js.sh&#45;&gt;kurento_get_version.sh</title>
<path fill="none" stroke="black" d="M1294.67,-645.16C1327.75,-650.92 1369,-657.14 1406.19,-660 1526,-669.2 1556.87,-670.64 1676.56,-660 1813.97,-647.78 1972.12,-615.06 2060.16,-595.14"/>
<polygon fill="black" stroke="black" points="2061.05,-598.53 2070.03,-592.9 2059.5,-591.71 2061.05,-598.53"/>
</g>
<!-- kurento_mavenize_js_project.sh -->
<g id="node51" class="node">
<title>kurento_mavenize_js_project.sh</title>
<ellipse fill="none" stroke="black" cx="1541.38" cy="-725" rx="125.38" ry="18"/>
<text text-anchor="middle" x="1541.38" y="-721.3" font-family="Times,serif" font-size="14.00">kurento_mavenize_js_project.sh</text>
</g>
<!-- kurento_deploy_js.sh&#45;&gt;kurento_mavenize_js_project.sh -->
<g id="edge46" class="edge">
<title>kurento_deploy_js.sh&#45;&gt;kurento_mavenize_js_project.sh</title>
<path fill="none" stroke="black" d="M1273.46,-648.7C1308.63,-661.54 1360.29,-679.68 1406.19,-693 1424.13,-698.21 1443.59,-703.21 1461.98,-707.65"/>
<polygon fill="black" stroke="black" points="1461.24,-711.07 1471.78,-709.99 1462.86,-704.26 1461.24,-711.07"/>
</g>
<!-- kurento_generate_js_module.sh&#45;&gt;kurento_get_name.sh -->
<g id="edge52" class="edge">
<title>kurento_generate_js_module.sh&#45;&gt;kurento_get_name.sh</title>
<path fill="none" stroke="black" d="M1609.12,-839.89C1630.71,-834.79 1654.71,-828.89 1676.56,-823 1713.1,-813.16 1753.78,-800.95 1785.76,-791.06"/>
<polygon fill="black" stroke="black" points="1786.88,-794.38 1795.4,-788.07 1784.81,-787.69 1786.88,-794.38"/>
</g>
<!-- kurento_generate_js_module.sh&#45;&gt;kurento_get_version.sh -->
<g id="edge53" class="edge">
<title>kurento_generate_js_module.sh&#45;&gt;kurento_get_version.sh</title>
<path fill="none" stroke="black" d="M1646.25,-864.58C1739.07,-868.12 1875.43,-860.5 1975.14,-800 2050.8,-754.09 2098.45,-655.04 2118.09,-606.68"/>
<polygon fill="black" stroke="black" points="2121.43,-607.76 2121.86,-597.17 2114.92,-605.18 2121.43,-607.76"/>
</g>
<!-- kurento_git_checkout_name.sh&#45;&gt;kurento_git_default_branch.sh -->
<g id="edge61" class="edge">
<title>kurento_git_checkout_name.sh&#45;&gt;kurento_git_default_branch.sh</title>
<path fill="none" stroke="black" d="M1907.79,-234.31C1951.57,-244.97 2010.06,-259.2 2055.82,-270.33"/>
<polygon fill="black" stroke="black" points="2055.13,-273.77 2065.67,-272.73 2056.78,-266.96 2055.13,-273.77"/>
</g>
<!-- server/bin/make&#45;dev&#45;container.sh -->
<g id="node44" class="node">
<title>server/bin/make&#45;dev&#45;container.sh</title>
<ellipse fill="none" stroke="black" cx="550.1" cy="-72" rx="128.88" ry="18"/>
<text text-anchor="middle" x="550.1" y="-68.3" font-family="Times,serif" font-size="14.00">server/bin/make&#45;dev&#45;container.sh</text>
</g>
<!-- server/bin/make&#45;dev&#45;container.sh&#45;&gt;kurento&#45;buildpackage.sh -->
<g id="edge37" class="edge">
<title>server/bin/make&#45;dev&#45;container.sh&#45;&gt;kurento&#45;buildpackage.sh</title>
<path fill="none" stroke="black" d="M663.39,-63.38C708.45,-59.93 759.94,-55.97 803.61,-52.62"/>
<polygon fill="black" stroke="black" points="803.96,-56.11 813.66,-51.85 803.42,-49.13 803.96,-56.11"/>
</g>
<!-- kurento_check_version.sh&#45;&gt;kurento_get_version.sh -->
<g id="edge59" class="edge">
<title>kurento_check_version.sh&#45;&gt;kurento_get_version.sh</title>
<path fill="none" stroke="black" d="M1919.4,-491.24C1937.85,-495.14 1957.41,-500.04 1975.14,-506 2015.4,-519.54 2058.9,-540.96 2089.24,-557.11"/>
<polygon fill="black" stroke="black" points="2087.75,-560.28 2098.22,-561.93 2091.07,-554.12 2087.75,-560.28"/>
</g>
<!-- kurento_deploy_js_bower.sh&#45;&gt;kurento_git_default_branch.sh -->
<g id="edge47" class="edge">
<title>kurento_deploy_js_bower.sh&#45;&gt;kurento_git_default_branch.sh</title>
<path fill="none" stroke="black" d="M1654.09,-367.77C1742.06,-365.79 1867.39,-358.97 1975.14,-338 2009.7,-331.27 2047.31,-319.09 2076.62,-308.43"/>
<polygon fill="black" stroke="black" points="2078.06,-311.63 2086.23,-304.88 2075.63,-305.06 2078.06,-311.63"/>
</g>
<!-- kurento_deploy_js_bower.sh&#45;&gt;kurento_get_version.sh -->
<g id="edge48" class="edge">
<title>kurento_deploy_js_bower.sh&#45;&gt;kurento_get_version.sh</title>
<path fill="none" stroke="black" d="M1652.96,-370.37C1762.17,-374.28 1920.54,-384.63 1975.14,-412 2038.65,-443.84 2088.82,-513.82 2112.88,-552.32"/>
<polygon fill="black" stroke="black" points="2109.95,-554.23 2118.15,-560.93 2115.91,-550.58 2109.95,-554.23"/>
</g>
<!-- kurento_clone_repo.sh -->
<g id="node52" class="node">
<title>kurento_clone_repo.sh</title>
<ellipse fill="none" stroke="black" cx="1843.85" cy="-311" rx="90.98" ry="18"/>
<text text-anchor="middle" x="1843.85" y="-307.3" font-family="Times,serif" font-size="14.00">kurento_clone_repo.sh</text>
</g>
<!-- kurento_deploy_js_bower.sh&#45;&gt;kurento_clone_repo.sh -->
<g id="edge49" class="edge">
<title>kurento_deploy_js_bower.sh&#45;&gt;kurento_clone_repo.sh</title>
<path fill="none" stroke="black" d="M1614.73,-354.27C1660.92,-345.51 1720.68,-334.18 1767.45,-325.3"/>
<polygon fill="black" stroke="black" points="1768.35,-328.69 1777.53,-323.39 1767.05,-321.82 1768.35,-328.69"/>
</g>
<!-- kurento_mavenize_js_project.sh&#45;&gt;kurento_get_name.sh -->
<g id="edge57" class="edge">
<title>kurento_mavenize_js_project.sh&#45;&gt;kurento_get_name.sh</title>
<path fill="none" stroke="black" d="M1626.08,-738.37C1669.32,-745.28 1721.78,-753.66 1764.26,-760.45"/>
<polygon fill="black" stroke="black" points="1763.85,-763.92 1774.28,-762.05 1764.96,-757.01 1763.85,-763.92"/>
</g>
<!-- kurento_mavenize_js_project.sh&#45;&gt;kurento_get_version.sh -->
<g id="edge58" class="edge">
<title>kurento_mavenize_js_project.sh&#45;&gt;kurento_get_version.sh</title>
<path fill="none" stroke="black" d="M1652.21,-733.49C1741.91,-736.56 1870.48,-731.99 1975.14,-693 2026.84,-673.74 2076.08,-631.37 2104.23,-604.06"/>
<polygon fill="black" stroke="black" points="2106.93,-606.3 2111.59,-596.79 2102.01,-601.32 2106.93,-606.3"/>
</g>
<!-- kurento_clone_repo.sh&#45;&gt;kurento_git_default_branch.sh -->
<g id="edge60" class="edge">
<title>kurento_clone_repo.sh&#45;&gt;kurento_git_default_branch.sh</title>
<path fill="none" stroke="black" d="M1928.4,-304.22C1955.37,-302.04 1985.73,-299.57 2014.5,-297.24"/>
<polygon fill="black" stroke="black" points="2014.92,-300.72 2024.6,-296.42 2014.35,-293.74 2014.92,-300.72"/>
</g>
</g>
</svg>
